STARTFONT 2.3
FONT -FontForge-Roboto Condensed-Book-R-Condensed---24-240-72-72-P-118-ISO10646-1
SIZE 24 72 72  2
FONTBOUNDINGBOX 42 33 -18 -7
COMMENT "Generated by fontforge, http://fontforge.sourceforge.net"
COMMENT "Copyright 2011 Google Inc. All Rights Reserved."
STARTPROPERTIES 42
FOUNDRY "FontForge"
FAMILY_NAME "Roboto Condensed"
WEIGHT_NAME "Book"
SLANT "R"
SETWIDTH_NAME "Condensed"
ADD_STYLE_NAME ""
PIXEL_SIZE 24
POINT_SIZE 240
RESOLUTION_X 72
RESOLUTION_Y 72
SPACING "P"
AVERAGE_WIDTH 118
CHARSET_REGISTRY "ISO10646"
CHARSET_ENCODING "1"
FONTNAME_REGISTRY ""
CHARSET_COLLECTIONS "ISO8859-2 ISO8859-5 ISO8859-7 ISO8859-9 ISO8859-4 ISO10646-1"
BITS_PER_PIXEL 2
FONT_NAME "RobotoCondensed-Regular"
FACE_NAME "Roboto Condensed"
COPYRIGHT "Copyright 2011 Google Inc. All Rights Reserved."
FONT_VERSION "2.137; 2017"
FONT_ASCENT 18
FONT_DESCENT 6
UNDERLINE_POSITION -2
UNDERLINE_THICKNESS 2
X_HEIGHT 12
CAP_HEIGHT 16
DEFAULT_CHAR 1
RAW_ASCENT 750
RAW_DESCENT 250
NORM_SPACE 6
RELATIVE_WEIGHT 40
RELATIVE_SETWIDTH 50
SUPERSCRIPT_X 0
SUPERSCRIPT_Y 11
SUPERSCRIPT_SIZE 15
SUBSCRIPT_X 0
SUBSCRIPT_Y 3
SUBSCRIPT_SIZE 15
FIGURE_WIDTH 12
AVG_LOWERCASE_WIDTH 116
AVG_UPPERCASE_WIDTH 137
ENDPROPERTIES
CHARS 1296
STARTCHAR uni0000
ENCODING 0
SWIDTH 0 0
DWIDTH 0 0
BBX 1 1 0 0
BITMAP
00
ENDCHAR
STARTCHAR uni0002
ENCODING 2
SWIDTH 0 0
DWIDTH 0 0
BBX 1 1 0 0
BITMAP
00
ENDCHAR
STARTCHAR uni000D
ENCODING 13
SWIDTH 229 0
DWIDTH 6 0
BBX 1 1 0 0
BITMAP
00
ENDCHAR
STARTCHAR space
ENCODING 32
SWIDTH 229 0
DWIDTH 6 0
BBX 1 1 0 0
BITMAP
00
ENDCHAR
STARTCHAR exclam
ENCODING 33
SWIDTH 245 0
DWIDTH 6 0
BBX 2 17 2 0
BITMAP
F0
F0
F0
F0
F0
F0
F0
F0
F0
F0
F0
F0
00
00
50
F0
F0
ENDCHAR
STARTCHAR quotedbl
ENCODING 34
SWIDTH 319 0
DWIDTH 8 0
BBX 6 6 1 12
BITMAP
75D0
75D0
75D0
71D0
71D0
71C0
ENDCHAR
STARTCHAR numbersign
ENCODING 35
SWIDTH 547 0
DWIDTH 13 0
BBX 12 17 1 0
BITMAP
007474
007070
00B0B0
00E0E0
2FFFFE
1AEAE9
01D1D0
02C2C0
02C2C0
028380
7FFFF8
6BABA4
074740
070700
0B0B00
0A0A00
0E0E00
ENDCHAR
STARTCHAR dollar
ENCODING 36
SWIDTH 493 0
DWIDTH 12 0
BBX 10 23 1 -3
BITMAP
006000
00B000
00B000
06F900
1FFF40
2E0BC0
3C03D0
3C02D0
3C0150
2E0000
1FE000
06FE00
006F80
0007D0
1002D0
B402E0
7802D0
3D07C0
2FFF80
07F900
00E000
00E000
005000
ENDCHAR
STARTCHAR percent
ENCODING 37
SWIDTH 632 0
DWIDTH 15 0
BBX 13 17 1 0
BITMAP
1F800000
7AE00000
B0B02400
A0747400
A074A000
B071D000
79E38000
1F874000
000E0000
001C7E00
0039EB80
0072C2C0
00E381C0
02C381C0
0342C2C0
0201EB80
00007E00
ENDCHAR
STARTCHAR ampersand
ENCODING 38
SWIDTH 543 0
DWIDTH 13 0
BBX 12 17 1 0
BITMAP
02F800
0FFF00
1E0B40
2D0780
2D0B40
1F1F00
0FBD00
07F400
0BF000
2EB828
7C3D3C
B41F78
B40BF4
B403F0
7D07F4
2FFFB8
06F93E
ENDCHAR
STARTCHAR quotesingle
ENCODING 39
SWIDTH 174 0
DWIDTH 4 0
BBX 2 6 1 12
BITMAP
B0
B0
B0
B0
A0
A0
ENDCHAR
STARTCHAR parenleft
ENCODING 40
SWIDTH 313 0
DWIDTH 8 0
BBX 6 25 1 -6
BITMAP
0060
00E0
02C0
0740
0B00
1E00
2D00
3C00
3C00
7800
7800
7800
7800
7800
7800
7800
3C00
3C00
2D00
1E00
0F00
0740
02C0
00E0
0060
ENDCHAR
STARTCHAR parenright
ENCODING 41
SWIDTH 318 0
DWIDTH 8 0
BBX 6 25 0 -6
BITMAP
2000
7800
2D00
0F00
0740
0380
02C0
02D0
01E0
01E0
00F0
00F0
00F0
00F0
01F0
01E0
01E0
02D0
02C0
0380
0740
0F00
1D00
7800
2000
ENDCHAR
STARTCHAR asterisk
ENCODING 42
SWIDTH 430 0
DWIDTH 10 0
BBX 10 10 0 7
BITMAP
00B000
00B000
00B000
79B6E0
6FFFE0
02F900
03FC00
0B5E00
1E0B40
040200
ENDCHAR
STARTCHAR plus
ENCODING 43
SWIDTH 496 0
DWIDTH 12 0
BBX 10 13 1 1
BITMAP
00F000
00F000
00F000
00F000
00F000
FFFFF0
FFFFF0
00F000
00F000
00F000
00F000
00F000
005000
ENDCHAR
STARTCHAR comma
ENCODING 44
SWIDTH 196 0
DWIDTH 5 0
BBX 4 6 0 -3
BITMAP
19
2E
2E
2D
78
64
ENDCHAR
STARTCHAR hyphen
ENCODING 45
SWIDTH 248 0
DWIDTH 6 0
BBX 6 2 0 6
BITMAP
7FD0
6A90
ENDCHAR
STARTCHAR period
ENCODING 46
SWIDTH 263 0
DWIDTH 6 0
BBX 4 3 1 0
BITMAP
14
7D
3C
ENDCHAR
STARTCHAR slash
ENCODING 47
SWIDTH 370 0
DWIDTH 9 0
BBX 8 18 0 -1
BITMAP
000B
000E
001D
002C
0038
0074
00B0
00E0
01D0
02C0
0380
0740
0B00
0E00
1D00
2C00
3800
7400
ENDCHAR
STARTCHAR zero
ENCODING 48
SWIDTH 493 0
DWIDTH 12 0
BBX 10 17 1 0
BITMAP
06F900
1FFF40
3D0B80
7C03C0
7802D0
B402D0
B402D0
B402D0
B402D0
B402D0
B402D0
B402D0
7802D0
7C03C0
3D0B80
1FFF00
06F900
ENDCHAR
STARTCHAR one
ENCODING 49
SWIDTH 493 0
DWIDTH 12 0
BBX 6 17 2 0
BITMAP
01A0
6FE0
FEE0
92E0
02E0
02E0
02E0
02E0
02E0
02E0
02E0
02E0
02E0
02E0
02E0
02E0
02E0
ENDCHAR
STARTCHAR two
ENCODING 50
SWIDTH 493 0
DWIDTH 12 0
BBX 10 17 1 0
BITMAP
06F900
2FFF40
7D0BC0
B403D0
F403D0
5003C0
0003C0
000B40
001F00
003D00
00B800
02E000
07C000
1F4000
3D0000
BEAAA0
BFFFF0
ENDCHAR
STARTCHAR three
ENCODING 51
SWIDTH 493 0
DWIDTH 12 0
BBX 10 17 1 0
BITMAP
07F900
2FFF40
7D0B80
B803C0
A403C0
0007C0
001F40
03FD00
02BE00
000B80
0003C0
0003D0
A403D0
B403C0
7C0B80
2FBF00
0BF800
ENDCHAR
STARTCHAR four
ENCODING 52
SWIDTH 493 0
DWIDTH 12 0
BBX 11 17 0 0
BITMAP
0007D0
000BD0
001FD0
003FD0
0077D0
00F3D0
02D3D0
03C3D0
0B43D0
1E03D0
2D03D0
7FFFFC
6AABE8
0003D0
0003D0
0003D0
0003D0
ENDCHAR
STARTCHAR five
ENCODING 53
SWIDTH 493 0
DWIDTH 12 0
BBX 10 17 1 0
BITMAP
0FFFD0
1FFFD0
1E0000
1E0000
1D0000
2D0000
2EBE00
2FFF80
2D07D0
0002E0
0001E0
0001E0
6801E0
3C02E0
2E07D0
0FFF80
02F900
ENDCHAR
STARTCHAR six
ENCODING 54
SWIDTH 493 0
DWIDTH 12 0
BBX 10 17 1 0
BITMAP
006E00
03FE00
0F9000
1E0000
2D0000
3C0000
79FD00
7FFF80
7E07C0
7C02D0
7801E0
7801E0
7801E0
3D02D0
2E07C0
0FFF40
02F900
ENDCHAR
STARTCHAR seven
ENCODING 55
SWIDTH 493 0
DWIDTH 12 0
BBX 10 17 1 0
BITMAP
FFFFE0
AAABE0
0002D0
0003C0
000780
000B40
001E00
002D00
003C00
007800
00B400
00F000
02E000
03D000
07C000
0B4000
0F0000
ENDCHAR
STARTCHAR eight
ENCODING 56
SWIDTH 493 0
DWIDTH 12 0
BBX 10 17 1 0
BITMAP
06F900
1FFF40
3D0B80
7C03C0
7803C0
3C03C0
2E0B80
0BFE00
1FFE00
3D0B80
7803D0
B402D0
B402D0
7803D0
3D07C0
1FFF40
06F900
ENDCHAR
STARTCHAR nine
ENCODING 57
SWIDTH 493 0
DWIDTH 12 0
BBX 10 17 1 0
BITMAP
06F800
1FFE00
3D0F40
780780
B403C0
B403D0
B402D0
B402D0
7807D0
3D1FD0
1FFBC0
0693C0
000780
000B40
006E00
0BF800
0B9000
ENDCHAR
STARTCHAR colon
ENCODING 58
SWIDTH 233 0
DWIDTH 6 0
BBX 4 13 1 0
BITMAP
14
7D
3C
00
00
00
00
00
00
00
14
7D
3C
ENDCHAR
STARTCHAR semicolon
ENCODING 59
SWIDTH 202 0
DWIDTH 5 0
BBX 3 16 1 -3
BITMAP
24
BC
78
00
00
00
00
00
00
00
64
78
78
B4
F0
90
ENDCHAR
STARTCHAR less
ENCODING 60
SWIDTH 445 0
DWIDTH 11 0
BBX 8 11 1 2
BITMAP
0006
002F
01FE
1FE0
BE40
F400
BE40
1FE0
01FE
002F
0006
ENDCHAR
STARTCHAR equal
ENCODING 61
SWIDTH 479 0
DWIDTH 12 0
BBX 9 7 1 5
BITMAP
7FFFC0
7FFFC0
000000
000000
000000
7FFFC0
7FFFC0
ENDCHAR
STARTCHAR greater
ENCODING 62
SWIDTH 459 0
DWIDTH 11 0
BBX 9 11 1 2
BITMAP
600000
7D0000
6FD000
06F900
006F80
000BC0
006F80
06F900
6FD000
7D0000
600000
ENDCHAR
STARTCHAR question
ENCODING 63
SWIDTH 421 0
DWIDTH 10 0
BBX 8 17 1 0
BITMAP
1BE4
7FFD
B82E
F00F
000F
001F
002E
007C
01F4
02D0
03C0
0780
0000
0000
0140
07C0
0380
ENDCHAR
STARTCHAR at
ENCODING 64
SWIDTH 769 0
DWIDTH 18 0
BBX 17 22 1 -5
BITMAP
001BF90000
00BEABD000
02E001B000
0740003800
0E00001D00
1C02F80A00
280BAE0700
381E0E0700
742C0E0740
70380E0340
B0781D0340
B0741D0740
B0741D0700
B0742D0B00
70783D0E00
743EEF6C00
381F87E000
2C00000000
0E00000000
0780000000
01FAAE0000
002FE80000
ENDCHAR
STARTCHAR A
ENCODING 65
SWIDTH 576 0
DWIDTH 14 0
BBX 14 17 0 0
BITMAP
000F0000
001F4000
002F8000
003BC000
0076D000
00B5E000
00F0F000
01E0B400
02D07800
03C07C00
07803D00
0BFFFE00
0FFFFF00
1E000F40
2E000B80
3D0007C0
7C0003D0
ENDCHAR
STARTCHAR B
ENCODING 66
SWIDTH 545 0
DWIDTH 13 0
BBX 10 17 2 0
BITMAP
FFF900
FFFF80
F007C0
F003D0
F002D0
F003D0
F00B80
FFFE00
FABF40
F007C0
F002E0
F001E0
F002E0
F002E0
F007D0
FFFF80
FFF900
ENDCHAR
STARTCHAR C
ENCODING 67
SWIDTH 566 0
DWIDTH 14 0
BBX 12 17 1 0
BITMAP
01BF80
0BFFF0
1F40B8
3D003C
7C002D
780019
B80000
B80000
B80000
B80000
B80000
780019
7C002D
3D003C
1F40B8
0BFFF0
01BF80
ENDCHAR
STARTCHAR D
ENCODING 68
SWIDTH 570 0
DWIDTH 14 0
BBX 11 17 2 0
BITMAP
FFE800
FFFF40
F00BC0
F002E0
F001F0
F000F0
F000F0
F000F4
F000F4
F000F4
F000F0
F000F0
F001F0
F002E0
F00BC0
FFFF40
FFE400
ENDCHAR
STARTCHAR E
ENCODING 69
SWIDTH 496 0
DWIDTH 12 0
BBX 9 17 2 0
BITMAP
FFFFC0
FFFF80
F00000
F00000
F00000
F00000
F00000
FFFF00
FFFF00
F00000
F00000
F00000
F00000
F00000
F00000
FFFFC0
FFFFC0
ENDCHAR
STARTCHAR F
ENCODING 70
SWIDTH 480 0
DWIDTH 12 0
BBX 9 17 2 0
BITMAP
FFFF80
FFFF80
F00000
F00000
F00000
F00000
F00000
FFFE00
FFFE00
F00000
F00000
F00000
F00000
F00000
F00000
F00000
F00000
ENDCHAR
STARTCHAR G
ENCODING 71
SWIDTH 590 0
DWIDTH 14 0
BBX 12 17 1 0
BITMAP
01BF80
0BFFF0
2F40B8
3D003D
7C002D
780004
B80000
B80000
B80000
B80BFE
B80ABE
78002E
7C002E
3D002E
1F407E
0BFFF8
01BF90
ENDCHAR
STARTCHAR H
ENCODING 72
SWIDTH 620 0
DWIDTH 15 0
BBX 11 17 2 0
BITMAP
F0003C
F0003C
F0003C
F0003C
F0003C
F0003C
F0003C
FFFFFC
FFFFFC
F0003C
F0003C
F0003C
F0003C
F0003C
F0003C
F0003C
F0003C
ENDCHAR
STARTCHAR I
ENCODING 73
SWIDTH 250 0
DWIDTH 6 0
BBX 2 17 2 0
BITMAP
F0
F0
F0
F0
F0
F0
F0
F0
F0
F0
F0
F0
F0
F0
F0
F0
F0
ENDCHAR
STARTCHAR J
ENCODING 74
SWIDTH 483 0
DWIDTH 12 0
BBX 10 17 0 0
BITMAP
0001F0
0001F0
0001F0
0001F0
0001F0
0001F0
0001F0
0001F0
0001F0
0001F0
0001F0
0001F0
7C01E0
3C02E0
3E07D0
1FFF80
06FD00
ENDCHAR
STARTCHAR K
ENCODING 75
SWIDTH 544 0
DWIDTH 13 0
BBX 11 17 2 0
BITMAP
F001F4
F003D0
F00B80
F02F00
F07D00
F0F400
F2E000
F7D000
FFE000
FEF400
F8BC00
F03E00
F01F40
F00B80
F003D0
F001F0
F000F8
ENDCHAR
STARTCHAR L
ENCODING 76
SWIDTH 475 0
DWIDTH 11 0
BBX 9 17 2 0
BITMAP
F00000
F00000
F00000
F00000
F00000
F00000
F00000
F00000
F00000
F00000
F00000
F00000
F00000
F00000
F00000
FFFF80
FFFF80
ENDCHAR
STARTCHAR M
ENCODING 77
SWIDTH 755 0
DWIDTH 18 0
BBX 15 17 2 0
BITMAP
F80002F4
FC0003F4
FD0007F4
FE000BF4
FF000FB4
FB401EB4
F7802DB4
F3C03CB4
F2D078B4
F1E0B4F4
F0F0F0F4
F0B5E0F4
F079D0F4
F03EC0F4
F02F80F4
F01F40F4
F00F00F4
ENDCHAR
STARTCHAR N
ENCODING 78
SWIDTH 619 0
DWIDTH 15 0
BBX 11 17 2 0
BITMAP
F4003C
F8003C
FD003C
FE003C
FB403C
F7C03C
F2D03C
F0F03C
F0B43C
F03C3C
F02D3C
F00F7C
F00BBC
F003FC
F001FC
F000FC
F0007C
ENDCHAR
STARTCHAR O
ENCODING 79
SWIDTH 600 0
DWIDTH 14 0
BBX 12 17 1 0
BITMAP
01BF80
0BFFF0
1F41B8
3D003D
7C002E
78001E
78001F
B8001F
B8001F
B8001F
B8001F
78001F
7C002E
3D003D
1F40BC
0BFFF4
01BF80
ENDCHAR
STARTCHAR P
ENCODING 80
SWIDTH 554 0
DWIDTH 13 0
BBX 11 17 2 0
BITMAP
FFFE00
FFFFC0
F007E0
F001F0
F000F4
F000B4
F000F4
F001F0
F007E0
FFFFC0
FFE900
F00000
F00000
F00000
F00000
F00000
F00000
ENDCHAR
STARTCHAR Q
ENCODING 81
SWIDTH 600 0
DWIDTH 14 0
BBX 12 20 1 -3
BITMAP
01BE80
0BFFF0
2F41B8
3D003D
7C002E
B8001E
B8001E
B8001F
B8001F
B8001F
B8001E
B8001E
7C002E
3D003D
2F41B8
0BFFF0
01BFF4
0000BD
00002E
000004
ENDCHAR
STARTCHAR R
ENCODING 82
SWIDTH 530 0
DWIDTH 13 0
BBX 11 17 2 0
BITMAP
FFF900
FFFF80
F007D0
F002E0
F002E0
F002E0
F002D0
F00BC0
FFFF40
FFFD00
F02E00
F01F00
F00F40
F007C0
F003D0
F002E0
F001F4
ENDCHAR
STARTCHAR S
ENCODING 83
SWIDTH 518 0
DWIDTH 12 0
BBX 11 17 1 0
BITMAP
06FE00
1FFFC0
3E02E0
7800F4
B800B4
7C0010
3E0000
1FE400
06FE40
006FD0
0002F0
5000F4
F400B4
B800F4
7D02F0
1FFFD0
06FE40
ENDCHAR
STARTCHAR T
ENCODING 84
SWIDTH 520 0
DWIDTH 13 0
BBX 12 17 0 0
BITMAP
7FFFFE
7FFFFE
002D00
002D00
002D00
002D00
002D00
002D00
002D00
002D00
002D00
002D00
002D00
002D00
002D00
002D00
002D00
ENDCHAR
STARTCHAR U
ENCODING 85
SWIDTH 561 0
DWIDTH 13 0
BBX 11 17 1 0
BITMAP
78003C
78003C
78003C
78003C
78003C
78003C
78003C
78003C
78003C
78003C
78003C
78003C
78007C
7C0078
3E01F4
1FFFE0
06FE40
ENDCHAR
STARTCHAR V
ENCODING 86
SWIDTH 560 0
DWIDTH 13 0
BBX 13 17 0 0
BITMAP
7C000B80
3D000B80
2E000F40
1E001F00
0F002E00
0B403D00
07807C00
03C0B800
03D0B400
02E0F000
01E1E000
00F2D000
00B7C000
007F8000
003F4000
002F0000
001E0000
ENDCHAR
STARTCHAR W
ENCODING 87
SWIDTH 761 0
DWIDTH 18 0
BBX 17 17 1 0
BITMAP
F002D00B80
F403E00B40
B407E00F00
7807F00F00
780BB41E00
3C0F741E00
3C0E382D00
2D1D3C3C00
1E2D2C3C00
1E2C1D7800
0F381E7800
0F740EB400
0BB40BB000
07F007F000
07E007E000
03E003E000
03D002D000
ENDCHAR
STARTCHAR X
ENCODING 88
SWIDTH 550 0
DWIDTH 13 0
BBX 12 17 1 0
BITMAP
F8007C
7C00F8
2E01F0
1F03E0
0B87C0
07CF40
02FF00
00FD00
00BC00
01FD00
02EF00
07CB80
0B87C0
1F02E0
3E01F0
7C00B8
F8007D
ENDCHAR
STARTCHAR Y
ENCODING 89
SWIDTH 524 0
DWIDTH 13 0
BBX 12 17 0 0
BITMAP
7C001F
3D003E
2E007C
0F40B8
0B80F0
03C1E0
02D3D0
01F780
00BF40
007F00
003D00
002D00
002D00
002D00
002D00
002D00
002D00
ENDCHAR
STARTCHAR Z
ENCODING 90
SWIDTH 522 0
DWIDTH 13 0
BBX 11 17 1 0
BITMAP
FFFFF4
BFFFF4
0002E0
0003D0
000B80
001F00
002D00
007C00
00F400
02E000
07C000
0B8000
1F0000
3D0000
780000
FFFFF4
FFFFF8
ENDCHAR
STARTCHAR bracketleft
ENCODING 91
SWIDTH 250 0
DWIDTH 6 0
BBX 5 24 1 -4
BITMAP
7F80
7E40
7800
7800
7800
7800
7800
7800
7800
7800
7800
7800
7800
7800
7800
7800
7800
7800
7800
7800
7800
7800
7E40
7F80
ENDCHAR
STARTCHAR backslash
ENCODING 92
SWIDTH 369 0
DWIDTH 9 0
BBX 9 18 0 -1
BITMAP
780000
3C0000
2D0000
1E0000
0F0000
0B4000
078000
03C000
02D000
01E000
00F000
00B400
007800
003C00
002D00
001E00
000F00
000B40
ENDCHAR
STARTCHAR bracketright
ENCODING 93
SWIDTH 250 0
DWIDTH 6 0
BBX 5 24 0 -4
BITMAP
BF40
AF40
0B40
0B40
0B40
0B40
0B40
0B40
0B40
0B40
0B40
0B40
0B40
0B40
0B40
0B40
0B40
0B40
0B40
0B40
0B40
0B40
AF40
BF40
ENDCHAR
STARTCHAR asciicircum
ENCODING 94
SWIDTH 371 0
DWIDTH 9 0
BBX 7 8 1 9
BITMAP
0740
0B80
0FC0
2ED0
3CE0
78B0
B478
F03C
ENDCHAR
STARTCHAR underscore
ENCODING 95
SWIDTH 404 0
DWIDTH 10 0
BBX 10 2 0 -2
BITMAP
BFFFD0
AAAA90
ENDCHAR
STARTCHAR grave
ENCODING 96
SWIDTH 309 0
DWIDTH 7 0
BBX 5 3 1 15
BITMAP
B800
2E00
0A40
ENDCHAR
STARTCHAR a
ENCODING 97
SWIDTH 479 0
DWIDTH 12 0
BBX 9 13 1 0
BITMAP
06F900
2FBF00
7C0B80
640780
000780
06FF80
2FAB80
7C0780
B80780
B40780
781FC0
3FFBC0
1BE3C0
ENDCHAR
STARTCHAR b
ENCODING 98
SWIDTH 493 0
DWIDTH 12 0
BBX 10 18 1 0
BITMAP
780000
780000
780000
780000
780000
79BE00
7FFF80
7D07D0
7802D0
7801E0
7801E0
7801E0
7801E0
7801E0
7802D0
7D07D0
7BFF80
75BE00
ENDCHAR
STARTCHAR c
ENCODING 99
SWIDTH 461 0
DWIDTH 11 0
BBX 9 13 1 0
BITMAP
06F900
2FFF40
7D0780
B803C0
B40180
F40000
F40000
F40000
B40040
B403C0
7D07C0
2FFF40
06F900
ENDCHAR
STARTCHAR d
ENCODING 100
SWIDTH 496 0
DWIDTH 12 0
BBX 10 18 1 0
BITMAP
0002D0
0002D0
0002D0
0002D0
0002D0
0BE6D0
2FFFD0
7D0BD0
B803D0
B402D0
F402D0
F402D0
F402D0
B402D0
B803D0
7D07D0
2FFFD0
0BE6D0
ENDCHAR
STARTCHAR e
ENCODING 101
SWIDTH 468 0
DWIDTH 11 0
BBX 10 13 1 0
BITMAP
06F900
1FFF40
3D0B80
B803C0
B402D0
BFFFD0
FAAA90
F40000
B40000
B80000
7D0280
2FEF80
06F900
ENDCHAR
STARTCHAR f
ENCODING 102
SWIDTH 316 0
DWIDTH 8 0
BBX 8 18 0 0
BITMAP
00BD
03FD
07C0
0780
0B80
7FF8
2FE4
0B80
0B80
0B80
0B80
0B80
0B80
0B80
0B80
0B80
0B80
0B80
ENDCHAR
STARTCHAR g
ENCODING 103
SWIDTH 492 0
DWIDTH 12 0
BBX 10 18 1 -5
BITMAP
0BE6D0
2FFFD0
7D07D0
B802D0
B402D0
F402D0
F402D0
F402D0
B402D0
B802D0
7D07D0
2FFFD0
0BE6D0
0002D0
0003C0
240B80
2FBF40
06F900
ENDCHAR
STARTCHAR h
ENCODING 104
SWIDTH 482 0
DWIDTH 12 0
BBX 9 18 1 0
BITMAP
780000
780000
780000
780000
780000
79BD00
7FFF40
7E0B80
7803C0
7803C0
7803C0
7803C0
7803C0
7803C0
7803C0
7803C0
7803C0
7803C0
ENDCHAR
STARTCHAR i
ENCODING 105
SWIDTH 229 0
DWIDTH 6 0
BBX 3 18 1 0
BITMAP
14
7C
78
00
00
78
78
78
78
78
78
78
78
78
78
78
78
78
ENDCHAR
STARTCHAR j
ENCODING 106
SWIDTH 223 0
DWIDTH 5 0
BBX 5 23 -1 -5
BITMAP
0100
0B80
0740
0000
0000
0780
0780
0780
0780
0780
0780
0780
0780
0780
0780
0780
0780
0780
0780
0780
0B80
7F40
7D00
ENDCHAR
STARTCHAR k
ENCODING 107
SWIDTH 450 0
DWIDTH 11 0
BBX 10 18 1 0
BITMAP
780000
780000
780000
780000
780000
780B80
781F00
783D00
78B400
79E000
7BD000
7FE000
7EF400
787C00
783D00
781F00
780B80
7803D0
ENDCHAR
STARTCHAR l
ENCODING 108
SWIDTH 229 0
DWIDTH 6 0
BBX 3 18 1 0
BITMAP
78
78
78
78
78
78
78
78
78
78
78
78
78
78
78
78
78
78
ENDCHAR
STARTCHAR m
ENCODING 109
SWIDTH 752 0
DWIDTH 18 0
BBX 16 13 1 0
BITMAP
79BD1BE0
7FFFBFF8
7D0BE07D
7803D02D
7803C02D
7803C02D
7803C02D
7803C02D
7803C02D
7803C02D
7803C02D
7803C02D
7803C02D
ENDCHAR
STARTCHAR n
ENCODING 110
SWIDTH 483 0
DWIDTH 12 0
BBX 9 13 1 0
BITMAP
79BD00
7BFF40
7E0B80
7803C0
7803C0
7803C0
7803C0
7803C0
7803C0
7803C0
7803C0
7803C0
7803C0
ENDCHAR
STARTCHAR o
ENCODING 111
SWIDTH 501 0
DWIDTH 12 0
BBX 10 13 1 0
BITMAP
06F900
1FFF40
3D07D0
B802E0
B401E0
F401F0
F400F0
F401F0
B401E0
B802E0
3D07D0
1FFF40
06F900
ENDCHAR
STARTCHAR p
ENCODING 112
SWIDTH 493 0
DWIDTH 12 0
BBX 10 18 1 -5
BITMAP
75FE00
7BFF80
7D07D0
7802D0
7801E0
7801E0
7801E0
7801E0
7801E0
7802D0
7D07D0
7FBF80
79FE00
780000
780000
780000
780000
780000
ENDCHAR
STARTCHAR q
ENCODING 113
SWIDTH 500 0
DWIDTH 12 0
BBX 10 18 1 -5
BITMAP
0BE6D0
2FFFD0
7D07D0
B802D0
B402D0
F402D0
F402D0
F402D0
B402D0
B802D0
7D07D0
2FBFD0
0BE6D0
0002D0
0002D0
0002D0
0002D0
0002D0
ENDCHAR
STARTCHAR r
ENCODING 114
SWIDTH 304 0
DWIDTH 7 0
BBX 6 13 1 0
BITMAP
79E0
7FE0
7E00
7800
7800
7800
7800
7800
7800
7800
7800
7800
7800
ENDCHAR
STARTCHAR s
ENCODING 115
SWIDTH 455 0
DWIDTH 11 0
BBX 9 13 1 0
BITMAP
0BF800
2FBF00
7C0F40
780640
7D0000
2F9000
07F900
007F00
000B80
B40780
B80B80
3FBF00
0BF800
ENDCHAR
STARTCHAR t
ENCODING 116
SWIDTH 295 0
DWIDTH 7 0
BBX 7 16 0 0
BITMAP
0B40
0B40
0B40
BFF4
6FA0
0B40
0B40
0B40
0B40
0B40
0B40
0B40
0B40
0B40
07F4
02F0
ENDCHAR
STARTCHAR u
ENCODING 117
SWIDTH 483 0
DWIDTH 12 0
BBX 9 13 1 0
BITMAP
7803C0
7803C0
7803C0
7803C0
7803C0
7803C0
7803C0
7803C0
7803C0
7803C0
7D0BC0
2FFFC0
0BE7C0
ENDCHAR
STARTCHAR v
ENCODING 118
SWIDTH 427 0
DWIDTH 10 0
BBX 10 13 0 0
BITMAP
7802E0
3C02D0
2D03C0
1E0780
0E0B40
0F0B00
0B4E00
079D00
03AD00
02FC00
01F800
00F400
00B000
ENDCHAR
STARTCHAR w
ENCODING 119
SWIDTH 649 0
DWIDTH 16 0
BBX 15 13 0 0
BITMAP
7807807C
3C07C078
2D0BD0B4
2D0FE0B0
1E1EE0F0
0E1DB1E0
0F2CB5D0
0B787AD0
07B43BC0
03F42F80
03F01F40
02E01F40
01D00F00
ENDCHAR
STARTCHAR x
ENCODING 120
SWIDTH 438 0
DWIDTH 11 0
BBX 9 13 1 0
BITMAP
F40F80
781F00
3D2D00
1E7C00
0FB400
07E000
03D000
07F000
0FB400
2E3C00
3C2E00
B81F00
F40B80
ENDCHAR
STARTCHAR y
ENCODING 121
SWIDTH 416 0
DWIDTH 10 0
BBX 10 18 0 -5
BITMAP
7802D0
3C03C0
3D0780
2E0B80
1E0B40
0F0F00
0B5E00
07AD00
03AC00
02FC00
02F800
01F400
00F000
00E000
01D000
03C000
3F8000
3E0000
ENDCHAR
STARTCHAR z
ENCODING 122
SWIDTH 438 0
DWIDTH 11 0
BBX 9 13 1 0
BITMAP
FFFF40
AAAF40
002E00
003D00
00B800
01F000
03D000
0B8000
0F0000
2E0000
7C0000
FEAA40
FFFF80
ENDCHAR
STARTCHAR braceleft
ENCODING 123
SWIDTH 306 0
DWIDTH 7 0
BBX 6 23 1 -4
BITMAP
00A0
02E0
0780
0F40
0F00
0F00
0F00
0F00
1F00
1E00
3D00
F800
FC00
2E00
1F00
0F00
0F00
0F00
0F00
0F00
0B80
02D0
00A0
ENDCHAR
STARTCHAR bar
ENCODING 124
SWIDTH 243 0
DWIDTH 6 0
BBX 2 20 2 -3
BITMAP
E0
E0
E0
E0
E0
E0
E0
E0
E0
E0
E0
E0
E0
E0
E0
E0
E0
E0
E0
E0
ENDCHAR
STARTCHAR braceright
ENCODING 125
SWIDTH 306 0
DWIDTH 7 0
BBX 7 23 0 -4
BITMAP
6000
7D00
1E00
0F00
0B40
0B40
0B40
0B40
0B40
0780
03D0
01F4
02F4
07C0
0B80
0B40
0B40
0B40
0B40
0B40
1F00
7D00
6400
ENDCHAR
STARTCHAR asciitilde
ENCODING 126
SWIDTH 589 0
DWIDTH 14 0
BBX 12 5 1 5
BITMAP
0B9009
2FF40E
3C7D2D
741FF8
7406E0
ENDCHAR
STARTCHAR uni00A0
ENCODING 160
SWIDTH 229 0
DWIDTH 6 0
BBX 1 1 0 0
BITMAP
00
ENDCHAR
STARTCHAR exclamdown
ENCODING 161
SWIDTH 231 0
DWIDTH 6 0
BBX 3 17 1 -4
BITMAP
78
7C
14
00
00
38
38
38
38
78
7C
7C
7C
7C
7C
7C
7C
ENDCHAR
STARTCHAR cent
ENCODING 162
SWIDTH 479 0
DWIDTH 12 0
BBX 10 19 1 -3
BITMAP
00A000
00F000
00F000
06F900
1FAF40
3D07C0
7803C0
B40180
B40000
B40000
B40000
B40000
7802D0
3D07C0
1FAF40
07F900
00F000
00F000
00A000
ENDCHAR
STARTCHAR sterling
ENCODING 163
SWIDTH 510 0
DWIDTH 12 0
BBX 11 17 1 0
BITMAP
01BE40
07FFD0
0F82E0
1F00F0
1E0050
1E0000
1E0000
1E0000
FFF800
BFF800
1F0000
1F0000
1F0000
1E0000
2E0000
BFFFF4
FFFFF4
ENDCHAR
STARTCHAR currency
ENCODING 164
SWIDTH 712 0
DWIDTH 17 0
BBX 15 15 1 0
BITMAP
386FE474
7EFFFEF8
2FE41FE0
1F4003E0
2D0001F0
3C0000B4
780000B8
78000078
780000B8
3C0000B4
2D0001F0
1F4003E0
2FE41FF4
BEFFFEF8
246FE420
ENDCHAR
STARTCHAR yen
ENCODING 165
SWIDTH 463 0
DWIDTH 11 0
BBX 11 17 0 0
BITMAP
7C00B8
3D01F4
2E02E0
1F03D0
0F87C0
07CB80
03DF40
02FE00
01FD00
2FFFE0
15B950
00B800
2FFFE0
15B950
00B800
00B800
00B800
ENDCHAR
STARTCHAR brokenbar
ENCODING 166
SWIDTH 239 0
DWIDTH 6 0
BBX 3 20 1 -3
BITMAP
7C
7C
7C
7C
7C
7C
7C
7C
7C
00
00
7C
7C
7C
7C
7C
7C
7C
7C
7C
ENDCHAR
STARTCHAR section
ENCODING 167
SWIDTH 537 0
DWIDTH 13 0
BBX 11 23 1 -6
BITMAP
06FE00
1FEFD0
3D02F0
7800F4
7800B4
7C0000
3F4000
1FF800
3EFF80
B81BE0
B401F4
B400B8
B800B8
3F80B4
1BFAE0
01BFC0
000BE0
0001F0
F400F0
B400F0
7D02E0
2FEFD0
06FE00
ENDCHAR
STARTCHAR dieresis
ENCODING 168
SWIDTH 417 0
DWIDTH 10 0
BBX 8 3 1 15
BITMAP
1004
B82E
B41D
ENDCHAR
STARTCHAR copyright
ENCODING 169
SWIDTH 785 0
DWIDTH 19 0
BBX 17 17 1 0
BITMAP
001BF90000
01FA6BD000
078001B400
1D0BF42C00
382EBD0E00
70780F0700
A0B00B0340
E0B0000280
D0B0000280
E0B0000280
A0B00B0340
70740F0700
382EAD0E00
1D0BE42C00
078001B400
01FA6BD000
001BF90000
ENDCHAR
STARTCHAR ordfeminine
ENCODING 170
SWIDTH 395 0
DWIDTH 10 0
BBX 7 9 1 8
BITMAP
0BD0
2EF4
3838
0038
1BF8
3D78
7838
3EF8
1FBC
ENDCHAR
STARTCHAR guillemotleft
ENCODING 171
SWIDTH 417 0
DWIDTH 10 0
BBX 8 9 1 2
BITMAP
074E
0E2C
2D78
78F0
B5E0
78F0
2D78
0E2C
074E
ENDCHAR
STARTCHAR logicalnot
ENCODING 172
SWIDTH 487 0
DWIDTH 12 0
BBX 9 5 1 4
BITMAP
BFFF80
7FFF80
000780
000780
000780
ENDCHAR
STARTCHAR uni00AD
ENCODING 173
SWIDTH 248 0
DWIDTH 6 0
BBX 6 2 0 6
BITMAP
7FD0
6A90
ENDCHAR
STARTCHAR registered
ENCODING 174
SWIDTH 786 0
DWIDTH 19 0
BBX 17 17 1 0
BITMAP
001BF90000
01FA6BD000
078001B400
1D00002C00
383FF80E00
7039AE0700
A0380B0340
E0381E0280
D03FFC0280
E03AAE0280
A0380B0340
70380B0700
38380B0E00
1D00002C00
078001B400
01FA6BD000
001BF90000
ENDCHAR
STARTCHAR macron
ENCODING 175
SWIDTH 414 0
DWIDTH 10 0
BBX 8 2 1 15
BITMAP
7FFD
6AA9
ENDCHAR
STARTCHAR degree
ENCODING 176
SWIDTH 373 0
DWIDTH 9 0
BBX 7 7 1 10
BITMAP
0B80
3EF0
7474
7034
7874
2FE0
0540
ENDCHAR
STARTCHAR plusminus
ENCODING 177
SWIDTH 469 0
DWIDTH 11 0
BBX 10 15 1 0
BITMAP
00A000
00E000
00E000
00E000
00E000
BFFFD0
AAFA90
00E000
00E000
00E000
00E000
009000
000000
6AAA80
7FFF80
ENDCHAR
STARTCHAR uni00B2
ENCODING 178
SWIDTH 329 0
DWIDTH 8 0
BBX 6 9 1 8
BITMAP
2F80
BAD0
E0E0
01E0
03C0
0B40
2D00
BAA0
FFF0
ENDCHAR
STARTCHAR uni00B3
ENCODING 179
SWIDTH 329 0
DWIDTH 8 0
BBX 6 9 1 8
BITMAP
6F80
FAE0
01E0
0F80
06D0
00E0
E0E0
BAD0
2F40
ENDCHAR
STARTCHAR acute
ENCODING 180
SWIDTH 313 0
DWIDTH 8 0
BBX 5 3 1 15
BITMAP
0B80
2E00
6800
ENDCHAR
STARTCHAR mu
ENCODING 181
SWIDTH 498 0
DWIDTH 12 0
BBX 10 18 1 -5
BITMAP
7803D0
7803D0
7803D0
7803D0
7803D0
7803D0
7803D0
7803D0
7C03D0
7C03D0
7D07D0
7FFFD0
7EF6D0
780000
780000
780000
780000
780000
ENDCHAR
STARTCHAR paragraph
ENCODING 182
SWIDTH 434 0
DWIDTH 10 0
BBX 8 17 1 0
BITMAP
0BFE
2FFE
BFFE
FFFE
FFFE
FFFE
FFFE
FFFE
7FFE
2FFE
06FE
002E
002E
002E
002E
002E
002E
ENDCHAR
STARTCHAR periodcentered
ENCODING 183
SWIDTH 243 0
DWIDTH 6 0
BBX 3 3 1 7
BITMAP
38
7C
24
ENDCHAR
STARTCHAR cedilla
ENCODING 184
SWIDTH 229 0
DWIDTH 6 0
BBX 4 5 1 -5
BITMAP
70
78
0D
2D
B8
ENDCHAR
STARTCHAR uni00B9
ENCODING 185
SWIDTH 329 0
DWIDTH 8 0
BBX 5 9 1 8
BITMAP
1B40
BF40
5B40
0B40
0B40
0B40
0B40
0B40
0B40
ENDCHAR
STARTCHAR ordmasculine
ENCODING 186
SWIDTH 402 0
DWIDTH 10 0
BBX 8 9 1 8
BITMAP
0BE0
3EF8
783C
B42D
B42D
B42D
783C
3EF8
0BE0
ENDCHAR
STARTCHAR guillemotright
ENCODING 187
SWIDTH 417 0
DWIDTH 10 0
BBX 8 9 1 2
BITMAP
B0E0
3874
1D3C
0F1E
078F
0F1E
1D3C
3874
B0E0
ENDCHAR
STARTCHAR onequarter
ENCODING 188
SWIDTH 637 0
DWIDTH 15 0
BBX 14 17 1 0
BITMAP
1A000000
FE000000
4E002400
0E007400
0E00A000
0E01D000
0E028000
0E074000
0E0E0B40
001C1F40
00382F40
00707740
00E0E740
02C2C740
0343FFD0
0202AB90
00000740
ENDCHAR
STARTCHAR onehalf
ENCODING 189
SWIDTH 677 0
DWIDTH 16 0
BBX 14 17 1 0
BITMAP
1A000000
FE000000
4E002000
0E00B000
0E01D000
0E028000
0E074000
0E0A0000
0E1D2F80
0028BAD0
0074E0E0
00E001E0
01C003C0
03800F40
07002D00
0600BA90
0000FFF0
ENDCHAR
STARTCHAR threequarters
ENCODING 190
SWIDTH 673 0
DWIDTH 16 0
BBX 15 17 1 0
BITMAP
2F900000
7AF00000
00B00500
0BD00E00
05F02C00
00743400
6074B000
7AF0D000
2F92C3D0
000747D0
000A0FD0
001D2ED0
002876D0
0074A2D0
00E0FFF4
0080AAE0
000002D0
ENDCHAR
STARTCHAR questiondown
ENCODING 191
SWIDTH 421 0
DWIDTH 10 0
BBX 8 18 1 -5
BITMAP
02C0
03C0
0140
0000
0000
03C0
03C0
0780
0F40
2E00
7C00
B400
F000
F000
F00F
B82E
7FFD
1BE4
ENDCHAR
STARTCHAR Agrave
ENCODING 192
SWIDTH 576 0
DWIDTH 14 0
BBX 14 21 0 0
BITMAP
01F40000
007D0000
001E0000
00000000
000F0000
001F4000
002F8000
003BC000
0076D000
00B5E000
00F0F000
01E0B400
02D07800
03C07C00
07803D00
0BFFFE00
0FFFFF00
1E000F40
2E000B80
3D0007C0
7C0003D0
ENDCHAR
STARTCHAR Aacute
ENCODING 193
SWIDTH 576 0
DWIDTH 14 0
BBX 14 21 0 0
BITMAP
0001F400
0007D000
000B0000
00000000
000F0000
001F4000
002F8000
003BC000
0076D000
00B5E000
00F0F000
01E0B400
02D07800
03C07C00
07803D00
0BFFFE00
0FFFFF00
1E000F40
2E000B80
3D0007C0
7C0003D0
ENDCHAR
STARTCHAR Acircumflex
ENCODING 194
SWIDTH 576 0
DWIDTH 14 0
BBX 14 21 0 0
BITMAP
001F0000
007AD000
00A0E000
00000000
000F0000
001F4000
002F8000
003BC000
0076D000
00B5E000
00F0F000
01E0B400
02D07800
03C07C00
07803D00
0BFFFE00
0FFFFF00
1E000F40
2E000B80
3D0007C0
7C0003D0
ENDCHAR
STARTCHAR Atilde
ENCODING 195
SWIDTH 576 0
DWIDTH 14 0
BBX 14 21 0 0
BITMAP
00642400
01FFB400
01C6E000
00000000
000F0000
001F4000
002F8000
003BC000
0076D000
00B5E000
00F0F000
01E0B400
02D07800
03C07C00
07803D00
0BFFFE00
0FFFFF00
1E000F40
2E000B80
3D0007C0
7C0003D0
ENDCHAR
STARTCHAR Adieresis
ENCODING 196
SWIDTH 576 0
DWIDTH 14 0
BBX 14 21 0 0
BITMAP
00401000
02E0B800
02D07400
00000000
000F0000
001F4000
002F8000
003BC000
0076D000
00B5E000
00F0F000
01E0B400
02D07800
03C07C00
07803D00
0BFFFE00
0FFFFF00
1E000F40
2E000B80
3D0007C0
7C0003D0
ENDCHAR
STARTCHAR Aring
ENCODING 197
SWIDTH 576 0
DWIDTH 14 0
BBX 14 23 0 0
BITMAP
001F4000
0075D000
00A09000
0075D000
001F4000
00000000
000F0000
001F4000
002F8000
003BC000
0076D000
00B5E000
00F0F000
01E0B400
02D07800
03C07C00
07803D00
0BFFFE00
0FFFFF00
1E000F40
2E000B80
3D0007C0
7C0003D0
ENDCHAR
STARTCHAR AE
ENCODING 198
SWIDTH 812 0
DWIDTH 19 0
BBX 19 17 0 0
BITMAP
0000BFFFF4
0000FFAAA4
0002FE0000
0003EE0000
000B9E0000
001F1E0000
002E1E0000
007C1FFFE0
00B81FAA90
01F01E0000
02E01F0000
07FFFF0000
0BFFFF0000
1F401F0000
2E000F0000
7D000FAAA8
B8000FFFFC
ENDCHAR
STARTCHAR Ccedilla
ENCODING 199
SWIDTH 566 0
DWIDTH 14 0
BBX 12 22 1 -5
BITMAP
01BF80
0BFFF0
1F40B8
3D003C
7C002D
780019
B80000
B80000
B80000
B80000
B80000
780019
7C002D
3D003C
1F40B8
0BFFF0
01BF80
003800
002D00
000B00
001F00
003900
ENDCHAR
STARTCHAR Egrave
ENCODING 200
SWIDTH 496 0
DWIDTH 12 0
BBX 9 21 2 0
BITMAP
2E0000
0B8000
029000
000000
FFFFC0
FFFF80
F00000
F00000
F00000
F00000
F00000
FFFF00
FFFF00
F00000
F00000
F00000
F00000
F00000
F00000
FFFFC0
FFFFC0
ENDCHAR
STARTCHAR Eacute
ENCODING 201
SWIDTH 496 0
DWIDTH 12 0
BBX 9 21 2 0
BITMAP
003D00
00F400
01D000
000000
FFFFC0
FFFF80
F00000
F00000
F00000
F00000
F00000
FFFF00
FFFF00
F00000
F00000
F00000
F00000
F00000
F00000
FFFFC0
FFFFC0
ENDCHAR
STARTCHAR Ecircumflex
ENCODING 202
SWIDTH 496 0
DWIDTH 12 0
BBX 9 21 2 0
BITMAP
02D000
0BB400
1D2800
000000
FFFFC0
FFFF80
F00000
F00000
F00000
F00000
F00000
FFFF00
FFFF00
F00000
F00000
F00000
F00000
F00000
F00000
FFFFC0
FFFFC0
ENDCHAR
STARTCHAR Edieresis
ENCODING 203
SWIDTH 496 0
DWIDTH 12 0
BBX 9 21 2 0
BITMAP
140500
7C1F00
781E00
000000
FFFFC0
FFFF80
F00000
F00000
F00000
F00000
F00000
FFFF00
FFFF00
F00000
F00000
F00000
F00000
F00000
F00000
FFFFC0
FFFFC0
ENDCHAR
STARTCHAR Igrave
ENCODING 204
SWIDTH 250 0
DWIDTH 6 0
BBX 5 21 -1 0
BITMAP
7D00
1F40
0780
0000
03C0
03C0
03C0
03C0
03C0
03C0
03C0
03C0
03C0
03C0
03C0
03C0
03C0
03C0
03C0
03C0
03C0
ENDCHAR
STARTCHAR Iacute
ENCODING 205
SWIDTH 250 0
DWIDTH 6 0
BBX 5 21 2 0
BITMAP
1F40
7D00
B400
0000
F000
F000
F000
F000
F000
F000
F000
F000
F000
F000
F000
F000
F000
F000
F000
F000
F000
ENDCHAR
STARTCHAR Icircumflex
ENCODING 206
SWIDTH 250 0
DWIDTH 6 0
BBX 6 21 0 0
BITMAP
1F40
7AD0
B0E0
0000
0F00
0F00
0F00
0F00
0F00
0F00
0F00
0F00
0F00
0F00
0F00
0F00
0F00
0F00
0F00
0F00
0F00
ENDCHAR
STARTCHAR Idieresis
ENCODING 207
SWIDTH 250 0
DWIDTH 6 0
BBX 8 21 -1 0
BITMAP
1004
B82E
741E
0000
03C0
03C0
03C0
03C0
03C0
03C0
03C0
03C0
03C0
03C0
03C0
03C0
03C0
03C0
03C0
03C0
03C0
ENDCHAR
STARTCHAR Eth
ENCODING 208
SWIDTH 585 0
DWIDTH 14 0
BBX 13 17 0 0
BITMAP
0BFF9000
0BFFF400
0B407D00
0B401F00
0B400F40
0B400B40
0B400B80
BFF80B80
AFE40B80
0B400B80
0B400B80
0B400B40
0B400F40
0B401F00
0B407D00
0BFFF400
0BFF9000
ENDCHAR
STARTCHAR Ntilde
ENCODING 209
SWIDTH 619 0
DWIDTH 15 0
BBX 11 21 2 0
BITMAP
028180
0BFB80
0D2E00
000000
F4003C
F8003C
FD003C
FE003C
FB403C
F7C03C
F2D03C
F0F03C
F0B43C
F03C3C
F02D3C
F00F7C
F00BBC
F003FC
F001FC
F000FC
F0007C
ENDCHAR
STARTCHAR Ograve
ENCODING 210
SWIDTH 600 0
DWIDTH 14 0
BBX 12 21 1 0
BITMAP
02E000
00B800
002900
000000
01BF80
0BFFF0
1F41B8
3D003D
7C002E
78001E
78001F
B8001F
B8001F
B8001F
B8001F
78001F
7C002E
3D003D
1F40BC
0BFFF4
01BF80
ENDCHAR
STARTCHAR Oacute
ENCODING 211
SWIDTH 600 0
DWIDTH 14 0
BBX 12 21 1 0
BITMAP
0007D0
000F40
001D00
000000
01BF80
0BFFF0
1F41B8
3D003D
7C002E
78001E
78001F
B8001F
B8001F
B8001F
B8001F
78001F
7C002E
3D003D
1F40BC
0BFFF4
01BF80
ENDCHAR
STARTCHAR Ocircumflex
ENCODING 212
SWIDTH 600 0
DWIDTH 14 0
BBX 12 21 1 0
BITMAP
002D00
00BB40
01D280
000000
01BF80
0BFFF0
1F41B8
3D003D
7C002E
78001E
78001F
B8001F
B8001F
B8001F
B8001F
78001F
7C002E
3D003D
1F40BC
0BFFF4
01BF80
ENDCHAR
STARTCHAR Otilde
ENCODING 213
SWIDTH 600 0
DWIDTH 14 0
BBX 12 21 1 0
BITMAP
0090A0
03FEE0
074B80
000000
01BF80
0BFFF0
1F41B8
3D003D
7C002E
78001E
78001F
B8001F
B8001F
B8001F
B8001F
78001F
7C002E
3D003D
1F40BC
0BFFF4
01BF80
ENDCHAR
STARTCHAR Odieresis
ENCODING 214
SWIDTH 600 0
DWIDTH 14 0
BBX 12 21 1 0
BITMAP
014050
07C1F0
0781E0
000000
01BF80
0BFFF0
1F41B8
3D003D
7C002E
78001E
78001F
B8001F
B8001F
B8001F
B8001F
78001F
7C002E
3D003D
1F40BC
0BFFF4
01BF80
ENDCHAR
STARTCHAR multiply
ENCODING 215
SWIDTH 470 0
DWIDTH 11 0
BBX 9 11 1 2
BITMAP
200240
B807C0
3D1F40
1F7D00
0BF800
03F000
07F800
1F7D00
3D1F40
B807C0
200240
ENDCHAR
STARTCHAR Oslash
ENCODING 216
SWIDTH 600 0
DWIDTH 14 0
BBX 12 19 1 -1
BITMAP
000005
01BE4A
07FFFD
1F41B8
2E007D
3C00FE
7802DE
B8035F
B80B0F
B80D0F
B82C0F
B8741F
78A01E
3DD02E
2F803D
1F81B8
0FFFE0
1DBF40
280000
ENDCHAR
STARTCHAR Ugrave
ENCODING 217
SWIDTH 561 0
DWIDTH 13 0
BBX 11 21 1 0
BITMAP
07D000
01F000
007800
000000
78003C
78003C
78003C
78003C
78003C
78003C
78003C
78003C
78003C
78003C
78003C
78003C
78007C
7C0078
3E01F4
1FFFE0
06FE40
ENDCHAR
STARTCHAR Uacute
ENCODING 218
SWIDTH 561 0
DWIDTH 13 0
BBX 11 21 1 0
BITMAP
000B80
002E00
002800
000000
78003C
78003C
78003C
78003C
78003C
78003C
78003C
78003C
78003C
78003C
78003C
78003C
78007C
7C0078
3E01F4
1FFFE0
06FE40
ENDCHAR
STARTCHAR Ucircumflex
ENCODING 219
SWIDTH 561 0
DWIDTH 13 0
BBX 11 21 1 0
BITMAP
007800
01EE00
028740
000000
78003C
78003C
78003C
78003C
78003C
78003C
78003C
78003C
78003C
78003C
78003C
78003C
78007C
7C0078
3E01F4
1FFFE0
06FE40
ENDCHAR
STARTCHAR Udieresis
ENCODING 220
SWIDTH 561 0
DWIDTH 13 0
BBX 11 21 1 0
BITMAP
050140
0F43D0
0B42D0
000000
78003C
78003C
78003C
78003C
78003C
78003C
78003C
78003C
78003C
78003C
78003C
78003C
78007C
7C0078
3E01F4
1FFFE0
06FE40
ENDCHAR
STARTCHAR Yacute
ENCODING 221
SWIDTH 524 0
DWIDTH 13 0
BBX 12 21 0 0
BITMAP
0003D0
000F40
001D00
000000
7C001F
3D003E
2E007C
0F40B8
0B80F0
03C1E0
02D3D0
01F780
00BF40
007F00
003D00
002D00
002D00
002D00
002D00
002D00
002D00
ENDCHAR
STARTCHAR Thorn
ENCODING 222
SWIDTH 515 0
DWIDTH 12 0
BBX 11 17 1 0
BITMAP
7C0000
7C0000
7C0000
7FFE00
7EAFC0
7C02E0
7C01F0
7C00F4
7C00B4
7C00F4
7C01F0
7C07E0
7FFF80
7EA900
7C0000
7C0000
7C0000
ENDCHAR
STARTCHAR germandbls
ENCODING 223
SWIDTH 521 0
DWIDTH 13 0
BBX 11 18 1 0
BITMAP
07F800
1FFE00
3D0F00
780B40
780B40
780F00
781E00
782D00
783C00
782D00
781F40
7807D0
7801F0
7800B4
7800B4
7840F4
78FBE0
78AF80
ENDCHAR
STARTCHAR agrave
ENCODING 224
SWIDTH 479 0
DWIDTH 12 0
BBX 9 18 1 0
BITMAP
1F4000
07D000
01E000
000000
000000
06F900
2FBF00
7C0B80
640780
000780
06FF80
2FAB80
7C0780
B80780
B40780
781FC0
3FFBC0
1BE3C0
ENDCHAR
STARTCHAR aacute
ENCODING 225
SWIDTH 479 0
DWIDTH 12 0
BBX 9 18 1 0
BITMAP
001F40
007D00
00B000
000000
000000
06F900
2FBF00
7C0B80
640780
000780
06FF80
2FAB80
7C0780
B80780
B40780
781FC0
3FFBC0
1BE3C0
ENDCHAR
STARTCHAR acircumflex
ENCODING 226
SWIDTH 479 0
DWIDTH 12 0
BBX 9 18 1 0
BITMAP
01F400
07AD00
0A0E00
000000
000000
06F900
2FBF00
7C0B80
640780
000780
06FF80
2FAB80
7C0780
B80780
B40780
781FC0
3FFBC0
1BE3C0
ENDCHAR
STARTCHAR atilde
ENCODING 227
SWIDTH 479 0
DWIDTH 12 0
BBX 9 18 1 0
BITMAP
064240
1FFB40
1C6E00
000000
000000
06F900
2FBF00
7C0B80
640780
000780
06FF80
2FAB80
7C0780
B80780
B40780
781FC0
3FFBC0
1BE3C0
ENDCHAR
STARTCHAR adieresis
ENCODING 228
SWIDTH 479 0
DWIDTH 12 0
BBX 9 18 1 0
BITMAP
040100
2E0B80
2D0780
000000
000000
06F900
2FBF00
7C0B80
640780
000780
06FF80
2FAB80
7C0780
B80780
B40780
781FC0
3FFBC0
1BE3C0
ENDCHAR
STARTCHAR aring
ENCODING 229
SWIDTH 479 0
DWIDTH 12 0
BBX 9 19 1 0
BITMAP
01F400
075D00
0A0900
075D00
01F400
000000
06F900
2FBF00
7C0B80
640780
000780
06FF80
2FAB80
7C0780
B80780
B40780
781FC0
3FFBC0
1BE3C0
ENDCHAR
STARTCHAR ae
ENCODING 230
SWIDTH 728 0
DWIDTH 17 0
BBX 16 13 1 0
BITMAP
0BF82F90
3FBEBFF4
B80FE07C
640BC02D
000B802E
1BFFFFFE
7FAFEAA9
B80B8000
F00B8000
F00BD000
B41FE018
7FFDBEFD
1FE02FE4
ENDCHAR
STARTCHAR ccedilla
ENCODING 231
SWIDTH 461 0
DWIDTH 11 0
BBX 9 18 1 -5
BITMAP
06F900
2FFF40
7D0780
B803C0
B40180
F40000
F40000
F40000
B40040
B403C0
7D07C0
2FFF40
06F900
01D000
01B000
003800
00B400
01E000
ENDCHAR
STARTCHAR egrave
ENCODING 232
SWIDTH 468 0
DWIDTH 11 0
BBX 10 18 1 0
BITMAP
1F4000
07D000
01E000
000000
000000
06F900
1FFF40
3D0B80
B803C0
B402D0
BFFFD0
FAAA90
F40000
B40000
B80000
7D0280
2FEF80
06F900
ENDCHAR
STARTCHAR eacute
ENCODING 233
SWIDTH 468 0
DWIDTH 11 0
BBX 10 18 1 0
BITMAP
002F00
00B800
00A000
000000
000000
06F900
1FFF40
3D0B80
B803C0
B402D0
BFFFD0
FAAA90
F40000
B40000
B80000
7D0280
2FEF80
06F900
ENDCHAR
STARTCHAR ecircumflex
ENCODING 234
SWIDTH 468 0
DWIDTH 11 0
BBX 10 18 1 0
BITMAP
01E000
07B800
0A1D00
000000
000000
06F900
1FFF40
3D0B80
B803C0
B402D0
BFFFD0
FAAA90
F40000
B40000
B80000
7D0280
2FEF80
06F900
ENDCHAR
STARTCHAR edieresis
ENCODING 235
SWIDTH 468 0
DWIDTH 11 0
BBX 10 18 1 0
BITMAP
140500
3E0F80
2D0B40
000000
000000
06F900
1FFF40
3D0B80
B803C0
B402D0
BFFFD0
FAAA90
F40000
B40000
B80000
7D0280
2FEF80
06F900
ENDCHAR
STARTCHAR igrave
ENCODING 236
SWIDTH 234 0
DWIDTH 6 0
BBX 5 18 -1 0
BITMAP
7D00
1F40
0780
0000
0000
0780
0780
0780
0780
0780
0780
0780
0780
0780
0780
0780
0780
0780
ENDCHAR
STARTCHAR iacute
ENCODING 237
SWIDTH 234 0
DWIDTH 6 0
BBX 5 18 1 0
BITMAP
0BC0
1E00
2800
0000
0000
7800
7800
7800
7800
7800
7800
7800
7800
7800
7800
7800
7800
7800
ENDCHAR
STARTCHAR icircumflex
ENCODING 238
SWIDTH 234 0
DWIDTH 6 0
BBX 6 18 0 0
BITMAP
1F00
7BC0
A1D0
0000
0000
1E00
1E00
1E00
1E00
1E00
1E00
1E00
1E00
1E00
1E00
1E00
1E00
1E00
ENDCHAR
STARTCHAR idieresis
ENCODING 239
SWIDTH 234 0
DWIDTH 6 0
BBX 8 18 -1 0
BITMAP
5004
F83E
B42D
0000
0000
0780
0780
0780
0780
0780
0780
0780
0780
0780
0780
0780
0780
0780
ENDCHAR
STARTCHAR eth
ENCODING 240
SWIDTH 513 0
DWIDTH 12 0
BBX 10 18 1 0
BITMAP
0A0000
1FD280
02FF40
00BE00
02EF40
024B80
0003C0
06FAD0
1FEFE0
3E02E0
7C01E0
B801E0
B401E0
B801E0
7C02D0
3E07C0
1FEF40
06F900
ENDCHAR
STARTCHAR ntilde
ENCODING 241
SWIDTH 483 0
DWIDTH 12 0
BBX 9 18 1 0
BITMAP
064240
1FEB00
287D00
000000
000000
79BD00
7BFF40
7E0B80
7803C0
7803C0
7803C0
7803C0
7803C0
7803C0
7803C0
7803C0
7803C0
7803C0
ENDCHAR
STARTCHAR ograve
ENCODING 242
SWIDTH 501 0
DWIDTH 12 0
BBX 10 18 1 0
BITMAP
1F4000
07D000
01E000
000000
000000
06F900
1FFF40
3D07D0
B802E0
B401E0
F401F0
F400F0
F401F0
B401E0
B802E0
3D07D0
1FFF40
06F900
ENDCHAR
STARTCHAR oacute
ENCODING 243
SWIDTH 501 0
DWIDTH 12 0
BBX 10 18 1 0
BITMAP
001F40
007C00
00A000
000000
000000
06F900
1FFF40
3D07D0
B802E0
B401E0
F401F0
F400F0
F401F0
B401E0
B802E0
3D07D0
1FFF40
06F900
ENDCHAR
STARTCHAR ocircumflex
ENCODING 244
SWIDTH 501 0
DWIDTH 12 0
BBX 10 18 1 0
BITMAP
01F000
07AC00
0A0E00
000000
000000
06F900
1FFF40
3D07D0
B802E0
B401E0
F401F0
F400F0
F401F0
B401E0
B802E0
3D07D0
1FFF40
06F900
ENDCHAR
STARTCHAR otilde
ENCODING 245
SWIDTH 501 0
DWIDTH 12 0
BBX 10 18 1 0
BITMAP
064240
1FFB40
2C6D00
000000
000000
06F900
1FFF40
3D07D0
B802E0
B401E0
F401F0
F400F0
F401F0
B401E0
B802E0
3D07D0
1FFF40
06F900
ENDCHAR
STARTCHAR odieresis
ENCODING 246
SWIDTH 501 0
DWIDTH 12 0
BBX 10 18 1 0
BITMAP
040100
2E0B80
2D0B40
000000
000000
06F900
1FFF40
3D07D0
B802E0
B401E0
F401F0
F400F0
F401F0
B401E0
B802E0
3D07D0
1FFF40
06F900
ENDCHAR
STARTCHAR divide
ENCODING 247
SWIDTH 500 0
DWIDTH 12 0
BBX 10 12 1 2
BITMAP
00E000
01F000
005000
000000
000000
FFFFE0
FFFFE0
000000
000000
005000
01F000
01F000
ENDCHAR
STARTCHAR oslash
ENCODING 248
SWIDTH 498 0
DWIDTH 12 0
BBX 10 17 1 -2
BITMAP
000040
000280
06FB40
1FFF40
3D0FC0
781ED0
B429E0
B435E0
F4A1F0
B4D1F0
B5C1E0
7A82D0
3F07C0
1FFF40
0EF900
2C0000
140000
ENDCHAR
STARTCHAR ugrave
ENCODING 249
SWIDTH 483 0
DWIDTH 12 0
BBX 9 18 1 0
BITMAP
1F4000
07D000
01E000
000000
000000
7803C0
7803C0
7803C0
7803C0
7803C0
7803C0
7803C0
7803C0
7803C0
7803C0
7D0BC0
2FFFC0
0BE7C0
ENDCHAR
STARTCHAR uacute
ENCODING 250
SWIDTH 483 0
DWIDTH 12 0
BBX 9 18 1 0
BITMAP
002F00
00B800
00A000
000000
000000
7803C0
7803C0
7803C0
7803C0
7803C0
7803C0
7803C0
7803C0
7803C0
7803C0
7D0BC0
2FFFC0
0BE7C0
ENDCHAR
STARTCHAR ucircumflex
ENCODING 251
SWIDTH 483 0
DWIDTH 12 0
BBX 9 18 1 0
BITMAP
01E000
07B800
0A1D00
000000
000000
7803C0
7803C0
7803C0
7803C0
7803C0
7803C0
7803C0
7803C0
7803C0
7803C0
7D0BC0
2FFFC0
0BE7C0
ENDCHAR
STARTCHAR udieresis
ENCODING 252
SWIDTH 483 0
DWIDTH 12 0
BBX 9 18 1 0
BITMAP
140500
3E0F80
2D0B40
000000
000000
7803C0
7803C0
7803C0
7803C0
7803C0
7803C0
7803C0
7803C0
7803C0
7803C0
7D0BC0
2FFFC0
0BE7C0
ENDCHAR
STARTCHAR yacute
ENCODING 253
SWIDTH 416 0
DWIDTH 10 0
BBX 10 23 0 -5
BITMAP
001F40
003D00
00B400
000000
000000
7802D0
3C03C0
3D0780
2E0B80
1E0B40
0F0F00
0B5E00
07AD00
03AC00
02FC00
02F800
01F400
00F000
00E000
01D000
03C000
3F8000
3E0000
ENDCHAR
STARTCHAR thorn
ENCODING 254
SWIDTH 508 0
DWIDTH 12 0
BBX 10 23 1 -5
BITMAP
780000
780000
780000
780000
780000
79BD00
7FFF80
7D07C0
7802D0
7801E0
7801E0
7801E0
7801E0
7801E0
7802D0
7D07C0
7FFF40
79BD00
780000
780000
780000
780000
780000
ENDCHAR
STARTCHAR ydieresis
ENCODING 255
SWIDTH 416 0
DWIDTH 10 0
BBX 10 23 0 -5
BITMAP
050140
1F07C0
1E0780
000000
000000
7802D0
3C03C0
3D0780
2E0B80
1E0B40
0F0F00
0B5E00
07AD00
03AC00
02FC00
02F800
01F400
00F000
00E000
01D000
03C000
3F8000
3E0000
ENDCHAR
STARTCHAR Amacron
ENCODING 256
SWIDTH 576 0
DWIDTH 14 0
BBX 14 21 0 0
BITMAP
01AAA400
01FFF400
00000000
00000000
000F0000
001F4000
002F8000
003BC000
0076D000
00B5E000
00F0F000
01E0B400
02D07800
03C07C00
07803D00
0BFFFE00
0FFFFF00
1E000F40
2E000B80
3D0007C0
7C0003D0
ENDCHAR
STARTCHAR amacron
ENCODING 257
SWIDTH 479 0
DWIDTH 12 0
BBX 9 17 1 0
BITMAP
1AAA40
1FFF40
000000
000000
06F900
2FBF00
7C0B80
640780
000780
06FF80
2FAB80
7C0780
B80780
B40780
781FC0
3FFBC0
1BE3C0
ENDCHAR
STARTCHAR Abreve
ENCODING 258
SWIDTH 576 0
DWIDTH 14 0
BBX 14 23 0 0
BITMAP
01401400
01D07400
00F6F000
002F8000
00000000
00000000
000F0000
001F4000
002F8000
003BC000
0076D000
00B5E000
00F0F000
01E0B400
02D07800
03C07C00
07803D00
0BFFFE00
0FFFFF00
1E000F40
2E000B80
3D0007C0
7C0003D0
ENDCHAR
STARTCHAR abreve
ENCODING 259
SWIDTH 479 0
DWIDTH 12 0
BBX 9 19 1 0
BITMAP
140140
1D0740
0F6F00
02F800
000000
000000
06F900
2FBF00
7C0B80
640780
000780
06FF80
2FAB80
7C0780
B80780
B40780
781FC0
3FFBC0
1BE3C0
ENDCHAR
STARTCHAR Aogonek
ENCODING 260
SWIDTH 576 0
DWIDTH 14 0
BBX 14 22 0 -5
BITMAP
000F0000
001F4000
002F8000
003BC000
0076D000
00B5E000
00F0F000
01E0B400
02D07800
03C07C00
07803D00
0BFFFE00
0FFFFF00
1E000F40
2E000B80
3D0007C0
7C0003D0
00000740
00001E00
00001D00
00001F80
00000B80
ENDCHAR
STARTCHAR aogonek
ENCODING 261
SWIDTH 479 0
DWIDTH 12 0
BBX 9 18 1 -5
BITMAP
06F900
2FBF00
7C0B80
640780
000780
06FF80
2FAB80
7C0780
B80780
B40780
781FC0
3FFFC0
1BE3C0
000B40
001E00
002D00
001E80
000B80
ENDCHAR
STARTCHAR Cacute
ENCODING 262
SWIDTH 566 0
DWIDTH 14 0
BBX 12 21 1 0
BITMAP
0007D0
001F00
002C00
000000
01BF80
0BFFF0
1F40B8
3D003C
7C002D
780019
B80000
B80000
B80000
B80000
B80000
780019
7C002D
3D003C
1F40B8
0BFFF0
01BF80
ENDCHAR
STARTCHAR cacute
ENCODING 263
SWIDTH 461 0
DWIDTH 11 0
BBX 9 18 1 0
BITMAP
003E00
00B800
01E000
000000
000000
06F900
2FFF40
7D0780
B803C0
B40180
F40000
F40000
F40000
B40040
B403C0
7D07C0
2FFF40
06F900
ENDCHAR
STARTCHAR Ccircumflex
ENCODING 264
SWIDTH 566 0
DWIDTH 14 0
BBX 12 21 1 0
BITMAP
007C00
01EB00
028380
000000
01BF80
0BFFF0
1F40B8
3D003C
7C002D
780019
B80000
B80000
B80000
B80000
B80000
780019
7C002D
3D003C
1F40B8
0BFFF0
01BF80
ENDCHAR
STARTCHAR ccircumflex
ENCODING 265
SWIDTH 461 0
DWIDTH 11 0
BBX 9 18 1 0
BITMAP
02E000
0BB800
1D2900
000000
000000
06F900
2FFF40
7D0780
B803C0
B40180
F40000
F40000
F40000
B40040
B403C0
7D07C0
2FFF40
06F900
ENDCHAR
STARTCHAR Cdotaccent
ENCODING 266
SWIDTH 566 0
DWIDTH 14 0
BBX 12 21 1 0
BITMAP
001400
007C00
003C00
000000
01BF80
0BFFF0
1F40B8
3D003C
7C002D
780019
B80000
B80000
B80000
B80000
B80000
780019
7C002D
3D003C
1F40B8
0BFFF0
01BF80
ENDCHAR
STARTCHAR cdotaccent
ENCODING 267
SWIDTH 461 0
DWIDTH 11 0
BBX 9 18 1 0
BITMAP
004000
02E000
02D000
000000
000000
06F900
2FFF40
7D0780
B803C0
B40180
F40000
F40000
F40000
B40040
B403C0
7D07C0
2FFF40
06F900
ENDCHAR
STARTCHAR Ccaron
ENCODING 268
SWIDTH 566 0
DWIDTH 14 0
BBX 12 21 1 0
BITMAP
02C380
00EA00
007C00
000000
01BF80
0BFFF0
1F40B8
3D003C
7C002D
780019
B80000
B80000
B80000
B80000
B80000
780019
7C002D
3D003C
1F40B8
0BFFF0
01BF80
ENDCHAR
STARTCHAR ccaron
ENCODING 269
SWIDTH 461 0
DWIDTH 11 0
BBX 9 18 1 0
BITMAP
1D2D00
07B400
02D000
000000
000000
06F900
2FFF40
7D0780
B803C0
B40180
F40000
F40000
F40000
B40040
B403C0
7D07C0
2FFF40
06F900
ENDCHAR
STARTCHAR Dcaron
ENCODING 270
SWIDTH 570 0
DWIDTH 14 0
BBX 11 21 2 0
BITMAP
2D2C00
0BB400
02D000
000000
FFE800
FFFF40
F00BC0
F002E0
F001F0
F000F0
F000F0
F000F4
F000F4
F000F4
F000F0
F000F0
F001F0
F002E0
F00BC0
FFFF40
FFE400
ENDCHAR
STARTCHAR dcaron
ENCODING 271
SWIDTH 569 0
DWIDTH 14 0
BBX 13 18 1 0
BITMAP
0002D740
0002DB40
0002DB40
0002DF00
0002D900
0BE6D000
2FFFD000
7D0BD000
B803D000
B402D000
F402D000
F402D000
F402D000
B402D000
B803D000
7D07D000
2FFFD000
0BE6D000
ENDCHAR
STARTCHAR Dcroat
ENCODING 272
SWIDTH 585 0
DWIDTH 14 0
BBX 13 17 0 0
BITMAP
0BFF9000
0BFFF400
0B407D00
0B401F00
0B400F40
0B400B40
0B400B80
BFF80B80
AFE40B80
0B400B80
0B400B80
0B400B40
0B400F40
0B401F00
0B407D00
0BFFF400
0BFF9000
ENDCHAR
STARTCHAR dcroat
ENCODING 273
SWIDTH 529 0
DWIDTH 13 0
BBX 12 18 1 0
BITMAP
0002D0
0002D0
007FFD
002BE8
0002D0
07E6D0
1FFFD0
3D0BD0
7803D0
B402D0
F402D0
F402D0
B402D0
B402D0
7803D0
3D0BD0
1FFFD0
07F6D0
ENDCHAR
STARTCHAR Emacron
ENCODING 274
SWIDTH 496 0
DWIDTH 12 0
BBX 9 21 2 0
BITMAP
2AAA00
3FFE00
000000
000000
FFFFC0
FFFF80
F00000
F00000
F00000
F00000
F00000
FFFF00
FFFF00
F00000
F00000
F00000
F00000
F00000
F00000
FFFFC0
FFFFC0
ENDCHAR
STARTCHAR emacron
ENCODING 275
SWIDTH 468 0
DWIDTH 11 0
BBX 10 17 1 0
BITMAP
1AAA40
2FFF40
000000
000000
06F900
1FFF40
3D0B80
B803C0
B402D0
BFFFD0
FAAA90
F40000
B40000
B80000
7D0280
2FEF80
06F900
ENDCHAR
STARTCHAR Ebreve
ENCODING 276
SWIDTH 496 0
DWIDTH 12 0
BBX 9 23 2 0
BITMAP
140500
380E00
2E6D00
0BE400
000000
000000
FFFFC0
FFFF80
F00000
F00000
F00000
F00000
F00000
FFFF00
FFFF00
F00000
F00000
F00000
F00000
F00000
F00000
FFFFC0
FFFFC0
ENDCHAR
STARTCHAR ebreve
ENCODING 277
SWIDTH 468 0
DWIDTH 11 0
BBX 10 19 1 0
BITMAP
140500
2D0B00
0F6E00
06F800
000000
000000
06F900
1FFF40
3D0B80
B803C0
B402D0
BFFFD0
FAAA90
F40000
B40000
B80000
7D0280
2FEF80
06F900
ENDCHAR
STARTCHAR Edotaccent
ENCODING 278
SWIDTH 496 0
DWIDTH 12 0
BBX 9 21 2 0
BITMAP
014000
03E000
02D000
000000
FFFFC0
FFFF80
F00000
F00000
F00000
F00000
F00000
FFFF00
FFFF00
F00000
F00000
F00000
F00000
F00000
F00000
FFFFC0
FFFFC0
ENDCHAR
STARTCHAR edotaccent
ENCODING 279
SWIDTH 468 0
DWIDTH 11 0
BBX 10 18 1 0
BITMAP
005000
01F000
01E000
000000
000000
06F900
1FFF40
3D0B80
B803C0
B402D0
BFFFD0
FAAA90
F40000
B40000
B80000
7D0280
2FEF80
06F900
ENDCHAR
STARTCHAR Eogonek
ENCODING 280
SWIDTH 496 0
DWIDTH 12 0
BBX 9 22 2 -5
BITMAP
FFFFC0
FFFF80
F00000
F00000
F00000
F00000
F00000
FFFF00
FFFF00
F00000
F00000
F00000
F00000
F00000
F00000
FFFFC0
FFFFC0
001E00
003C00
003800
003E40
001F40
ENDCHAR
STARTCHAR eogonek
ENCODING 281
SWIDTH 468 0
DWIDTH 11 0
BBX 10 18 1 -5
BITMAP
06F900
1FFF40
3D0B80
B803C0
B402D0
BFFFD0
FAAA90
F40000
B40000
B80000
7D0280
2FEF80
06FD00
00B400
00E000
01E000
00F900
007D00
ENDCHAR
STARTCHAR Ecaron
ENCODING 282
SWIDTH 496 0
DWIDTH 12 0
BBX 9 21 2 0
BITMAP
1D2D00
0BB400
02D000
000000
FFFFC0
FFFF80
F00000
F00000
F00000
F00000
F00000
FFFF00
FFFF00
F00000
F00000
F00000
F00000
F00000
F00000
FFFFC0
FFFFC0
ENDCHAR
STARTCHAR ecaron
ENCODING 283
SWIDTH 468 0
DWIDTH 11 0
BBX 10 18 1 0
BITMAP
0E1E00
07B800
01E000
000000
000000
06F900
1FFF40
3D0B80
B803C0
B402D0
BFFFD0
FAAA90
F40000
B40000
B80000
7D0280
2FEF80
06F900
ENDCHAR
STARTCHAR Gcircumflex
ENCODING 284
SWIDTH 590 0
DWIDTH 14 0
BBX 12 21 1 0
BITMAP
007800
01EE00
028740
000000
01BF80
0BFFF0
2F40B8
3D003D
7C002D
780004
B80000
B80000
B80000
B80BFE
B80ABE
78002E
7C002E
3D002E
1F407E
0BFFF8
01BF90
ENDCHAR
STARTCHAR gcircumflex
ENCODING 285
SWIDTH 492 0
DWIDTH 12 0
BBX 10 23 1 -5
BITMAP
01E000
07B800
0A1D00
000000
000000
0BE6D0
2FFFD0
7D07D0
B802D0
B402D0
F402D0
F402D0
F402D0
B402D0
B802D0
7D07D0
2FFFD0
0BE6D0
0002D0
0003C0
240B80
2FBF40
06F900
ENDCHAR
STARTCHAR Gbreve
ENCODING 286
SWIDTH 590 0
DWIDTH 14 0
BBX 12 23 1 0
BITMAP
050140
0B42C0
03DB80
01BE00
000000
000000
01BF80
0BFFF0
2F40B8
3D003D
7C002D
780004
B80000
B80000
B80000
B80BFE
B80ABE
78002E
7C002E
3D002E
1F407E
0BFFF8
01BF90
ENDCHAR
STARTCHAR gbreve
ENCODING 287
SWIDTH 492 0
DWIDTH 12 0
BBX 10 24 1 -5
BITMAP
140500
2C0B00
1E6E00
06F800
000000
000000
0BE6D0
2FFFD0
7D07D0
B802D0
B402D0
F402D0
F402D0
F402D0
B402D0
B802D0
7D07D0
2FFFD0
0BE6D0
0002D0
0003C0
240B80
2FBF40
06F900
ENDCHAR
STARTCHAR Gdotaccent
ENCODING 288
SWIDTH 590 0
DWIDTH 14 0
BBX 12 21 1 0
BITMAP
001400
007C00
007800
000000
01BF80
0BFFF0
2F40B8
3D003D
7C002D
780004
B80000
B80000
B80000
B80BFE
B80ABE
78002E
7C002E
3D002E
1F407E
0BFFF8
01BF90
ENDCHAR
STARTCHAR gdotaccent
ENCODING 289
SWIDTH 492 0
DWIDTH 12 0
BBX 10 23 1 -5
BITMAP
005000
02F000
01E000
000000
000000
0BE6D0
2FFFD0
7D07D0
B802D0
B402D0
F402D0
F402D0
F402D0
B402D0
B802D0
7D07D0
2FFFD0
0BE6D0
0002D0
0003C0
240B80
2FBF40
06F900
ENDCHAR
STARTCHAR uni0122
ENCODING 290
SWIDTH 590 0
DWIDTH 14 0
BBX 12 23 1 -6
BITMAP
01BF80
0BFFF0
2F40B8
3D003D
7C002D
780004
B80000
B80000
B80000
B80BFE
B80ABE
78002E
7C002E
3D002E
1F407E
0BFFF8
01BF90
000000
002D00
002D00
002C00
003800
002400
ENDCHAR
STARTCHAR uni0123
ENCODING 291
SWIDTH 492 0
DWIDTH 12 0
BBX 10 25 1 -5
BITMAP
006000
00F000
01E000
01E000
01E000
000000
000000
0BE6D0
2FFFD0
7D07D0
B802D0
B402D0
F402D0
F402D0
F402D0
B402D0
B802D0
7D07D0
2FFFD0
0BE6D0
0002D0
0003C0
240B80
2FBF40
06F900
ENDCHAR
STARTCHAR Hcircumflex
ENCODING 292
SWIDTH 620 0
DWIDTH 15 0
BBX 11 21 2 0
BITMAP
00B400
02ED00
074A00
000000
F0003C
F0003C
F0003C
F0003C
F0003C
F0003C
F0003C
FFFFFC
FFFFFC
F0003C
F0003C
F0003C
F0003C
F0003C
F0003C
F0003C
F0003C
ENDCHAR
STARTCHAR hcircumflex
ENCODING 293
SWIDTH 482 0
DWIDTH 12 0
BBX 9 22 1 0
BITMAP
02D000
0FB400
1D2800
000000
780000
780000
780000
780000
780000
79BD00
7FFF40
7E0B80
7803C0
7803C0
7803C0
7803C0
7803C0
7803C0
7803C0
7803C0
7803C0
7803C0
ENDCHAR
STARTCHAR Hbar
ENCODING 294
SWIDTH 611 0
DWIDTH 15 0
BBX 15 17 0 0
BITMAP
0F0003C0
0F0003C0
0F0003C0
7FFFFFF4
6FAAABE4
0F0003C0
0F0003C0
0FFFFFC0
0FFFFFC0
0F0003C0
0F0003C0
0F0003C0
0F0003C0
0F0003C0
0F0003C0
0F0003C0
0F0003C0
ENDCHAR
STARTCHAR hbar
ENCODING 295
SWIDTH 497 0
DWIDTH 12 0
BBX 12 18 -1 0
BITMAP
03C000
03C000
7FFD00
2BE800
03C000
03CBE0
03FFF8
03E07C
03C02D
03C02D
03C02D
03C02D
03C02D
03C02D
03C02D
03C02D
03C02D
03C02D
ENDCHAR
STARTCHAR Itilde
ENCODING 296
SWIDTH 250 0
DWIDTH 6 0
BBX 8 21 -1 0
BITMAP
1909
7FED
71B8
0000
03C0
03C0
03C0
03C0
03C0
03C0
03C0
03C0
03C0
03C0
03C0
03C0
03C0
03C0
03C0
03C0
03C0
ENDCHAR
STARTCHAR itilde
ENCODING 297
SWIDTH 234 0
DWIDTH 6 0
BBX 8 18 -1 0
BITMAP
1909
7FAC
A1F4
0000
0000
0780
0780
0780
0780
0780
0780
0780
0780
0780
0780
0780
0780
0780
ENDCHAR
STARTCHAR Imacron
ENCODING 298
SWIDTH 250 0
DWIDTH 6 0
BBX 8 21 -1 0
BITMAP
6AA9
7FFD
0000
0000
03C0
03C0
03C0
03C0
03C0
03C0
03C0
03C0
03C0
03C0
03C0
03C0
03C0
03C0
03C0
03C0
03C0
ENDCHAR
STARTCHAR imacron
ENCODING 299
SWIDTH 234 0
DWIDTH 6 0
BBX 8 17 -1 0
BITMAP
6AA9
BFFD
0000
0000
0780
0780
0780
0780
0780
0780
0780
0780
0780
0780
0780
0780
0780
ENDCHAR
STARTCHAR Ibreve
ENCODING 300
SWIDTH 250 0
DWIDTH 6 0
BBX 8 23 -1 0
BITMAP
5005
741D
3D7C
0BE0
0000
0000
03C0
03C0
03C0
03C0
03C0
03C0
03C0
03C0
03C0
03C0
03C0
03C0
03C0
03C0
03C0
03C0
03C0
ENDCHAR
STARTCHAR ibreve
ENCODING 301
SWIDTH 234 0
DWIDTH 6 0
BBX 8 19 -1 0
BITMAP
5014
B42D
3DB8
1BE0
0000
0000
0780
0780
0780
0780
0780
0780
0780
0780
0780
0780
0780
0780
0780
ENDCHAR
STARTCHAR Iogonek
ENCODING 302
SWIDTH 250 0
DWIDTH 6 0
BBX 4 22 0 -5
BITMAP
0F
0F
0F
0F
0F
0F
0F
0F
0F
0F
0F
0F
0F
0F
0F
0F
0F
2D
78
B4
7A
2E
ENDCHAR
STARTCHAR iogonek
ENCODING 303
SWIDTH 229 0
DWIDTH 6 0
BBX 4 23 0 -5
BITMAP
05
1F
1E
00
00
1E
1E
1E
1E
1E
1E
1E
1E
1E
1E
1E
1E
1F
2D
74
B0
BA
7E
ENDCHAR
STARTCHAR Idotaccent
ENCODING 304
SWIDTH 250 0
DWIDTH 6 0
BBX 4 21 1 0
BITMAP
14
7D
3C
00
3C
3C
3C
3C
3C
3C
3C
3C
3C
3C
3C
3C
3C
3C
3C
3C
3C
ENDCHAR
STARTCHAR dotlessi
ENCODING 305
SWIDTH 234 0
DWIDTH 6 0
BBX 3 13 1 0
BITMAP
78
78
78
78
78
78
78
78
78
78
78
78
78
ENDCHAR
STARTCHAR IJ
ENCODING 306
SWIDTH 733 0
DWIDTH 18 0
BBX 14 17 2 0
BITMAP
F00001F0
F00001F0
F00001F0
F00001F0
F00001F0
F00001F0
F00001F0
F00001F0
F00001F0
F00001F0
F00001F0
F00001F0
F07C01E0
F03C02E0
F03E07D0
F01FFF80
F006FD00
ENDCHAR
STARTCHAR ij
ENCODING 307
SWIDTH 452 0
DWIDTH 11 0
BBX 9 23 1 -5
BITMAP
140500
7C0F40
780B00
000000
000000
780F40
780F40
780F40
780F40
780F40
780F40
780F40
780F40
780F40
780F40
780F40
780F40
780F40
000F40
000F00
000F00
00BE00
00B800
ENDCHAR
STARTCHAR Jcircumflex
ENCODING 308
SWIDTH 483 0
DWIDTH 12 0
BBX 12 21 0 0
BITMAP
0002E0
000BB8
001919
000000
0001F0
0001F0
0001F0
0001F0
0001F0
0001F0
0001F0
0001F0
0001F0
0001F0
0001F0
0001F0
7C01E0
3C02E0
3E07D0
1FFF80
06FD00
ENDCHAR
STARTCHAR jcircumflex
ENCODING 309
SWIDTH 237 0
DWIDTH 6 0
BBX 7 23 -1 -5
BITMAP
07C0
1EB4
2838
0000
0000
03C0
03C0
03C0
03C0
03C0
03C0
03C0
03C0
03C0
03C0
03C0
03C0
03C0
03C0
03C0
0780
6F40
7D00
ENDCHAR
STARTCHAR uni0136
ENCODING 310
SWIDTH 544 0
DWIDTH 13 0
BBX 11 22 2 -5
BITMAP
F001F4
F003D0
F00B80
F02F00
F07D00
F0F400
F2E000
F7D000
FFE000
FEF400
F8BC00
F03E00
F01F40
F00B80
F003D0
F001F0
F000F8
01E000
01E000
01E000
02D000
018000
ENDCHAR
STARTCHAR uni0137
ENCODING 311
SWIDTH 450 0
DWIDTH 11 0
BBX 10 23 1 -5
BITMAP
780000
780000
780000
780000
780000
780B80
781F00
783D00
78B400
79E000
7BD000
7FE000
7EF400
787C00
783D00
781F00
780B80
7803D0
02D000
02D000
02D000
03C000
024000
ENDCHAR
STARTCHAR kgreenlandic
ENCODING 312
SWIDTH 491 0
DWIDTH 12 0
BBX 10 13 1 0
BITMAP
7803D0
780B80
782E00
787C00
78F400
7FE000
7FE000
78F400
787C00
782E00
780F40
7807C0
7803E0
ENDCHAR
STARTCHAR Lacute
ENCODING 313
SWIDTH 475 0
DWIDTH 11 0
BBX 9 21 2 0
BITMAP
2F0000
7C0000
A00000
000000
F00000
F00000
F00000
F00000
F00000
F00000
F00000
F00000
F00000
F00000
F00000
F00000
F00000
F00000
F00000
FFFF80
FFFF80
ENDCHAR
STARTCHAR lacute
ENCODING 314
SWIDTH 229 0
DWIDTH 6 0
BBX 5 23 1 0
BITMAP
0B80
2E00
2800
0000
0000
7800
7800
7800
7800
7800
7800
7800
7800
7800
7800
7800
7800
7800
7800
7800
7800
7800
7800
ENDCHAR
STARTCHAR uni013B
ENCODING 315
SWIDTH 475 0
DWIDTH 11 0
BBX 9 23 2 -6
BITMAP
F00000
F00000
F00000
F00000
F00000
F00000
F00000
F00000
F00000
F00000
F00000
F00000
F00000
F00000
F00000
FFFF80
FFFF80
000000
02D000
02D000
03C000
078000
024000
ENDCHAR
STARTCHAR uni013C
ENCODING 316
SWIDTH 229 0
DWIDTH 6 0
BBX 3 24 1 -6
BITMAP
78
78
78
78
78
78
78
78
78
78
78
78
78
78
78
78
78
78
00
78
78
78
B4
60
ENDCHAR
STARTCHAR Lcaron
ENCODING 317
SWIDTH 475 0
DWIDTH 11 0
BBX 9 17 2 0
BITMAP
F07400
F0B400
F0B400
F0F000
F09000
F00000
F00000
F00000
F00000
F00000
F00000
F00000
F00000
F00000
F00000
FFFF80
FFFF80
ENDCHAR
STARTCHAR lcaron
ENCODING 318
SWIDTH 302 0
DWIDTH 7 0
BBX 7 18 1 0
BITMAP
78B4
78B4
78F0
79E0
7890
7800
7800
7800
7800
7800
7800
7800
7800
7800
7800
7800
7800
7800
ENDCHAR
STARTCHAR Ldot
ENCODING 319
SWIDTH 475 0
DWIDTH 11 0
BBX 9 17 2 0
BITMAP
F00000
F00000
F00000
F00000
F00000
F00000
F05000
F0F400
F0B400
F00000
F00000
F00000
F00000
F00000
F00000
FFFF80
FFFF80
ENDCHAR
STARTCHAR ldot
ENCODING 320
SWIDTH 336 0
DWIDTH 8 0
BBX 7 18 1 0
BITMAP
7800
7800
7800
7800
7800
7800
7800
7850
78F4
78F0
7800
7800
7800
7800
7800
7800
7800
7800
ENDCHAR
STARTCHAR Lslash
ENCODING 321
SWIDTH 475 0
DWIDTH 11 0
BBX 11 17 0 0
BITMAP
0F0000
0F0000
0F0000
0F0000
0F0000
0F0000
0F6400
1FE400
7F4000
5F0000
0F0000
0F0000
0F0000
0F0000
0F0000
0FFFF8
0FFFF8
ENDCHAR
STARTCHAR lslash
ENCODING 322
SWIDTH 250 0
DWIDTH 6 0
BBX 6 18 0 0
BITMAP
0F00
0F00
0F00
0F00
0F00
0F00
0F00
0F90
1FD0
7F00
5F00
0F00
0F00
0F00
0F00
0F00
0F00
0F00
ENDCHAR
STARTCHAR Nacute
ENCODING 323
SWIDTH 619 0
DWIDTH 15 0
BBX 11 21 2 0
BITMAP
000F80
003E00
007400
000000
F4003C
F8003C
FD003C
FE003C
FB403C
F7C03C
F2D03C
F0F03C
F0B43C
F03C3C
F02D3C
F00F7C
F00BBC
F003FC
F001FC
F000FC
F0007C
ENDCHAR
STARTCHAR nacute
ENCODING 324
SWIDTH 483 0
DWIDTH 12 0
BBX 9 18 1 0
BITMAP
002F00
007C00
00A000
000000
000000
79BD00
7BFF40
7E0B80
7803C0
7803C0
7803C0
7803C0
7803C0
7803C0
7803C0
7803C0
7803C0
7803C0
ENDCHAR
STARTCHAR uni0145
ENCODING 325
SWIDTH 619 0
DWIDTH 15 0
BBX 11 23 2 -6
BITMAP
F4003C
F8003C
FD003C
FE003C
FB403C
F7C03C
F2D03C
F0F03C
F0B43C
F03C3C
F02D3C
F00F7C
F00BBC
F003FC
F001FC
F000FC
F0007C
000000
00B400
00B400
00F000
01E000
009000
ENDCHAR
STARTCHAR uni0146
ENCODING 326
SWIDTH 483 0
DWIDTH 12 0
BBX 9 19 1 -6
BITMAP
79BD00
7BFF40
7E0B80
7803C0
7803C0
7803C0
7803C0
7803C0
7803C0
7803C0
7803C0
7803C0
7803C0
000000
01E000
01E000
01E000
02C000
018000
ENDCHAR
STARTCHAR Ncaron
ENCODING 327
SWIDTH 619 0
DWIDTH 15 0
BBX 11 21 2 0
BITMAP
074B40
02ED00
00B400
000000
F4003C
F8003C
FD003C
FE003C
FB403C
F7C03C
F2D03C
F0F03C
F0B43C
F03C3C
F02D3C
F00F7C
F00BBC
F003FC
F001FC
F000FC
F0007C
ENDCHAR
STARTCHAR ncaron
ENCODING 328
SWIDTH 483 0
DWIDTH 12 0
BBX 9 18 1 0
BITMAP
0E0E00
03B800
01F000
000000
000000
79BD00
7BFF40
7E0B80
7803C0
7803C0
7803C0
7803C0
7803C0
7803C0
7803C0
7803C0
7803C0
7803C0
ENDCHAR
STARTCHAR napostrophe
ENCODING 329
SWIDTH 483 0
DWIDTH 12 0
BBX 11 18 -1 0
BITMAP
2D0000
2C0000
3C0000
780000
200000
079BD0
07BFF4
07E0B8
07803C
07803C
07803C
07803C
07803C
07803C
07803C
07803C
07803C
07803C
ENDCHAR
STARTCHAR Eng
ENCODING 330
SWIDTH 599 0
DWIDTH 14 0
BBX 12 22 1 -5
BITMAP
7D001E
7E001E
7F401E
7F801E
7FD01E
7DE01E
7CF41E
7C781E
7C3D1E
7C1F1E
7C0B5E
7C07DE
7C02FE
7C01FE
7C00BE
7C007E
7C002E
00001E
00002E
00002D
0002FC
0002E4
ENDCHAR
STARTCHAR eng
ENCODING 331
SWIDTH 498 0
DWIDTH 12 0
BBX 10 18 1 -5
BITMAP
79BD00
7BFF40
7D0BC0
7803C0
7803D0
7802D0
7802D0
7802D0
7802D0
7802D0
7802D0
7802D0
7802D0
0002D0
0003D0
0007C0
003F80
003E00
ENDCHAR
STARTCHAR Omacron
ENCODING 332
SWIDTH 600 0
DWIDTH 14 0
BBX 12 21 1 0
BITMAP
02AA90
03FFE0
000000
000000
01BF80
0BFFF0
1F41B8
3D003D
7C002E
78001E
78001F
B8001F
B8001F
B8001F
B8001F
78001F
7C002E
3D003D
1F40BC
0BFFF4
01BF80
ENDCHAR
STARTCHAR omacron
ENCODING 333
SWIDTH 501 0
DWIDTH 12 0
BBX 10 17 1 0
BITMAP
1AAA40
1FFF40
000000
000000
06F900
1FFF40
3D07D0
B802E0
B401E0
F401F0
F400F0
F401F0
B401E0
B802E0
3D07D0
1FFF40
06F900
ENDCHAR
STARTCHAR Obreve
ENCODING 334
SWIDTH 600 0
DWIDTH 14 0
BBX 12 23 1 0
BITMAP
014050
0381E0
02E7D0
00BE40
000000
000000
01BF80
0BFFF0
1F41B8
3D003D
7C002E
78001E
78001F
B8001F
B8001F
B8001F
B8001F
78001F
7C002E
3D003D
1F40BC
0BFFF4
01BF80
ENDCHAR
STARTCHAR obreve
ENCODING 335
SWIDTH 501 0
DWIDTH 12 0
BBX 10 19 1 0
BITMAP
140100
1D0B40
0F6E00
02F800
000000
000000
06F900
1FFF40
3D07D0
B802E0
B401E0
F401F0
F400F0
F401F0
B401E0
B802E0
3D07D0
1FFF40
06F900
ENDCHAR
STARTCHAR Ohungarumlaut
ENCODING 336
SWIDTH 600 0
DWIDTH 14 0
BBX 12 22 1 0
BITMAP
003CB8
0079F0
00F3D0
00A680
000000
01BF80
0BFFF0
1F41B8
3D003D
7C002E
78001E
78001F
B8001F
B8001F
B8001F
B8001F
78001F
7C002E
3D003D
1F40BC
0BFFF4
01BF80
ENDCHAR
STARTCHAR ohungarumlaut
ENCODING 337
SWIDTH 501 0
DWIDTH 12 0
BBX 10 19 1 0
BITMAP
01E3D0
02DB80
079F00
075D00
000000
000000
06F900
1FFF40
3D07D0
B802E0
B401E0
F401F0
F400F0
F401F0
B401E0
B802E0
3D07D0
1FFF40
06F900
ENDCHAR
STARTCHAR OE
ENCODING 338
SWIDTH 826 0
DWIDTH 20 0
BBX 17 17 1 0
BITMAP
01BFFFFFC0
0BEBFFFF80
2E01F00000
3C01F00000
7801F00000
B401F00000
B401F00000
B401FFFF00
B401FFFE00
B401F00000
B401F00000
B401F00000
7801F00000
3C01F00000
2E01F00000
0BEBFFFF80
01BFFFFFC0
ENDCHAR
STARTCHAR oe
ENCODING 339
SWIDTH 777 0
DWIDTH 19 0
BBX 17 13 1 0
BITMAP
06F907F400
1FFF6FFE00
3D07FC1F40
7803F40B80
B402F00780
B401FFFF80
B401FAAA80
B401F00000
B402F00000
7802F40000
3D07FC0600
1FFF6FBF40
06F907F900
ENDCHAR
STARTCHAR Racute
ENCODING 340
SWIDTH 530 0
DWIDTH 13 0
BBX 11 21 2 0
BITMAP
007D00
00F400
02D000
000000
FFF900
FFFF80
F007D0
F002E0
F002E0
F002E0
F002D0
F00BC0
FFFF40
FFFD00
F02E00
F01F00
F00F40
F007C0
F003D0
F002E0
F001F4
ENDCHAR
STARTCHAR racute
ENCODING 341
SWIDTH 304 0
DWIDTH 7 0
BBX 7 18 1 0
BITMAP
01F4
03D0
0B40
0000
0000
79E0
7FE0
7E00
7800
7800
7800
7800
7800
7800
7800
7800
7800
7800
ENDCHAR
STARTCHAR uni0156
ENCODING 342
SWIDTH 530 0
DWIDTH 13 0
BBX 11 23 2 -6
BITMAP
FFF900
FFFF80
F007D0
F002E0
F002E0
F002E0
F002D0
F00BC0
FFFF40
FFFD00
F02E00
F01F00
F00F40
F007C0
F003D0
F002E0
F001F4
000000
02D000
02C000
03C000
078000
020000
ENDCHAR
STARTCHAR uni0157
ENCODING 343
SWIDTH 304 0
DWIDTH 7 0
BBX 6 19 1 -6
BITMAP
79E0
7FE0
7E00
7800
7800
7800
7800
7800
7800
7800
7800
7800
7800
0000
7800
7800
7400
B000
6000
ENDCHAR
STARTCHAR Rcaron
ENCODING 344
SWIDTH 530 0
DWIDTH 13 0
BBX 11 21 2 0
BITMAP
2D2C00
0BB400
02D000
000000
FFF900
FFFF80
F007D0
F002E0
F002E0
F002E0
F002D0
F00BC0
FFFF40
FFFD00
F02E00
F01F00
F00F40
F007C0
F003D0
F002E0
F001F4
ENDCHAR
STARTCHAR rcaron
ENCODING 345
SWIDTH 304 0
DWIDTH 7 0
BBX 6 18 1 0
BITMAP
B4B0
2ED0
0B40
0000
0000
79E0
7FE0
7E00
7800
7800
7800
7800
7800
7800
7800
7800
7800
7800
ENDCHAR
STARTCHAR Sacute
ENCODING 346
SWIDTH 518 0
DWIDTH 12 0
BBX 11 21 1 0
BITMAP
000F80
003D00
007400
000000
06FE00
1FFFC0
3E02E0
7800F4
B800B4
7C0010
3E0000
1FE400
06FE40
006FD0
0002F0
5000F4
F400B4
B800F4
7D02F0
1FFFD0
06FE40
ENDCHAR
STARTCHAR sacute
ENCODING 347
SWIDTH 455 0
DWIDTH 11 0
BBX 9 18 1 0
BITMAP
002F00
007C00
00A000
000000
000000
0BF800
2FBF00
7C0F40
780640
7D0000
2F9000
07F900
007F00
000B80
B40780
B80B80
3FBF00
0BF800
ENDCHAR
STARTCHAR Scircumflex
ENCODING 348
SWIDTH 518 0
DWIDTH 12 0
BBX 11 21 1 0
BITMAP
00B400
02ED00
074A00
000000
06FE00
1FFFC0
3E02E0
7800F4
B800B4
7C0010
3E0000
1FE400
06FE40
006FD0
0002F0
5000F4
F400B4
B800F4
7D02F0
1FFFD0
06FE40
ENDCHAR
STARTCHAR scircumflex
ENCODING 349
SWIDTH 455 0
DWIDTH 11 0
BBX 9 18 1 0
BITMAP
01F000
07BC00
0A1E00
000000
000000
0BF800
2FBF00
7C0F40
780640
7D0000
2F9000
07F900
007F00
000B80
B40780
B80B80
3FBF00
0BF800
ENDCHAR
STARTCHAR Scedilla
ENCODING 350
SWIDTH 518 0
DWIDTH 12 0
BBX 11 22 1 -5
BITMAP
06FE00
1FFFC0
3E02E0
7800F4
B800B4
7C0010
3E0000
1FE400
06FE40
006FD0
0002F0
5000F4
F400B4
B800F4
7D02F0
1FFFD0
06FE40
007000
006C00
000D00
002D00
007800
ENDCHAR
STARTCHAR scedilla
ENCODING 351
SWIDTH 455 0
DWIDTH 11 0
BBX 9 18 1 -5
BITMAP
0BF800
2FBF00
7C0F40
780640
7D0000
2F9000
07F900
007F00
000B80
B40780
B80B80
3FBF00
0BF800
00E000
00B400
002C00
007800
00E400
ENDCHAR
STARTCHAR Scaron
ENCODING 352
SWIDTH 518 0
DWIDTH 12 0
BBX 11 21 1 0
BITMAP
074B40
02ED00
00B400
000000
06FE00
1FFFC0
3E02E0
7800F4
B800B4
7C0010
3E0000
1FE400
06FE40
006FD0
0002F0
5000F4
F400B4
B800F4
7D02F0
1FFFD0
06FE40
ENDCHAR
STARTCHAR scaron
ENCODING 353
SWIDTH 455 0
DWIDTH 11 0
BBX 9 18 1 0
BITMAP
0E0E00
03B800
01F000
000000
000000
0BF800
2FBF00
7C0F40
780640
7D0000
2F9000
07F900
007F00
000B80
B40780
B80B80
3FBF00
0BF800
ENDCHAR
STARTCHAR uni0162
ENCODING 354
SWIDTH 520 0
DWIDTH 13 0
BBX 12 22 0 -5
BITMAP
7FFFFE
7FFFFE
002D00
002D00
002D00
002D00
002D00
002D00
002D00
002D00
002D00
002D00
002D00
002D00
002D00
002D00
002D00
002C00
001E00
000740
001B40
002D00
ENDCHAR
STARTCHAR uni0163
ENCODING 355
SWIDTH 295 0
DWIDTH 7 0
BBX 7 21 0 -5
BITMAP
0B40
0B40
0B40
BFF4
6FA0
0B40
0B40
0B40
0B40
0B40
0B40
0B40
0B40
0B40
07F4
02F0
00E0
00B4
002C
0078
00E0
ENDCHAR
STARTCHAR Tcaron
ENCODING 356
SWIDTH 520 0
DWIDTH 13 0
BBX 12 21 0 0
BITMAP
02D2C0
00BB40
002D00
000000
7FFFFE
7FFFFE
002D00
002D00
002D00
002D00
002D00
002D00
002D00
002D00
002D00
002D00
002D00
002D00
002D00
002D00
002D00
ENDCHAR
STARTCHAR tcaron
ENCODING 357
SWIDTH 314 0
DWIDTH 8 0
BBX 8 20 0 0
BITMAP
000F
000F
001E
002D
0B58
0B40
0B40
BFF4
6FA0
0B40
0B40
0B40
0B40
0B40
0B40
0B40
0B40
0B40
07F4
02F0
ENDCHAR
STARTCHAR Tbar
ENCODING 358
SWIDTH 520 0
DWIDTH 13 0
BBX 12 17 0 0
BITMAP
7FFFFE
7FFFFE
002D00
002D00
002D00
002D00
02FFE0
02BF90
002D00
002D00
002D00
002D00
002D00
002D00
002D00
002D00
002D00
ENDCHAR
STARTCHAR tbar
ENCODING 359
SWIDTH 295 0
DWIDTH 7 0
BBX 7 16 0 0
BITMAP
0B40
0B40
0B40
BFF4
6FA0
0B40
0B40
FFF4
AFA4
0B40
0B40
0B40
0B40
0B40
07F4
02F0
ENDCHAR
STARTCHAR Utilde
ENCODING 360
SWIDTH 561 0
DWIDTH 13 0
BBX 11 21 1 0
BITMAP
019090
07FBC0
0A1F40
000000
78003C
78003C
78003C
78003C
78003C
78003C
78003C
78003C
78003C
78003C
78003C
78003C
78007C
7C0078
3E01F4
1FFFE0
06FE40
ENDCHAR
STARTCHAR utilde
ENCODING 361
SWIDTH 483 0
DWIDTH 12 0
BBX 9 18 1 0
BITMAP
064240
1FEF00
287D00
000000
000000
7803C0
7803C0
7803C0
7803C0
7803C0
7803C0
7803C0
7803C0
7803C0
7803C0
7D0BC0
2FFFC0
0BE7C0
ENDCHAR
STARTCHAR Umacron
ENCODING 362
SWIDTH 561 0
DWIDTH 13 0
BBX 11 21 1 0
BITMAP
06AA80
0BFFD0
000000
000000
78003C
78003C
78003C
78003C
78003C
78003C
78003C
78003C
78003C
78003C
78003C
78003C
78007C
7C0078
3E01F4
1FFFE0
06FE40
ENDCHAR
STARTCHAR umacron
ENCODING 363
SWIDTH 483 0
DWIDTH 12 0
BBX 9 17 1 0
BITMAP
1AAA40
2FFF40
000000
000000
7803C0
7803C0
7803C0
7803C0
7803C0
7803C0
7803C0
7803C0
7803C0
7803C0
7D0BC0
2FFFC0
0BE7C0
ENDCHAR
STARTCHAR Ubreve
ENCODING 364
SWIDTH 561 0
DWIDTH 13 0
BBX 11 23 1 0
BITMAP
050140
0B42C0
07DB80
01BE00
000000
000000
78003C
78003C
78003C
78003C
78003C
78003C
78003C
78003C
78003C
78003C
78003C
78003C
78007C
7C0078
3E01F4
1FFFE0
06FE40
ENDCHAR
STARTCHAR ubreve
ENCODING 365
SWIDTH 483 0
DWIDTH 12 0
BBX 9 19 1 0
BITMAP
140500
2D0B00
0F6E00
06F800
000000
000000
7803C0
7803C0
7803C0
7803C0
7803C0
7803C0
7803C0
7803C0
7803C0
7803C0
7D0BC0
2FFFC0
0BE7C0
ENDCHAR
STARTCHAR Uring
ENCODING 366
SWIDTH 561 0
DWIDTH 13 0
BBX 11 23 1 0
BITMAP
00BD00
028700
024340
028700
00BD00
000000
78003C
78003C
78003C
78003C
78003C
78003C
78003C
78003C
78003C
78003C
78003C
78003C
78007C
7C0078
3E01F4
1FFFE0
06FE40
ENDCHAR
STARTCHAR uring
ENCODING 367
SWIDTH 483 0
DWIDTH 12 0
BBX 9 19 1 0
BITMAP
02F400
061C00
090D00
061C00
02F400
000000
7803C0
7803C0
7803C0
7803C0
7803C0
7803C0
7803C0
7803C0
7803C0
7803C0
7D0BC0
2FFFC0
0BE7C0
ENDCHAR
STARTCHAR Uhungarumlaut
ENCODING 368
SWIDTH 561 0
DWIDTH 13 0
BBX 11 22 1 0
BITMAP
0078F4
00F2D0
01E780
01CB40
000000
78003C
78003C
78003C
78003C
78003C
78003C
78003C
78003C
78003C
78003C
78003C
78003C
78007C
7C0078
3E01F4
1FFFE0
06FE40
ENDCHAR
STARTCHAR uhungarumlaut
ENCODING 369
SWIDTH 483 0
DWIDTH 12 0
BBX 10 19 1 0
BITMAP
01E3D0
03DB80
079F00
072D00
000000
000000
7803C0
7803C0
7803C0
7803C0
7803C0
7803C0
7803C0
7803C0
7803C0
7803C0
7D0BC0
2FFFC0
0BE7C0
ENDCHAR
STARTCHAR Uogonek
ENCODING 370
SWIDTH 561 0
DWIDTH 13 0
BBX 11 22 1 -5
BITMAP
78003C
78003C
78003C
78003C
78003C
78003C
78003C
78003C
78003C
78003C
78003C
78003C
78007C
7C0078
3E01F4
1FFFE0
06FF40
001D00
002C00
003C00
002E40
001F40
ENDCHAR
STARTCHAR uogonek
ENCODING 371
SWIDTH 483 0
DWIDTH 12 0
BBX 9 18 1 -5
BITMAP
7803C0
7803C0
7803C0
7803C0
7803C0
7803C0
7803C0
7803C0
7803C0
7803C0
7D0BC0
2FFFC0
0BE7C0
000740
001E00
001D00
001F80
000B80
ENDCHAR
STARTCHAR Wcircumflex
ENCODING 372
SWIDTH 761 0
DWIDTH 18 0
BBX 17 21 1 0
BITMAP
0002D00000
000BB40000
001D280000
0000000000
F002D00B80
F403E00B40
B407E00F00
7807F00F00
780BB41E00
3C0F741E00
3C0E382D00
2D1D3C3C00
1E2D2C3C00
1E2C1D7800
0F381E7800
0F740EB400
0BB40BB000
07F007F000
07E007E000
03E003E000
03D002D000
ENDCHAR
STARTCHAR wcircumflex
ENCODING 373
SWIDTH 649 0
DWIDTH 16 0
BBX 15 18 0 0
BITMAP
00078000
001EE000
00287400
00000000
00000000
7807807C
3C07C078
2D0BD0B4
2D0FE0B0
1E1EE0F0
0E1DB1E0
0F2CB5D0
0B787AD0
07B43BC0
03F42F80
03F01F40
02E01F40
01D00F00
ENDCHAR
STARTCHAR Ycircumflex
ENCODING 374
SWIDTH 524 0
DWIDTH 13 0
BBX 12 21 0 0
BITMAP
002D00
00BB40
01D280
000000
7C001F
3D003E
2E007C
0F40B8
0B80F0
03C1E0
02D3D0
01F780
00BF40
007F00
003D00
002D00
002D00
002D00
002D00
002D00
002D00
ENDCHAR
STARTCHAR ycircumflex
ENCODING 375
SWIDTH 416 0
DWIDTH 10 0
BBX 10 23 0 -5
BITMAP
00B400
03ED00
074A00
000000
000000
7802D0
3C03C0
3D0780
2E0B80
1E0B40
0F0F00
0B5E00
07AD00
03AC00
02FC00
02F800
01F400
00F000
00E000
01D000
03C000
3F8000
3E0000
ENDCHAR
STARTCHAR Ydieresis
ENCODING 376
SWIDTH 524 0
DWIDTH 13 0
BBX 12 21 0 0
BITMAP
014050
07C1F0
0781E0
000000
7C001F
3D003E
2E007C
0F40B8
0B80F0
03C1E0
02D3D0
01F780
00BF40
007F00
003D00
002D00
002D00
002D00
002D00
002D00
002D00
ENDCHAR
STARTCHAR Zacute
ENCODING 377
SWIDTH 522 0
DWIDTH 13 0
BBX 11 21 1 0
BITMAP
000F40
003D00
007400
000000
FFFFF4
BFFFF4
0002E0
0003D0
000B80
001F00
002D00
007C00
00F400
02E000
07C000
0B8000
1F0000
3D0000
780000
FFFFF4
FFFFF8
ENDCHAR
STARTCHAR zacute
ENCODING 378
SWIDTH 438 0
DWIDTH 11 0
BBX 9 18 1 0
BITMAP
003D00
00F400
01D000
000000
000000
FFFF40
AAAF40
002E00
003D00
00B800
01F000
03D000
0B8000
0F0000
2E0000
7C0000
FEAA40
FFFF80
ENDCHAR
STARTCHAR Zdotaccent
ENCODING 379
SWIDTH 522 0
DWIDTH 13 0
BBX 11 21 1 0
BITMAP
005000
00F800
00B400
000000
FFFFF4
BFFFF4
0002E0
0003D0
000B80
001F00
002D00
007C00
00F400
02E000
07C000
0B8000
1F0000
3D0000
780000
FFFFF4
FFFFF8
ENDCHAR
STARTCHAR zdotaccent
ENCODING 380
SWIDTH 438 0
DWIDTH 11 0
BBX 9 18 1 0
BITMAP
014000
03E000
02D000
000000
000000
FFFF40
AAAF40
002E00
003D00
00B800
01F000
03D000
0B8000
0F0000
2E0000
7C0000
FEAA40
FFFF80
ENDCHAR
STARTCHAR Zcaron
ENCODING 381
SWIDTH 522 0
DWIDTH 13 0
BBX 11 21 1 0
BITMAP
074B40
02ED00
00B400
000000
FFFFF4
BFFFF4
0002E0
0003D0
000B80
001F00
002D00
007C00
00F400
02E000
07C000
0B8000
1F0000
3D0000
780000
FFFFF4
FFFFF8
ENDCHAR
STARTCHAR zcaron
ENCODING 382
SWIDTH 438 0
DWIDTH 11 0
BBX 9 18 1 0
BITMAP
1D2D00
0BB400
02D000
000000
000000
FFFF40
AAAF40
002E00
003D00
00B800
01F000
03D000
0B8000
0F0000
2E0000
7C0000
FEAA40
FFFF80
ENDCHAR
STARTCHAR longs
ENCODING 383
SWIDTH 234 0
DWIDTH 6 0
BBX 6 18 1 0
BITMAP
0BE0
2F90
3D00
3C00
7C00
7C00
7C00
7C00
7C00
7C00
7C00
7C00
7C00
7C00
7C00
7C00
7C00
7C00
ENDCHAR
STARTCHAR uni018F
ENCODING 399
SWIDTH 597 0
DWIDTH 14 0
BBX 12 17 1 0
BITMAP
06FE40
1FFFE0
0901F4
00007C
00002D
00001E
00001F
00001F
FFFFFF
FAAAAF
F4001F
B4001E
B4002D
7C007C
2E01F4
0FFFD0
01BE40
ENDCHAR
STARTCHAR florin
ENCODING 402
SWIDTH 309 0
DWIDTH 7 0
BBX 7 23 0 -5
BITMAP
01BC
03FC
0780
0B40
0B40
7FF4
6FA4
0B40
0B40
0B40
0B40
0B40
0B40
0B40
0B40
0B40
0B40
0B40
0B40
0B40
0F40
BE00
B800
ENDCHAR
STARTCHAR Ohorn
ENCODING 416
SWIDTH 592 0
DWIDTH 14 0
BBX 14 18 1 0
BITMAP
000002D0
01BE42C0
0BFFD7C0
1F41FF40
3D007C00
78003C00
B8002D00
B4001E00
F4001E00
F4001E00
F4001E00
B4001E00
B8002E00
78003D00
3D007C00
1F41F400
0BFFE000
01BE4000
ENDCHAR
STARTCHAR ohorn
ENCODING 417
SWIDTH 502 0
DWIDTH 12 0
BBX 11 14 1 0
BITMAP
000018
06F82C
1FFF7C
3D07F4
7802D0
B401E0
B401E0
F401F0
B401F0
B401E0
7802D0
3D07C0
1FFF40
06F900
ENDCHAR
STARTCHAR Uhorn
ENCODING 431
SWIDTH 608 0
DWIDTH 15 0
BBX 15 19 1 0
BITMAP
00000014
00000038
78003C78
78003DB4
78003FE0
78003E40
78003C00
78003C00
78003C00
78003C00
78003C00
78003C00
78003C00
78003C00
78007C00
3C00B800
2E01F400
0FFFD000
02FE4000
ENDCHAR
STARTCHAR uhorn
ENCODING 432
SWIDTH 549 0
DWIDTH 13 0
BBX 12 14 1 0
BITMAP
000006
7803C7
7803CB
7803FD
7803D0
7803C0
7803C0
7803C0
7803C0
7803C0
7803C0
7D0BC0
2FFFC0
0BE7C0
ENDCHAR
STARTCHAR uni01F0
ENCODING 496
SWIDTH 237 0
DWIDTH 6 0
BBX 7 23 -1 -5
BITMAP
2C38
0EA0
03C0
0000
0000
03C0
03C0
03C0
03C0
03C0
03C0
03C0
03C0
03C0
03C0
03C0
03C0
03C0
03C0
03C0
0780
6F40
7D00
ENDCHAR
STARTCHAR Aringacute
ENCODING 506
SWIDTH 576 0
DWIDTH 14 0
BBX 14 23 0 0
BITMAP
0002D000
00034000
00000000
001F0000
00258000
00258000
001F4000
001F4000
002F8000
003BC000
0076D000
00B5E000
00F0F000
01E0B400
02D07800
03C07C00
07803D00
0BFFFE00
0FFFFF00
1E000F40
2E000B80
3D0007C0
7C0003D0
ENDCHAR
STARTCHAR aringacute
ENCODING 507
SWIDTH 479 0
DWIDTH 12 0
BBX 9 20 1 0
BITMAP
002D00
003400
000000
01F000
025800
025800
01F400
06F900
2FBF00
7C0B80
640780
000780
06FF80
2FAB80
7C0780
B80780
B40780
781FC0
3FFBC0
1BE3C0
ENDCHAR
STARTCHAR AEacute
ENCODING 508
SWIDTH 812 0
DWIDTH 19 0
BBX 19 21 0 0
BITMAP
00000F8000
00002E0000
0000740000
0000000000
0000BFFFF4
0000FFAAA4
0002FE0000
0003EE0000
000B9E0000
001F1E0000
002E1E0000
007C1FFFE0
00B81FAA90
01F01E0000
02E01F0000
07FFFF0000
0BFFFF0000
1F401F0000
2E000F0000
7D000FAAA8
B8000FFFFC
ENDCHAR
STARTCHAR aeacute
ENCODING 509
SWIDTH 728 0
DWIDTH 17 0
BBX 16 18 1 0
BITMAP
0000B800
0002E000
00068000
00000000
00000000
0BF82F90
3FBEBFF4
B80FE07C
640BC02D
000B802E
1BFFFFFE
7FAFEAA9
B80B8000
F00B8000
F00BD000
B41FE018
7FFDBEFD
1FE02FE4
ENDCHAR
STARTCHAR Oslashacute
ENCODING 510
SWIDTH 600 0
DWIDTH 14 0
BBX 12 24 1 -1
BITMAP
0007D0
000F40
001D00
000000
000000
000005
01BE4A
07FFFD
1F41B8
2E007D
3C00FE
7802DE
B8035F
B80B0F
B80D0F
B82C0F
B8741F
78A01E
3DD02E
2F803D
1F81B8
0FFFE0
1DBF40
280000
ENDCHAR
STARTCHAR oslashacute
ENCODING 511
SWIDTH 498 0
DWIDTH 12 0
BBX 10 20 1 -2
BITMAP
002E00
00B800
01A000
000040
000280
06FB40
1FFF40
3D0FC0
781ED0
B429E0
B435E0
F4A1F0
B4D1F0
B5C1E0
7A82D0
3F07C0
1FFF40
0EF900
2C0000
140000
ENDCHAR
STARTCHAR uni0218
ENCODING 536
SWIDTH 518 0
DWIDTH 12 0
BBX 11 23 1 -6
BITMAP
06FE00
1FFFC0
3E02E0
7800F4
B800B4
7C0010
3E0000
1FE400
06FE40
006FD0
0002F0
5000F4
F400B4
B800F4
7D02F0
1FFFD0
06FE40
000000
00B400
00B400
00B000
00E000
009000
ENDCHAR
STARTCHAR uni0219
ENCODING 537
SWIDTH 455 0
DWIDTH 11 0
BBX 9 19 1 -6
BITMAP
0BF800
2FBF00
7C0F40
780640
7D0000
2F9000
07F900
007F00
000B80
B40780
B80B80
3FBF00
0BF800
000000
00E000
01E000
01E000
02D000
018000
ENDCHAR
STARTCHAR uni021A
ENCODING 538
SWIDTH 520 0
DWIDTH 13 0
BBX 12 23 0 -6
BITMAP
7FFFFE
7FFFFE
002D00
002D00
002D00
002D00
002D00
002D00
002D00
002D00
002D00
002D00
002D00
002D00
002D00
002D00
002D00
000000
002D00
002D00
003C00
007800
002000
ENDCHAR
STARTCHAR uni021B
ENCODING 539
SWIDTH 295 0
DWIDTH 7 0
BBX 7 22 0 -6
BITMAP
0B40
0B40
0B40
BFF4
6FA0
0B40
0B40
0B40
0B40
0B40
0B40
0B40
0B40
0B40
07F4
02F0
0000
01E0
01E0
01E0
02D0
0180
ENDCHAR
STARTCHAR uni0237
ENCODING 567
SWIDTH 237 0
DWIDTH 6 0
BBX 5 18 -1 -5
BITMAP
03C0
03C0
03C0
03C0
03C0
03C0
03C0
03C0
03C0
03C0
03C0
03C0
03C0
03C0
03C0
0780
6F40
7D00
ENDCHAR
STARTCHAR uni0259
ENCODING 601
SWIDTH 465 0
DWIDTH 11 0
BBX 10 13 1 0
BITMAP
1BE400
7FBE00
240F40
000780
0003C0
0003C0
BFFFD0
BEABC0
B403C0
B80780
7C0F40
2FBE00
07F400
ENDCHAR
STARTCHAR uni02BC
ENCODING 700
SWIDTH 194 0
DWIDTH 5 0
BBX 3 6 1 12
BITMAP
78
78
B8
B4
F0
90
ENDCHAR
STARTCHAR circumflex
ENCODING 710
SWIDTH 428 0
DWIDTH 10 0
BBX 6 3 2 15
BITMAP
1F40
7AD0
B0E0
ENDCHAR
STARTCHAR caron
ENCODING 711
SWIDTH 403 0
DWIDTH 10 0
BBX 6 3 2 15
BITMAP
E1E0
7B80
1E00
ENDCHAR
STARTCHAR uni02C9
ENCODING 713
SWIDTH 414 0
DWIDTH 10 0
BBX 8 2 1 15
BITMAP
7FFD
7FFD
ENDCHAR
STARTCHAR breve
ENCODING 728
SWIDTH 426 0
DWIDTH 10 0
BBX 8 4 1 14
BITMAP
741D
382D
1FF4
0140
ENDCHAR
STARTCHAR dotaccent
ENCODING 729
SWIDTH 242 0
DWIDTH 6 0
BBX 3 3 1 15
BITMAP
14
7C
3C
ENDCHAR
STARTCHAR ring
ENCODING 730
SWIDTH 334 0
DWIDTH 8 0
BBX 6 5 1 14
BITMAP
1F40
75D0
A090
75D0
2F40
ENDCHAR
STARTCHAR ogonek
ENCODING 731
SWIDTH 253 0
DWIDTH 6 0
BBX 5 6 0 -5
BITMAP
0500
1E00
3800
7800
7E40
2F00
ENDCHAR
STARTCHAR tilde
ENCODING 732
SWIDTH 427 0
DWIDTH 10 0
BBX 8 3 1 15
BITMAP
1909
3FED
71B8
ENDCHAR
STARTCHAR hungarumlaut
ENCODING 733
SWIDTH 331 0
DWIDTH 8 0
BBX 7 4 1 14
BITMAP
2E7C
3CB4
75E0
B2C0
ENDCHAR
STARTCHAR uni02F3
ENCODING 755
SWIDTH 263 0
DWIDTH 6 0
BBX 4 4 1 -5
BITMAP
2D
96
96
2D
ENDCHAR
STARTCHAR gravecomb
ENCODING 768
SWIDTH 0 0
DWIDTH 0 0
BBX 4 3 -8 15
BITMAP
F4
3D
1E
ENDCHAR
STARTCHAR acutecomb
ENCODING 769
SWIDTH 0 0
DWIDTH 0 0
BBX 4 3 -6 15
BITMAP
2E
B8
A0
ENDCHAR
STARTCHAR tildecomb
ENCODING 771
SWIDTH 0 0
DWIDTH 0 0
BBX 8 3 -9 15
BITMAP
1909
7FED
71B8
ENDCHAR
STARTCHAR hookabovecomb
ENCODING 777
SWIDTH 0 0
DWIDTH 0 0
BBX 4 5 -7 15
BITMAP
78
1D
0E
7D
74
ENDCHAR
STARTCHAR uni030F
ENCODING 783
SWIDTH 0 0
DWIDTH 0 0
BBX 7 3 -9 15
BITMAP
F6E0
3DB4
0A78
ENDCHAR
STARTCHAR dotbelowcomb
ENCODING 803
SWIDTH 0 0
DWIDTH 0 0
BBX 3 3 -9 -5
BITMAP
3C
7C
14
ENDCHAR
STARTCHAR tonos
ENCODING 900
SWIDTH 256 0
DWIDTH 6 0
BBX 3 4 2 15
BITMAP
78
74
B0
A0
ENDCHAR
STARTCHAR dieresistonos
ENCODING 901
SWIDTH 452 0
DWIDTH 11 0
BBX 9 5 1 15
BITMAP
00F000
01E000
11C500
B40F40
B40B00
ENDCHAR
STARTCHAR Alphatonos
ENCODING 902
SWIDTH 576 0
DWIDTH 14 0
BBX 14 19 0 0
BITMAP
0B400000
0B000000
0E0F0000
091F4000
002F8000
003BC000
0076D000
00B5E000
00F0F000
01E0B400
02D07800
03C07C00
07803D00
0BFFFE00
0FFFFF00
1E000F40
2E000B80
3D0007C0
7C0003D0
ENDCHAR
STARTCHAR anoteleia
ENCODING 903
SWIDTH 243 0
DWIDTH 6 0
BBX 3 3 1 7
BITMAP
38
7C
24
ENDCHAR
STARTCHAR Epsilontonos
ENCODING 904
SWIDTH 496 0
DWIDTH 12 0
BBX 13 19 -2 0
BITMAP
B4000000
B0000000
E0FFFFC0
90FFFF80
00F00000
00F00000
00F00000
00F00000
00F00000
00FFFF00
00FFFF00
00F00000
00F00000
00F00000
00F00000
00F00000
00F00000
00FFFFC0
00FFFFC0
ENDCHAR
STARTCHAR Etatonos
ENCODING 905
SWIDTH 620 0
DWIDTH 15 0
BBX 15 19 -2 0
BITMAP
74000000
B0000000
E0F0003C
90F0003C
00F0003C
00F0003C
00F0003C
00F0003C
00F0003C
00FFFFFC
00FFFFFC
00F0003C
00F0003C
00F0003C
00F0003C
00F0003C
00F0003C
00F0003C
00F0003C
ENDCHAR
STARTCHAR Iotatonos
ENCODING 906
SWIDTH 250 0
DWIDTH 6 0
BBX 6 19 -2 0
BITMAP
7400
B000
E0F0
90F0
00F0
00F0
00F0
00F0
00F0
00F0
00F0
00F0
00F0
00F0
00F0
00F0
00F0
00F0
00F0
ENDCHAR
STARTCHAR Omicrontonos
ENCODING 908
SWIDTH 610 0
DWIDTH 15 0
BBX 14 19 0 0
BITMAP
B4000000
F0000000
D06FE400
81FFFD00
07E02F00
0B800B80
0F4007C0
1F0003C0
1F0003C0
1E0003D0
1E0003D0
1E0003D0
1F0003C0
1F0003C0
0F0007C0
0B800B80
07D02F00
01FFFD00
006FE400
ENDCHAR
STARTCHAR Upsilontonos
ENCODING 910
SWIDTH 573 0
DWIDTH 14 0
BBX 16 19 -3 0
BITMAP
3C000000
38000000
747D001F
602E002E
001F003D
000F4078
000780F4
0003D1F0
0002E2D0
0000F7C0
0000BF40
00003F00
00002E00
00002E00
00002E00
00002E00
00002E00
00002E00
00002E00
ENDCHAR
STARTCHAR Omegatonos
ENCODING 911
SWIDTH 591 0
DWIDTH 14 0
BBX 13 19 0 0
BITMAP
B4000000
F0000000
D06F9000
81FFF800
07D07D00
0B801F00
0F000F40
1F000B40
1E000B80
1E000B80
1E000B80
1E000B80
1E000B40
0F000B40
0B400F00
07801D00
02D07800
1FF9FF40
1FF9FF80
ENDCHAR
STARTCHAR iotadieresistonos
ENCODING 912
SWIDTH 299 0
DWIDTH 7 0
BBX 9 20 -1 0
BITMAP
00F000
01E000
11C500
B40F40
B40B00
000000
000000
02D000
02D000
02D000
02D000
02D000
02D000
02D000
02D000
02D000
02D000
02D000
01FD00
00BC00
ENDCHAR
STARTCHAR Alpha
ENCODING 913
SWIDTH 576 0
DWIDTH 14 0
BBX 14 17 0 0
BITMAP
000F0000
001F4000
002F8000
003BC000
0076D000
00B5E000
00F0F000
01E0B400
02D07800
03C07C00
07803D00
0BFFFE00
0FFFFF00
1E000F40
2E000B80
3D0007C0
7C0003D0
ENDCHAR
STARTCHAR Beta
ENCODING 914
SWIDTH 545 0
DWIDTH 13 0
BBX 10 17 2 0
BITMAP
FFF900
FFFF80
F007C0
F003D0
F002D0
F003D0
F00B80
FFFE00
FABF40
F007C0
F002E0
F001E0
F002E0
F002E0
F007D0
FFFF80
FFF900
ENDCHAR
STARTCHAR Gamma
ENCODING 915
SWIDTH 487 0
DWIDTH 12 0
BBX 9 17 2 0
BITMAP
FFFF80
FFFF80
F00000
F00000
F00000
F00000
F00000
F00000
F00000
F00000
F00000
F00000
F00000
F00000
F00000
F00000
F00000
ENDCHAR
STARTCHAR Delta.dup1
ENCODING 916
SWIDTH 614 0
DWIDTH 15 0
BBX 14 17 0 0
BITMAP
000B8000
000FC000
001FD000
002EE000
003DF000
0078B400
00B4B800
00F07C00
01E03D00
03D02E00
07C01F00
0B800F40
0F400B80
1F0007C0
2E0003D0
3FFFFFE0
7FFFFFF0
ENDCHAR
STARTCHAR Epsilon
ENCODING 917
SWIDTH 496 0
DWIDTH 12 0
BBX 9 17 2 0
BITMAP
FFFFC0
FFFF80
F00000
F00000
F00000
F00000
F00000
FFFF00
FFFF00
F00000
F00000
F00000
F00000
F00000
F00000
FFFFC0
FFFFC0
ENDCHAR
STARTCHAR Zeta
ENCODING 918
SWIDTH 522 0
DWIDTH 13 0
BBX 11 17 1 0
BITMAP
FFFFF4
BFFFF4
0002E0
0003D0
000B80
001F00
002D00
007C00
00F400
02E000
07C000
0B8000
1F0000
3D0000
780000
FFFFF4
FFFFF8
ENDCHAR
STARTCHAR Eta
ENCODING 919
SWIDTH 620 0
DWIDTH 15 0
BBX 11 17 2 0
BITMAP
F0003C
F0003C
F0003C
F0003C
F0003C
F0003C
F0003C
FFFFFC
FFFFFC
F0003C
F0003C
F0003C
F0003C
F0003C
F0003C
F0003C
F0003C
ENDCHAR
STARTCHAR Theta
ENCODING 920
SWIDTH 593 0
DWIDTH 14 0
BBX 12 17 1 0
BITMAP
01BE40
0BFFE0
1F41F4
3D007C
7C002D
B8002E
B4001E
B5FF9E
B5AA9F
B4001E
B4001E
B8002E
7C002D
3D007C
1F41F4
0BFFE0
01BE40
ENDCHAR
STARTCHAR Iota
ENCODING 921
SWIDTH 250 0
DWIDTH 6 0
BBX 2 17 2 0
BITMAP
F0
F0
F0
F0
F0
F0
F0
F0
F0
F0
F0
F0
F0
F0
F0
F0
F0
ENDCHAR
STARTCHAR Kappa
ENCODING 922
SWIDTH 544 0
DWIDTH 13 0
BBX 11 17 2 0
BITMAP
F001F4
F003D0
F00B80
F02F00
F07D00
F0F400
F2E000
F7D000
FFE000
FEF400
F8BC00
F03E00
F01F40
F00B80
F003D0
F001F0
F000F8
ENDCHAR
STARTCHAR Lambda
ENCODING 923
SWIDTH 572 0
DWIDTH 14 0
BBX 13 17 0 0
BITMAP
001F0000
002F4000
003F8000
007FC000
00BBC000
00B6D000
00F1E000
01E0F000
02D0B400
03C0B800
07C07C00
0B803D00
0F402E00
1F001F00
2E000F40
3D000B80
7C000780
ENDCHAR
STARTCHAR Mu
ENCODING 924
SWIDTH 755 0
DWIDTH 18 0
BBX 15 17 2 0
BITMAP
F80002F4
FC0003F4
FD0007F4
FE000BF4
FF000FB4
FB401EB4
F7802DB4
F3C03CB4
F2D078B4
F1E0B4F4
F0F0F0F4
F0B5E0F4
F079D0F4
F03EC0F4
F02F80F4
F01F40F4
F00F00F4
ENDCHAR
STARTCHAR Nu
ENCODING 925
SWIDTH 619 0
DWIDTH 15 0
BBX 11 17 2 0
BITMAP
F4003C
F8003C
FD003C
FE003C
FB403C
F7C03C
F2D03C
F0F03C
F0B43C
F03C3C
F02D3C
F00F7C
F00BBC
F003FC
F001FC
F000FC
F0007C
ENDCHAR
STARTCHAR Xi
ENCODING 926
SWIDTH 502 0
DWIDTH 12 0
BBX 10 17 1 0
BITMAP
BFFFE0
7FFFE0
000000
000000
000000
000000
000000
2FFF80
2FFF80
000000
000000
000000
000000
000000
000000
7FFFE0
BFFFE0
ENDCHAR
STARTCHAR Omicron
ENCODING 927
SWIDTH 600 0
DWIDTH 14 0
BBX 12 17 1 0
BITMAP
01BF80
0BFFF0
1F41B8
3D003D
7C002E
78001E
78001F
B8001F
B8001F
B8001F
B8001F
78001F
7C002E
3D003D
1F40BC
0BFFF4
01BF80
ENDCHAR
STARTCHAR Pi
ENCODING 928
SWIDTH 620 0
DWIDTH 15 0
BBX 11 17 2 0
BITMAP
FFFFFC
FFFFFC
F0007C
F0007C
F0007C
F0007C
F0007C
F0007C
F0007C
F0007C
F0007C
F0007C
F0007C
F0007C
F0007C
F0007C
F0007C
ENDCHAR
STARTCHAR Rho
ENCODING 929
SWIDTH 554 0
DWIDTH 13 0
BBX 11 17 2 0
BITMAP
FFFE00
FFFFC0
F007E0
F001F0
F000F4
F000B4
F000F4
F001F0
F007E0
FFFFC0
FFE900
F00000
F00000
F00000
F00000
F00000
F00000
ENDCHAR
STARTCHAR Sigma
ENCODING 931
SWIDTH 502 0
DWIDTH 12 0
BBX 10 17 1 0
BITMAP
FFFFE0
FFFFE0
BC0000
2E0000
1F4000
07C000
02E000
00F400
00B800
00F400
02E000
07C000
1F4000
2E0000
BC0000
FFFFF0
FFFFF0
ENDCHAR
STARTCHAR Tau
ENCODING 932
SWIDTH 520 0
DWIDTH 13 0
BBX 12 17 0 0
BITMAP
7FFFFE
7FFFFE
002D00
002D00
002D00
002D00
002D00
002D00
002D00
002D00
002D00
002D00
002D00
002D00
002D00
002D00
002D00
ENDCHAR
STARTCHAR Upsilon
ENCODING 933
SWIDTH 524 0
DWIDTH 13 0
BBX 12 17 0 0
BITMAP
7C001F
3D003E
2E007C
0F40B8
0B80F0
03C1E0
02D3D0
01F780
00BF40
007F00
003D00
002D00
002D00
002D00
002D00
002D00
002D00
ENDCHAR
STARTCHAR Phi
ENCODING 934
SWIDTH 621 0
DWIDTH 15 0
BBX 13 17 1 0
BITMAP
002E0000
002E0000
02FFE000
1FFFFD00
3E2E2F00
782E0B40
B42E0780
F42E07C0
F02E03C0
F42E07C0
B42E0780
782E0B40
3E2E6E00
0FFFFC00
01BF9000
002E0000
002E0000
ENDCHAR
STARTCHAR Chi
ENCODING 935
SWIDTH 550 0
DWIDTH 13 0
BBX 12 17 1 0
BITMAP
F8007C
7C00F8
2E01F0
1F03E0
0B87C0
07CF40
02FF00
00FD00
00BC00
01FD00
02EF00
07CB80
0B87C0
1F02E0
3E01F0
7C00B8
F8007D
ENDCHAR
STARTCHAR Psi
ENCODING 936
SWIDTH 600 0
DWIDTH 14 0
BBX 13 17 1 0
BITMAP
F03C0F40
F03C0F40
F03C0F40
F03C0F40
F03C0F40
F03C0F40
F43C0F40
F43C0F00
B83C1F00
7C3C2E00
3E7DBC00
0FFFF400
02BE8000
003C0000
003C0000
003C0000
003C0000
ENDCHAR
STARTCHAR Omega.dup2
ENCODING 937
SWIDTH 581 0
DWIDTH 14 0
BBX 12 17 1 0
BITMAP
01BE40
0BFFD0
1F41F0
3D00B8
7C003C
B8003D
B8002D
B4002D
B4002D
B8002D
B8003D
78003C
3C0078
2D00B4
0F41E0
BFDBFD
BFDBFD
ENDCHAR
STARTCHAR Iotadieresis
ENCODING 938
SWIDTH 250 0
DWIDTH 6 0
BBX 8 21 -1 0
BITMAP
1004
B82E
741E
0000
03C0
03C0
03C0
03C0
03C0
03C0
03C0
03C0
03C0
03C0
03C0
03C0
03C0
03C0
03C0
03C0
03C0
ENDCHAR
STARTCHAR Upsilondieresis
ENCODING 939
SWIDTH 524 0
DWIDTH 13 0
BBX 12 21 0 0
BITMAP
014050
07C1F0
0781E0
000000
7C001F
3D003E
2E007C
0F40B8
0B80F0
03C1E0
02D3D0
01F780
00BF40
007F00
003D00
002D00
002D00
002D00
002D00
002D00
002D00
ENDCHAR
STARTCHAR alphatonos
ENCODING 940
SWIDTH 494 0
DWIDTH 12 0
BBX 11 19 1 0
BITMAP
003C00
003800
007400
007000
000000
000000
07E6D0
1FFED0
3D0BD0
7803D0
B402D0
B402D0
B402D0
B402D0
B402D0
B803D0
3D0BD0
2FBEF4
07E4B4
ENDCHAR
STARTCHAR epsilontonos
ENCODING 941
SWIDTH 470 0
DWIDTH 11 0
BBX 9 19 1 0
BITMAP
00B400
00B000
00E000
009000
000000
000000
0BF900
3FBF40
B80B80
B40140
7D0000
1FF800
2FA400
B80000
B40000
B403C0
B80BC0
3FBF40
0BF900
ENDCHAR
STARTCHAR etatonos
ENCODING 942
SWIDTH 498 0
DWIDTH 12 0
BBX 10 24 1 -5
BITMAP
007800
00B400
00B000
00A000
000000
000000
79BE00
7BFF80
7D07C0
7803C0
7803D0
7802D0
7802D0
7802D0
7802D0
7802D0
7802D0
7802D0
7802D0
0002D0
0002D0
0002D0
0002D0
0002D0
ENDCHAR
STARTCHAR iotatonos
ENCODING 943
SWIDTH 299 0
DWIDTH 7 0
BBX 5 19 2 0
BITMAP
3C00
3800
7400
6000
0000
0000
B400
B400
B400
B400
B400
B400
B400
B400
B400
B400
B400
7F40
2F00
ENDCHAR
STARTCHAR upsilondieresistonos
ENCODING 944
SWIDTH 480 0
DWIDTH 12 0
BBX 10 20 1 0
BITMAP
00B400
00E000
149100
780B80
780740
000000
000000
780B40
780780
7807C0
7803C0
7803D0
7802D0
7802D0
7803D0
7803C0
7C07C0
3D0F40
1FBE00
07F800
ENDCHAR
STARTCHAR alpha
ENCODING 945
SWIDTH 494 0
DWIDTH 12 0
BBX 11 13 1 0
BITMAP
07E6D0
1FFED0
3D0BD0
7803D0
B402D0
B402D0
B402D0
B402D0
B402D0
B803D0
3D0BD0
2FBEF4
07E4B4
ENDCHAR
STARTCHAR beta
ENCODING 946
SWIDTH 517 0
DWIDTH 12 0
BBX 10 22 1 -5
BITMAP
02F900
0FFF80
2E07C0
3C02D0
7C02D0
7802D0
7807C0
78BF00
786F80
7802D0
7801F0
7800F0
7800F0
7801F0
7D02E0
7FEFC0
7DBE00
780000
780000
780000
780000
780000
ENDCHAR
STARTCHAR gamma
ENCODING 947
SWIDTH 444 0
DWIDTH 11 0
BBX 9 18 1 -5
BITMAP
F003C0
F40780
B80B40
780F00
3C1E00
2D2D00
1E2C00
0F3C00
0BB800
07F400
03F000
02E000
02D000
02D000
02D000
02D000
02D000
02D000
ENDCHAR
STARTCHAR delta
ENCODING 948
SWIDTH 498 0
DWIDTH 12 0
BBX 10 18 1 0
BITMAP
06F900
0FFE00
1E0100
2E0000
1F4000
0BE400
07FE00
1E5F80
3C07C0
7802D0
B401E0
B401E0
B401E0
B401E0
7802D0
3D07C0
1FFF40
06F900
ENDCHAR
STARTCHAR epsilon
ENCODING 949
SWIDTH 470 0
DWIDTH 11 0
BBX 9 13 1 0
BITMAP
0BF900
3FBF40
B80B80
B40140
7D0000
1FF800
2FA400
B80000
B40000
B403C0
B80BC0
3FBF40
0BF900
ENDCHAR
STARTCHAR zeta
ENCODING 950
SWIDTH 462 0
DWIDTH 11 0
BBX 9 21 1 -4
BITMAP
BFFFC0
6AAF80
000B40
002E00
007800
00F400
02E000
07C000
0B4000
1E0000
2D0000
2D0000
3D0000
2D0000
2E0000
1FE400
06FE00
001F40
000B40
000E00
000800
ENDCHAR
STARTCHAR eta
ENCODING 951
SWIDTH 498 0
DWIDTH 12 0
BBX 10 18 1 -5
BITMAP
79BE00
7BFF80
7D07C0
7803C0
7803D0
7802D0
7802D0
7802D0
7802D0
7802D0
7802D0
7802D0
7802D0
0002D0
0002D0
0002D0
0002D0
0002D0
ENDCHAR
STARTCHAR theta
ENCODING 952
SWIDTH 496 0
DWIDTH 12 0
BBX 10 17 1 0
BITMAP
06F800
1FFF00
2D0B80
3C03C0
7802D0
B402D0
B402D0
BFFFE0
BEABE0
B402E0
B402D0
B802D0
7803D0
3C03C0
2E0B80
0FFF00
06F800
ENDCHAR
STARTCHAR iota
ENCODING 953
SWIDTH 299 0
DWIDTH 7 0
BBX 5 13 2 0
BITMAP
B400
B400
B400
B400
B400
B400
B400
B400
B400
B400
B400
7F40
2F00
ENDCHAR
STARTCHAR kappa
ENCODING 954
SWIDTH 491 0
DWIDTH 12 0
BBX 10 13 1 0
BITMAP
7803D0
780B80
782E00
787C00
78F400
7FE000
7FE000
78F400
787C00
782E00
780F40
7807C0
7803E0
ENDCHAR
STARTCHAR lambda
ENCODING 955
SWIDTH 485 0
DWIDTH 12 0
BBX 11 18 0 0
BITMAP
0F4000
0FC000
03D000
01E000
00F000
00B400
00F800
00FC00
01FD00
02EE00
03CF00
078B40
0B4780
0F03C0
1E02D0
2E01E0
3D00F8
7C0078
ENDCHAR
STARTCHAR uni03BC
ENCODING 956
SWIDTH 498 0
DWIDTH 12 0
BBX 10 18 1 -5
BITMAP
7803D0
7803D0
7803D0
7803D0
7803D0
7803D0
7803D0
7803D0
7C03D0
7C03D0
7D07D0
7FFFD0
7EF6D0
780000
780000
780000
780000
780000
ENDCHAR
STARTCHAR nu
ENCODING 957
SWIDTH 427 0
DWIDTH 10 0
BBX 10 13 0 0
BITMAP
7802E0
3C02D0
2D03C0
1E0780
0E0B40
0F0B00
0B4E00
079D00
03AD00
02FC00
01F800
00F400
00B000
ENDCHAR
STARTCHAR xi
ENCODING 958
SWIDTH 431 0
DWIDTH 10 0
BBX 9 22 1 -5
BITMAP
06FE00
1FEF00
3E0000
3C0000
7C0000
3C0000
1E4000
07FD00
0BF900
3D0000
780000
B40000
B40000
B40000
7C0000
3F4000
0BF900
006F40
000B40
000B40
000F00
000900
ENDCHAR
STARTCHAR omicron
ENCODING 959
SWIDTH 501 0
DWIDTH 12 0
BBX 10 13 1 0
BITMAP
06F900
1FFF40
3D07D0
B802E0
B401E0
F401F0
F400F0
F401F0
B401E0
B802E0
3D07D0
1FFF40
06F900
ENDCHAR
STARTCHAR pi
ENCODING 960
SWIDTH 520 0
DWIDTH 12 0
BBX 12 13 0 0
BITMAP
7FFFFD
6FEAF9
0B40F0
0B40F0
0B40F0
0B40F0
0B40F0
0B40F0
0B40F0
0B40F0
0B40F4
0B40BF
0B402E
ENDCHAR
STARTCHAR rho
ENCODING 961
SWIDTH 498 0
DWIDTH 12 0
BBX 10 18 1 -5
BITMAP
02F900
0FFF40
2E07C0
3D03D0
7C02D0
7801E0
7801E0
7801E0
7801E0
7802D0
7D07C0
7FFF40
79FD00
780000
780000
780000
780000
780000
ENDCHAR
STARTCHAR sigma1
ENCODING 962
SWIDTH 472 0
DWIDTH 11 0
BBX 9 17 1 -4
BITMAP
06F800
1FFF00
3D0B80
7803C0
B40280
B40000
B40000
B40000
B80000
7C0000
2F4000
0FE400
01FF00
001B40
000B40
000E00
000900
ENDCHAR
STARTCHAR sigma
ENCODING 963
SWIDTH 498 0
DWIDTH 12 0
BBX 11 13 1 0
BITMAP
06FFF8
1FFFA4
3D0740
7803C0
B402D0
B401E0
B401E0
B401E0
B402E0
7802D0
3D07C0
1FFF40
06F900
ENDCHAR
STARTCHAR tau
ENCODING 964
SWIDTH 460 0
DWIDTH 11 0
BBX 9 13 1 0
BITMAP
FFFFC0
ABFA80
02D000
02D000
02D000
02D000
02D000
02D000
02D000
02D000
02E000
01FD00
00BD00
ENDCHAR
STARTCHAR upsilon
ENCODING 965
SWIDTH 480 0
DWIDTH 12 0
BBX 10 13 1 0
BITMAP
780B40
780780
7807C0
7803C0
7803D0
7802D0
7802D0
7803D0
7803C0
7C07C0
3D0F40
1FBE00
07F800
ENDCHAR
STARTCHAR phi
ENCODING 966
SWIDTH 617 0
DWIDTH 15 0
BBX 13 19 1 -6
BITMAP
080BE000
2D1FFC00
7C2D2E00
B82D0F40
F42D0B80
F02D0780
F02D0780
F42D0780
B82D0B80
7C2D1F40
3E2D7E00
0FFFF800
02FF9000
002D0000
002D0000
002D0000
002D0000
002D0000
002D0000
ENDCHAR
STARTCHAR chi
ENCODING 967
SWIDTH 438 0
DWIDTH 11 0
BBX 11 18 0 -5
BITMAP
7901F0
7F02D0
0B43C0
078780
02DB40
01EF00
00FE00
00BC00
007800
00BC00
00FD00
02FE00
03DF00
078B40
0B4780
0F03D0
2E01FC
3D00B8
ENDCHAR
STARTCHAR psi
ENCODING 968
SWIDTH 612 0
DWIDTH 15 0
BBX 13 19 1 -6
BITMAP
F02D1E00
F02D0F00
F02D0F40
F02D0B80
F02D0780
F02D0780
F42D0780
B42D0B80
B82D0B40
7C2D1F00
2E2D7E00
0FFFF800
02FF9000
002D0000
002D0000
002D0000
002D0000
002D0000
002D0000
ENDCHAR
STARTCHAR omega
ENCODING 969
SWIDTH 711 0
DWIDTH 17 0
BBX 15 13 1 0
BITMAP
2E0002E0
3D0001F0
3C0000F4
780140B4
B80B80B8
B80B8078
B40B8078
B80B8078
780B80B4
7C0FC0B4
3D1ED1F0
1FBCFFD0
07E02F40
ENDCHAR
STARTCHAR iotadieresis
ENCODING 970
SWIDTH 299 0
DWIDTH 7 0
BBX 8 18 -1 0
BITMAP
1405
7C1F
781E
0000
0000
02D0
02D0
02D0
02D0
02D0
02D0
02D0
02D0
02D0
02D0
02D0
01FD
00BC
ENDCHAR
STARTCHAR upsilondieresis
ENCODING 971
SWIDTH 480 0
DWIDTH 12 0
BBX 10 18 1 0
BITMAP
140500
3D0F40
2D0B40
000000
000000
780B40
780780
7807C0
7803C0
7803D0
7802D0
7802D0
7803D0
7803C0
7C07C0
3D0F40
1FBE00
07F800
ENDCHAR
STARTCHAR omicrontonos
ENCODING 972
SWIDTH 501 0
DWIDTH 12 0
BBX 10 19 1 0
BITMAP
007800
00B400
00B000
00A000
000000
000000
06F900
1FFF40
3D07D0
B802E0
B401E0
F401F0
F400F0
F401F0
B401E0
B802E0
3D07D0
1FFF40
06F900
ENDCHAR
STARTCHAR upsilontonos
ENCODING 973
SWIDTH 480 0
DWIDTH 12 0
BBX 10 19 1 0
BITMAP
00B400
00F000
00E000
009000
000000
000000
780B40
780780
7807C0
7803C0
7803D0
7802D0
7802D0
7803D0
7803C0
7C07C0
3D0F40
1FBE00
07F800
ENDCHAR
STARTCHAR omegatonos
ENCODING 974
SWIDTH 711 0
DWIDTH 17 0
BBX 15 19 1 0
BITMAP
0002D000
0003C000
00038000
00024000
00000000
00000000
2E0002E0
3D0001F0
3C0000F4
780140B4
B80B80B8
B80B8078
B40B8078
B80B8078
780B80B4
7C0FC0B4
3D1ED1F0
1FBCFFD0
07E02F40
ENDCHAR
STARTCHAR theta1
ENCODING 977
SWIDTH 507 0
DWIDTH 12 0
BBX 11 17 1 0
BITMAP
00BE00
03FF80
0787C0
0B83C0
0B83D0
0783D0
03D3D0
01F7D0
B4BFF4
B41BE4
B403D0
B403D0
B803C0
7803C0
3D0B80
1FFF00
06F900
ENDCHAR
STARTCHAR Upsilon1
ENCODING 978
SWIDTH 465 0
DWIDTH 11 0
BBX 12 17 0 0
BITMAP
F4007D
FD00FC
2E01F0
1F02D0
0B43C0
078B80
03CF40
02EE00
01FD00
00BC00
007800
007800
007800
007800
007800
007800
007800
ENDCHAR
STARTCHAR omega1
ENCODING 982
SWIDTH 678 0
DWIDTH 16 0
BBX 15 13 1 0
BITMAP
FFFFFFF8
BFAAABF4
3D0002D0
7C0002E0
780F41E0
780F41F0
780F41F0
780F41F0
780F41E0
7C0F81E0
3D2EC3D0
1FF9FF80
07E07E00
ENDCHAR
STARTCHAR uni0400
ENCODING 1024
SWIDTH 496 0
DWIDTH 12 0
BBX 9 21 2 0
BITMAP
2E0000
0B8000
029000
000000
FFFFC0
FFFF80
F00000
F00000
F00000
F00000
F00000
FFFF00
FFFF00
F00000
F00000
F00000
F00000
F00000
F00000
FFFFC0
FFFFC0
ENDCHAR
STARTCHAR uni0401
ENCODING 1025
SWIDTH 496 0
DWIDTH 12 0
BBX 9 21 2 0
BITMAP
140500
7C1F00
781E00
000000
FFFFC0
FFFF80
F00000
F00000
F00000
F00000
F00000
FFFF00
FFFF00
F00000
F00000
F00000
F00000
F00000
F00000
FFFFC0
FFFFC0
ENDCHAR
STARTCHAR uni0402
ENCODING 1026
SWIDTH 650 0
DWIDTH 16 0
BBX 15 17 0 0
BITMAP
7FFFFE00
7FFFFE00
00780000
00780000
00780000
00780000
00780000
007EFE40
007FFFD0
007D02F0
007800F4
007800B8
007800B8
007800B4
007801F4
00781FE0
00781E40
ENDCHAR
STARTCHAR uni0403
ENCODING 1027
SWIDTH 487 0
DWIDTH 12 0
BBX 9 21 2 0
BITMAP
003E00
00B800
01D000
000000
FFFF80
FFFF80
F00000
F00000
F00000
F00000
F00000
F00000
F00000
F00000
F00000
F00000
F00000
F00000
F00000
F00000
F00000
ENDCHAR
STARTCHAR uni0404
ENCODING 1028
SWIDTH 589 0
DWIDTH 14 0
BBX 12 17 1 0
BITMAP
01BF80
07FFF0
1F40B8
2D003C
3C002D
780019
780000
BFFF00
BFFF00
B80000
B80000
780019
7C002D
2E003C
1F40B8
07FFF0
01BF80
ENDCHAR
STARTCHAR uni0405
ENCODING 1029
SWIDTH 518 0
DWIDTH 12 0
BBX 11 17 1 0
BITMAP
06FE00
1FFFC0
3E02E0
7800F4
B800B4
7C0010
3E0000
1FE400
06FE40
006FD0
0002F0
5000F4
F400B4
B800F4
7D02F0
1FFFD0
06FE40
ENDCHAR
STARTCHAR uni0406
ENCODING 1030
SWIDTH 250 0
DWIDTH 6 0
BBX 2 17 2 0
BITMAP
F0
F0
F0
F0
F0
F0
F0
F0
F0
F0
F0
F0
F0
F0
F0
F0
F0
ENDCHAR
STARTCHAR uni0407
ENCODING 1031
SWIDTH 250 0
DWIDTH 6 0
BBX 8 21 -1 0
BITMAP
1004
B82E
741E
0000
03C0
03C0
03C0
03C0
03C0
03C0
03C0
03C0
03C0
03C0
03C0
03C0
03C0
03C0
03C0
03C0
03C0
ENDCHAR
STARTCHAR uni0408
ENCODING 1032
SWIDTH 483 0
DWIDTH 12 0
BBX 10 17 0 0
BITMAP
0001F0
0001F0
0001F0
0001F0
0001F0
0001F0
0001F0
0001F0
0001F0
0001F0
0001F0
0001F0
7C01E0
3C02E0
3E07D0
1FFF80
06FD00
ENDCHAR
STARTCHAR uni0409
ENCODING 1033
SWIDTH 923 0
DWIDTH 22 0
BBX 21 17 0 0
BITMAP
01FFFFC00000
01FFFFC00000
01F007C00000
01E007C00000
01E007C00000
01E007C00000
01E007C00000
01E007FFF800
01E007FFFF00
02E007C01F80
02E007C007C0
02D007C003C0
02D007C003C0
03C007C007C0
0B8007C01F80
7F4007FFFF00
790007FFF800
ENDCHAR
STARTCHAR uni040A
ENCODING 1034
SWIDTH 927 0
DWIDTH 22 0
BBX 20 17 2 0
BITMAP
F0007C0000
F0007C0000
F0007C0000
F0007C0000
F0007C0000
F0007C0000
F0007C0000
FFFFFFFF80
FFFFFFFFF0
F0007C00B8
F0007C007C
F0007C003D
F0007C003D
F0007C007C
F0007C01F8
F0007FFFF0
F0007FFF80
ENDCHAR
STARTCHAR uni040B
ENCODING 1035
SWIDTH 705 0
DWIDTH 17 0
BBX 14 17 1 0
BITMAP
FFFFFC00
FFFFFC00
01F00000
01F00000
01F00000
01F00000
01FBFE00
01FFFF80
01F407D0
01F001E0
01F001F0
01F001F0
01F001F0
01F001F0
01F001F0
01F001F0
01F001F0
ENDCHAR
STARTCHAR uni040C
ENCODING 1036
SWIDTH 544 0
DWIDTH 13 0
BBX 11 21 2 0
BITMAP
007D00
01F400
02D000
000000
F001F4
F003D0
F00B80
F02F00
F07D00
F0F400
F2E000
F7D000
FFE000
FEF400
F8BC00
F03E00
F01F40
F00B80
F003D0
F001F0
F000F8
ENDCHAR
STARTCHAR uni040D
ENCODING 1037
SWIDTH 619 0
DWIDTH 15 0
BBX 11 21 2 0
BITMAP
0B8000
02E000
00A400
000000
F000BC
F000FC
F002FC
F003FC
F00BBC
F00F7C
F02D7C
F03C7C
F0B47C
F0F07C
F2D07C
F7C07C
FB407C
FF007C
FD007C
FC007C
F4007C
ENDCHAR
STARTCHAR uni040E
ENCODING 1038
SWIDTH 547 0
DWIDTH 13 0
BBX 11 23 1 0
BITMAP
050140
0B02C0
079B80
01BD00
000000
000000
B8007C
7C00B8
3D00F4
2E01F0
1F02E0
0F43D0
0787C0
03CB80
02DF40
01FF00
00FE00
00BD00
007C00
00B800
00F000
0FE000
0F8000
ENDCHAR
STARTCHAR uni040F
ENCODING 1039
SWIDTH 621 0
DWIDTH 15 0
BBX 11 21 2 -4
BITMAP
F0007C
F0007C
F0007C
F0007C
F0007C
F0007C
F0007C
F0007C
F0007C
F0007C
F0007C
F0007C
F0007C
F0007C
F0007C
FFFFFC
FFFFFC
00B800
00B800
00B800
00B800
ENDCHAR
STARTCHAR uni0410
ENCODING 1040
SWIDTH 576 0
DWIDTH 14 0
BBX 14 17 0 0
BITMAP
000F0000
001F4000
002F8000
003BC000
0076D000
00B5E000
00F0F000
01E0B400
02D07800
03C07C00
07803D00
0BFFFE00
0FFFFF00
1E000F40
2E000B80
3D0007C0
7C0003D0
ENDCHAR
STARTCHAR uni0411
ENCODING 1041
SWIDTH 549 0
DWIDTH 13 0
BBX 12 17 1 0
BITMAP
7FFFE0
7FFFE0
7C0000
7C0000
7C0000
7C0000
7C0000
7FFF80
7FFFF0
7C00B8
7C007C
7C003D
7C003D
7C007C
7C00B8
7FFFF0
7FFF80
ENDCHAR
STARTCHAR uni0412
ENCODING 1042
SWIDTH 545 0
DWIDTH 13 0
BBX 10 17 2 0
BITMAP
FFF900
FFFF80
F007C0
F003D0
F002D0
F003D0
F00B80
FFFE00
FABF40
F007C0
F002E0
F001E0
F002E0
F002E0
F007D0
FFFF80
FFF900
ENDCHAR
STARTCHAR uni0413
ENCODING 1043
SWIDTH 487 0
DWIDTH 12 0
BBX 9 17 2 0
BITMAP
FFFF80
FFFF80
F00000
F00000
F00000
F00000
F00000
F00000
F00000
F00000
F00000
F00000
F00000
F00000
F00000
F00000
F00000
ENDCHAR
STARTCHAR uni0414
ENCODING 1044
SWIDTH 660 0
DWIDTH 16 0
BBX 15 21 0 -4
BITMAP
00BFFFC0
00FFFFC0
00F403C0
00F403C0
00F403C0
00F003C0
00F003C0
00F003C0
01F003C0
01F003C0
01E003C0
02E003C0
03D003C0
07C003C0
0B8003C0
7FFFFFFC
7FFFFFFC
7800003C
7800003C
7800003C
7800003C
ENDCHAR
STARTCHAR uni0415
ENCODING 1045
SWIDTH 496 0
DWIDTH 12 0
BBX 9 17 2 0
BITMAP
FFFFC0
FFFF80
F00000
F00000
F00000
F00000
F00000
FFFF00
FFFF00
F00000
F00000
F00000
F00000
F00000
F00000
FFFFC0
FFFFC0
ENDCHAR
STARTCHAR uni0416
ENCODING 1046
SWIDTH 791 0
DWIDTH 19 0
BBX 19 17 0 0
BITMAP
2E007802F0
1F407803D0
0B80780B80
03D0780F40
02E0782E00
00F4783C00
007878B800
003FFFF000
007FFFF400
00B878BC00
01F4783D00
02E0782F00
07D0780F40
0B80780BC0
1F407807D0
2F007802F0
7D007801F4
ENDCHAR
STARTCHAR uni0417
ENCODING 1047
SWIDTH 517 0
DWIDTH 12 0
BBX 11 17 1 0
BITMAP
06FE00
2FFFD0
7D02E0
B801F0
6400F0
0001F0
0006D0
01FF40
01FF80
0002E0
0000F0
0000B4
A000F4
F400F0
7D02E0
2FFFC0
06FE00
ENDCHAR
STARTCHAR uni0418
ENCODING 1048
SWIDTH 619 0
DWIDTH 15 0
BBX 11 17 2 0
BITMAP
F000BC
F000FC
F002FC
F003FC
F00BBC
F00F7C
F02D7C
F03C7C
F0B47C
F0F07C
F2D07C
F7C07C
FB407C
FF007C
FD007C
FC007C
F4007C
ENDCHAR
STARTCHAR uni0419
ENCODING 1049
SWIDTH 619 0
DWIDTH 15 0
BBX 11 23 2 0
BITMAP
050140
0F0380
079B40
01F900
000000
000000
F000BC
F000FC
F002FC
F003FC
F00BBC
F00F7C
F02D7C
F03C7C
F0B47C
F0F07C
F2D07C
F7C07C
FB407C
FF007C
FD007C
FC007C
F4007C
ENDCHAR
STARTCHAR uni041A
ENCODING 1050
SWIDTH 560 0
DWIDTH 13 0
BBX 11 17 2 0
BITMAP
F001F8
F002E0
F00BC0
F01F40
F03E00
F0BC00
F1F400
FFE000
FFF000
F0F800
F07D00
F02E00
F00F40
F007C0
F003E0
F001F4
F000BC
ENDCHAR
STARTCHAR uni041B
ENCODING 1051
SWIDTH 615 0
DWIDTH 15 0
BBX 13 17 0 0
BITMAP
01FFFF80
01FFFF80
01F00780
01E00780
01E00780
01E00780
01E00780
01E00780
01E00780
01E00780
02E00780
02D00780
02D00780
03C00780
0B800780
7F400780
79000780
ENDCHAR
STARTCHAR uni041C
ENCODING 1052
SWIDTH 755 0
DWIDTH 18 0
BBX 15 17 2 0
BITMAP
F80002F4
FC0003F4
FD0007F4
FE000BF4
FF000FB4
FB401EB4
F7802DB4
F3C03CB4
F2D078B4
F1E0B4F4
F0F0F0F4
F0B5E0F4
F079D0F4
F03EC0F4
F02F80F4
F01F40F4
F00F00F4
ENDCHAR
STARTCHAR uni041D
ENCODING 1053
SWIDTH 620 0
DWIDTH 15 0
BBX 11 17 2 0
BITMAP
F0003C
F0003C
F0003C
F0003C
F0003C
F0003C
F0003C
FFFFFC
FFFFFC
F0003C
F0003C
F0003C
F0003C
F0003C
F0003C
F0003C
F0003C
ENDCHAR
STARTCHAR uni041E
ENCODING 1054
SWIDTH 600 0
DWIDTH 14 0
BBX 12 17 1 0
BITMAP
01BF80
0BFFF0
1F41B8
3D003D
7C002E
78001E
78001F
B8001F
B8001F
B8001F
B8001F
78001F
7C002E
3D003D
1F40BC
0BFFF4
01BF80
ENDCHAR
STARTCHAR uni041F
ENCODING 1055
SWIDTH 620 0
DWIDTH 15 0
BBX 11 17 2 0
BITMAP
FFFFFC
FFFFFC
F0007C
F0007C
F0007C
F0007C
F0007C
F0007C
F0007C
F0007C
F0007C
F0007C
F0007C
F0007C
F0007C
F0007C
F0007C
ENDCHAR
STARTCHAR uni0420
ENCODING 1056
SWIDTH 554 0
DWIDTH 13 0
BBX 11 17 2 0
BITMAP
FFFE00
FFFFC0
F007E0
F001F0
F000F4
F000B4
F000F4
F001F0
F007E0
FFFFC0
FFE900
F00000
F00000
F00000
F00000
F00000
F00000
ENDCHAR
STARTCHAR uni0421
ENCODING 1057
SWIDTH 566 0
DWIDTH 14 0
BBX 12 17 1 0
BITMAP
01BF80
0BFFF0
1F40B8
3D003C
7C002D
780019
B80000
B80000
B80000
B80000
B80000
780019
7C002D
3D003C
1F40B8
0BFFF0
01BF80
ENDCHAR
STARTCHAR uni0422
ENCODING 1058
SWIDTH 520 0
DWIDTH 13 0
BBX 12 17 0 0
BITMAP
7FFFFE
7FFFFE
002D00
002D00
002D00
002D00
002D00
002D00
002D00
002D00
002D00
002D00
002D00
002D00
002D00
002D00
002D00
ENDCHAR
STARTCHAR uni0423
ENCODING 1059
SWIDTH 547 0
DWIDTH 13 0
BBX 11 17 1 0
BITMAP
B8007C
7C00B8
3D00F4
2E01F0
1F02E0
0F43D0
0787C0
03CB80
02DF40
01FF00
00FE00
00BD00
007C00
00B800
00F000
0FE000
0F8000
ENDCHAR
STARTCHAR uni0424
ENCODING 1060
SWIDTH 676 0
DWIDTH 16 0
BBX 15 19 1 -1
BITMAP
000F4000
000F4000
01BFF800
0BEFBF00
1E0F4B80
3C0F42D0
780F41E0
B40F40F0
F40F40F4
F00F40B4
F40F40F4
B40F40F0
780F41E0
3C0F42D0
1E0F4B80
0BEFFF00
01BFF800
000F4000
000F4000
ENDCHAR
STARTCHAR uni0425
ENCODING 1061
SWIDTH 550 0
DWIDTH 13 0
BBX 12 17 1 0
BITMAP
F8007C
7C00F8
2E01F0
1F03E0
0B87C0
07CF40
02FF00
00FD00
00BC00
01FD00
02EF00
07CB80
0B87C0
1F02E0
3E01F0
7C00B8
F8007D
ENDCHAR
STARTCHAR uni0426
ENCODING 1062
SWIDTH 639 0
DWIDTH 15 0
BBX 13 21 2 -4
BITMAP
F0007C00
F0007C00
F0007C00
F0007C00
F0007C00
F0007C00
F0007C00
F0007C00
F0007C00
F0007C00
F0007C00
F0007C00
F0007C00
F0007C00
F0007C00
FFFFFF40
FFFFFF40
00000B40
00000B40
00000B40
00000B40
ENDCHAR
STARTCHAR uni0427
ENCODING 1063
SWIDTH 600 0
DWIDTH 14 0
BBX 12 17 1 0
BITMAP
78002D
78002D
78002D
78002D
78002D
78002D
7C002D
3C002D
2E417D
1FFFFD
02BA6D
00002D
00002D
00002D
00002D
00002D
00002D
ENDCHAR
STARTCHAR uni0428
ENCODING 1064
SWIDTH 814 0
DWIDTH 20 0
BBX 16 17 2 0
BITMAP
F007C02E
F007C02E
F007C02E
F007C02E
F007C02E
F007C02E
F007C02E
F007C02E
F007C02E
F007C02E
F007C02E
F007C02E
F007C02E
F007C02E
F007C02E
FFFFFFFE
FFFFFFFE
ENDCHAR
STARTCHAR uni0429
ENCODING 1065
SWIDTH 841 0
DWIDTH 20 0
BBX 17 21 2 -4
BITMAP
F007C02E00
F007C02E00
F007C02E00
F007C02E00
F007C02E00
F007C02E00
F007C02E00
F007C02E00
F007C02E00
F007C02E00
F007C02E00
F007C02E00
F007C02E00
F007C02E00
F007C02E00
FFFFFFFF80
FFFFFFFFC0
00000003C0
00000003C0
00000003C0
00000003C0
ENDCHAR
STARTCHAR uni042A
ENCODING 1066
SWIDTH 651 0
DWIDTH 16 0
BBX 15 17 0 0
BITMAP
BFF40000
6AF40000
00B40000
00B40000
00B40000
00B40000
00B40000
00BFFE40
00BFFFE0
00B401F4
00B400B8
00B400B8
00B400B8
00B400B8
00B401F4
00BFFFD0
00BFFE40
ENDCHAR
STARTCHAR uni042B
ENCODING 1067
SWIDTH 755 0
DWIDTH 18 0
BBX 14 17 2 0
BITMAP
F00000F0
F00000F0
F00000F0
F00000F0
F00000F0
F00000F0
F00000F0
FFFE40F0
FFFFD0F0
F002F0F0
F000F4F0
F000B4F0
F000B4F0
F000F4F0
F002F0F0
FFFFD0F0
FFFE40F0
ENDCHAR
STARTCHAR uni042C
ENCODING 1068
SWIDTH 551 0
DWIDTH 13 0
BBX 12 17 1 0
BITMAP
7C0000
7C0000
7C0000
7C0000
7C0000
7C0000
7C0000
7FFF80
7FFFF0
7C00B8
7C007C
7C003D
7C003D
7C007C
7C00B8
7FFFF0
7FFF80
ENDCHAR
STARTCHAR uni042D
ENCODING 1069
SWIDTH 589 0
DWIDTH 14 0
BBX 11 17 2 0
BITMAP
06F900
2FFF80
7D07E0
F400F0
F000B4
A00078
000078
02FFFC
02FFFC
00007C
000078
5000B8
F000B4
F401F0
7D07E0
2FFF80
06F900
ENDCHAR
STARTCHAR uni042E
ENCODING 1070
SWIDTH 765 0
DWIDTH 18 0
BBX 16 17 2 0
BITMAP
F002FE40
F01FFFE0
F03E01F4
F07C007C
F0B4003D
F0F4002D
F0F0002D
FFF0002D
FAF0002D
F0F0002D
F0F0002D
F0B4002D
F0B4003D
F07C007C
F02E01F4
F00FFFE0
F002FE40
ENDCHAR
STARTCHAR uni042F
ENCODING 1071
SWIDTH 562 0
DWIDTH 14 0
BBX 11 17 1 0
BITMAP
02FFF4
0FFFF4
2E00B4
3D00B4
7C00B4
7C00B4
7C00B4
3D00B4
1F40B4
0BFFF4
02FFF4
07C0B4
0B80B4
1F00B4
2E00B4
7C00B4
B800B4
ENDCHAR
STARTCHAR uni0430
ENCODING 1072
SWIDTH 479 0
DWIDTH 12 0
BBX 9 13 1 0
BITMAP
06F900
2FBF00
7C0B80
640780
000780
06FF80
2FAB80
7C0780
B80780
B40780
781FC0
3FFBC0
1BE3C0
ENDCHAR
STARTCHAR uni0431
ENCODING 1073
SWIDTH 484 0
DWIDTH 12 0
BBX 10 18 1 0
BITMAP
0002C0
001B80
02FF40
0BE400
1E0000
380000
76F900
BBFF40
BD07C0
B802D0
B401E0
B401E0
B401E0
B401E0
7802D0
3D07C0
1FFF40
06F900
ENDCHAR
STARTCHAR uni0432
ENCODING 1074
SWIDTH 503 0
DWIDTH 12 0
BBX 10 13 1 0
BITMAP
7FFE00
7EAFC0
7803D0
7802D0
7807C0
7FFF40
7EAF80
7802E0
7801E0
7801E0
7802E0
7EAFC0
7FFE40
ENDCHAR
STARTCHAR uni0433
ENCODING 1075
SWIDTH 371 0
DWIDTH 9 0
BBX 8 13 1 0
BITMAP
7FFE
7EA9
7800
7800
7800
7800
7800
7800
7800
7800
7800
7800
7800
ENDCHAR
STARTCHAR uni0434
ENCODING 1076
SWIDTH 536 0
DWIDTH 13 0
BBX 12 17 0 -4
BITMAP
02FFF8
02FFF8
02D0B8
02D0B8
02D0B8
02D0B8
02D0B8
03C0B8
03C0B8
0780B8
0F40B8
7FAAFE
7FFFFF
78000F
78000F
78000F
78000F
ENDCHAR
STARTCHAR uni0435
ENCODING 1077
SWIDTH 468 0
DWIDTH 11 0
BBX 10 13 1 0
BITMAP
06F900
1FFF40
3D0B80
B803C0
B402D0
BFFFD0
FAAA90
F40000
B40000
B80000
7D0280
2FEF80
06F900
ENDCHAR
STARTCHAR uni0436
ENCODING 1078
SWIDTH 662 0
DWIDTH 16 0
BBX 15 13 0 0
BITMAP
3D03C0B8
1F03C0F4
0B43C2E0
07C3C3C0
02D3CB80
00FFFF00
01FFFF00
02D3CB80
07C3C3C0
0B83C2E0
1F03C1F0
2E03C0F8
7D03C07C
ENDCHAR
STARTCHAR uni0437
ENCODING 1079
SWIDTH 446 0
DWIDTH 11 0
BBX 9 13 1 0
BITMAP
0BF800
3FBE00
B80F40
A40B40
001F00
07FD00
06FE00
000F40
000B40
F40B40
B80F40
7FBE00
0BF800
ENDCHAR
STARTCHAR uni0438
ENCODING 1080
SWIDTH 509 0
DWIDTH 12 0
BBX 10 13 1 0
BITMAP
7802D0
7807D0
780BD0
781FD0
782ED0
7876D0
78B2D0
79D2D0
7AC2D0
7F82D0
7F02D0
7E02D0
7C02D0
ENDCHAR
STARTCHAR uni0439
ENCODING 1081
SWIDTH 509 0
DWIDTH 12 0
BBX 10 19 1 0
BITMAP
040140
1E0740
0B9F00
02F900
000000
000000
7802D0
7807D0
780BD0
781FD0
782ED0
7876D0
78B2D0
79D2D0
7AC2D0
7F82D0
7F02D0
7E02D0
7C02D0
ENDCHAR
STARTCHAR uni043A
ENCODING 1082
SWIDTH 479 0
DWIDTH 12 0
BBX 10 13 1 0
BITMAP
7803D0
780B80
781F00
783D00
78B400
7FE000
7FF000
78B800
783D00
782F00
780F80
7807D0
7802E0
ENDCHAR
STARTCHAR uni043B
ENCODING 1083
SWIDTH 509 0
DWIDTH 12 0
BBX 11 13 0 0
BITMAP
03FFF4
03EAF4
03C0B4
03C0B4
03C0B4
03C0B4
03C0B4
0780B4
0780B4
0780B4
0F40B4
7F00B4
7800B4
ENDCHAR
STARTCHAR uni043C
ENCODING 1084
SWIDTH 645 0
DWIDTH 16 0
BBX 13 13 1 0
BITMAP
7E000F80
7F001F80
7F402F80
7F803F80
7BC07B80
7AD0B780
79E0E780
78F1D780
78B6C780
787B8780
782F4780
781F0780
780E0780
ENDCHAR
STARTCHAR uni043D
ENCODING 1085
SWIDTH 508 0
DWIDTH 12 0
BBX 10 13 1 0
BITMAP
7802D0
7802D0
7802D0
7802D0
7802D0
7FFFD0
7EABD0
7802D0
7802D0
7802D0
7802D0
7802D0
7802D0
ENDCHAR
STARTCHAR uni043E
ENCODING 1086
SWIDTH 501 0
DWIDTH 12 0
BBX 10 13 1 0
BITMAP
06F900
1FFF40
3D07D0
B802E0
B401E0
F401F0
F400F0
F401F0
B401E0
B802E0
3D07D0
1FFF40
06F900
ENDCHAR
STARTCHAR uni043F
ENCODING 1087
SWIDTH 509 0
DWIDTH 12 0
BBX 10 13 1 0
BITMAP
7FFFD0
7EABD0
7802D0
7802D0
7802D0
7802D0
7802D0
7802D0
7802D0
7802D0
7802D0
7802D0
7802D0
ENDCHAR
STARTCHAR uni0440
ENCODING 1088
SWIDTH 493 0
DWIDTH 12 0
BBX 10 18 1 -5
BITMAP
75FE00
7BFF80
7D07D0
7802D0
7801E0
7801E0
7801E0
7801E0
7801E0
7802D0
7D07D0
7FBF80
79FE00
780000
780000
780000
780000
780000
ENDCHAR
STARTCHAR uni0441
ENCODING 1089
SWIDTH 461 0
DWIDTH 11 0
BBX 9 13 1 0
BITMAP
06F900
2FFF40
7D0780
B803C0
B40180
F40000
F40000
F40000
B40140
B403C0
7D0780
2FFF40
06F900
ENDCHAR
STARTCHAR uni0442
ENCODING 1090
SWIDTH 424 0
DWIDTH 10 0
BBX 10 13 0 0
BITMAP
7FFFE0
6AFA90
00F000
00F000
00F000
00F000
00F000
00F000
00F000
00F000
00F000
00F000
00F000
ENDCHAR
STARTCHAR uni0443
ENCODING 1091
SWIDTH 416 0
DWIDTH 10 0
BBX 10 18 0 -5
BITMAP
7802D0
3C03C0
3D0780
2E0B80
1E0B40
0F0F00
0B5E00
07AD00
03AC00
02FC00
02F800
01F400
00F000
00E000
01D000
03C000
3F8000
3E0000
ENDCHAR
STARTCHAR uni0444
ENCODING 1092
SWIDTH 628 0
DWIDTH 15 0
BBX 13 23 1 -5
BITMAP
002D0000
002D0000
002D0000
002D0000
002D0000
0BFFF800
2FBFBE00
3D2D1F40
782D0B80
B42D0780
B42D07C0
B42D07C0
B42D07C0
B42D0780
B82D0B80
7C2D0F40
2FBFBE00
0BFFF800
002D0000
002D0000
002D0000
002D0000
002D0000
ENDCHAR
STARTCHAR uni0445
ENCODING 1093
SWIDTH 438 0
DWIDTH 11 0
BBX 9 13 1 0
BITMAP
F40F80
781F00
3D2D00
1E7C00
0FB400
07E000
03D000
07F000
0FB400
2E3C00
3C2E00
B81F00
F40B80
ENDCHAR
STARTCHAR uni0446
ENCODING 1094
SWIDTH 524 0
DWIDTH 13 0
BBX 11 17 1 -4
BITMAP
7802D0
7802D0
7802D0
7802D0
7802D0
7802D0
7802D0
7802D0
7802D0
7802D0
7802D0
7EABF8
7FFFF8
000078
000078
000078
000078
ENDCHAR
STARTCHAR uni0447
ENCODING 1095
SWIDTH 479 0
DWIDTH 12 0
BBX 9 13 1 0
BITMAP
B40780
B40780
B40780
B40780
B40780
B80780
7D0B80
2FFF80
06AB80
000780
000780
000780
000780
ENDCHAR
STARTCHAR uni0448
ENCODING 1096
SWIDTH 703 0
DWIDTH 17 0
BBX 14 13 1 0
BITMAP
780B40F0
780B40F0
780B40F0
780B40F0
780B40F0
780B40F0
780B40F0
780B40F0
780B40F0
780B40F0
780B40F0
7EAFEAF0
7FFFFFF0
ENDCHAR
STARTCHAR uni0449
ENCODING 1097
SWIDTH 722 0
DWIDTH 17 0
BBX 16 17 1 -4
BITMAP
780B40F0
780B40F0
780B40F0
780B40F0
780B40F0
780B40F0
780B40F0
780B40F0
780B40F0
780B40F0
780B40F0
7EAFEAF9
7FFFFFFE
0000001D
0000001D
0000001D
0000001D
ENDCHAR
STARTCHAR uni044A
ENCODING 1098
SWIDTH 538 0
DWIDTH 13 0
BBX 13 13 0 0
BITMAP
7FE00000
6BE00000
01E00000
01E00000
01FFE400
01FAFD00
01E01F00
01E00F00
01E00F40
01E00F00
01E01F00
01FABD00
01FFE400
ENDCHAR
STARTCHAR uni044B
ENCODING 1099
SWIDTH 679 0
DWIDTH 16 0
BBX 14 13 1 0
BITMAP
780002D0
780002D0
780002D0
780002D0
7FFD02D0
7EAF82D0
7807C2D0
7803D2D0
7802D2D0
7802D2D0
7807C2D0
7EAF42D0
7FFD02D0
ENDCHAR
STARTCHAR uni044C
ENCODING 1100
SWIDTH 478 0
DWIDTH 11 0
BBX 10 13 1 0
BITMAP
780000
780000
780000
780000
7FFD00
7EAF80
7807C0
7803D0
7802D0
7802D0
7807C0
7EAF40
7FFD00
ENDCHAR
STARTCHAR uni044D
ENCODING 1101
SWIDTH 472 0
DWIDTH 11 0
BBX 9 13 1 0
BITMAP
0BE400
2FFE00
B81F40
A40780
0003C0
02FFC0
02ABC0
0003C0
6007C0
B40B80
781F00
2FBD00
0BE400
ENDCHAR
STARTCHAR uni044E
ENCODING 1102
SWIDTH 706 0
DWIDTH 17 0
BBX 15 13 1 0
BITMAP
7801BE40
7807FFD0
780F41F0
782E00B4
782D0078
7FFD007C
7EBD007C
782D007C
782D0078
781E00B4
780F41F0
7807FFD0
7801BE40
ENDCHAR
STARTCHAR uni044F
ENCODING 1103
SWIDTH 482 0
DWIDTH 12 0
BBX 10 13 0 0
BITMAP
02FFE0
0FEAE0
2E01E0
2D01E0
2D01E0
2E01E0
0FFFE0
03FBE0
07C1E0
0B41E0
1F01E0
2D01E0
7C01E0
ENDCHAR
STARTCHAR uni0450
ENCODING 1104
SWIDTH 468 0
DWIDTH 11 0
BBX 10 18 1 0
BITMAP
1F4000
07D000
01E000
000000
000000
06F900
1FFF40
3D0B80
B803C0
B402D0
BFFFD0
FAAA90
F40000
B40000
B80000
7D0280
2FEF80
06F900
ENDCHAR
STARTCHAR uni0451
ENCODING 1105
SWIDTH 468 0
DWIDTH 11 0
BBX 10 18 1 0
BITMAP
140500
3E0F80
2D0B40
000000
000000
06F900
1FFF40
3D0B80
B803C0
B402D0
BFFFD0
FAAA90
F40000
B40000
B80000
7D0280
2FEF80
06F900
ENDCHAR
STARTCHAR uni0452
ENCODING 1106
SWIDTH 482 0
DWIDTH 12 0
BBX 10 23 0 -5
BITMAP
1E0000
1E0000
FFF400
BFA400
1E0000
1E6F40
1FFFD0
1F82E0
1E00F0
1E00F0
1E00F0
1E00F0
1E00F0
1E00F0
1E00F0
1E00F0
1E00F0
1E00F0
0000F0
0000F0
0001F0
000BD0
001F80
ENDCHAR
STARTCHAR uni0453
ENCODING 1107
SWIDTH 371 0
DWIDTH 9 0
BBX 8 18 1 0
BITMAP
00F8
02E0
0780
0000
0000
7FFE
7EA9
7800
7800
7800
7800
7800
7800
7800
7800
7800
7800
7800
ENDCHAR
STARTCHAR uni0454
ENCODING 1108
SWIDTH 472 0
DWIDTH 11 0
BBX 10 13 1 0
BITMAP
06F900
1FFF40
3D07C0
7803D0
B40190
BFF000
BEA000
B40000
B80040
7802D0
3D07C0
1FFF40
06F900
ENDCHAR
STARTCHAR uni0455
ENCODING 1109
SWIDTH 455 0
DWIDTH 11 0
BBX 9 13 1 0
BITMAP
0BF800
2FBF00
7C0F40
780640
7D0000
2F9000
07F900
007F00
000B80
B40780
B80B80
3FBF00
0BF800
ENDCHAR
STARTCHAR uni0456
ENCODING 1110
SWIDTH 229 0
DWIDTH 6 0
BBX 3 18 1 0
BITMAP
14
7C
78
00
00
78
78
78
78
78
78
78
78
78
78
78
78
78
ENDCHAR
STARTCHAR uni0457
ENCODING 1111
SWIDTH 234 0
DWIDTH 6 0
BBX 8 18 -1 0
BITMAP
5004
F83E
B42D
0000
0000
0780
0780
0780
0780
0780
0780
0780
0780
0780
0780
0780
0780
0780
ENDCHAR
STARTCHAR uni0458
ENCODING 1112
SWIDTH 223 0
DWIDTH 5 0
BBX 5 23 -1 -5
BITMAP
0100
0B80
0740
0000
0000
0780
0780
0780
0780
0780
0780
0780
0780
0780
0780
0780
0780
0780
0780
0780
0B80
7F40
7D00
ENDCHAR
STARTCHAR uni0459
ENCODING 1113
SWIDTH 729 0
DWIDTH 18 0
BBX 17 13 0 0
BITMAP
03FFF00000
03EAF00000
03C0F00000
03C0F00000
03C0F00000
03C0FFF800
0780FABF00
0780F00F40
0780F00780
0B40F00B80
0F40F00F40
7E00FABE00
7800FFF800
ENDCHAR
STARTCHAR uni045A
ENCODING 1114
SWIDTH 743 0
DWIDTH 18 0
BBX 16 13 1 0
BITMAP
7802D000
7802D000
7802D000
7802D000
7802D000
7FFFFFE4
7EABFAFD
7802D02E
7802D00F
7802D00F
7802D02E
7802FAFD
7802FFE4
ENDCHAR
STARTCHAR uni045B
ENCODING 1115
SWIDTH 499 0
DWIDTH 12 0
BBX 10 18 0 0
BITMAP
1E0000
1E0000
BFF800
BFA400
1E0000
1E6F40
1FFFD0
1F82E0
1E00F0
1E00F0
1E00F0
1E00F0
1E00F0
1E00F0
1E00F0
1E00F0
1E00F0
1E00F0
ENDCHAR
STARTCHAR uni045C
ENCODING 1116
SWIDTH 479 0
DWIDTH 12 0
BBX 10 18 1 0
BITMAP
002E00
00B800
01A000
000000
000000
7803D0
780B80
781F00
783D00
78B400
7FE000
7FF000
78B800
783D00
782F00
780F80
7807D0
7802E0
ENDCHAR
STARTCHAR uni045D
ENCODING 1117
SWIDTH 509 0
DWIDTH 12 0
BBX 10 18 1 0
BITMAP
0F8000
03D000
00E000
000000
000000
7802D0
7807D0
780BD0
781FD0
782ED0
7876D0
78B2D0
79D2D0
7AC2D0
7F82D0
7F02D0
7E02D0
7C02D0
ENDCHAR
STARTCHAR uni045E
ENCODING 1118
SWIDTH 416 0
DWIDTH 10 0
BBX 10 24 0 -5
BITMAP
050140
0E0780
0B9F40
02F900
000000
000000
7802D0
3C03C0
3D0780
2E0B80
1E0B40
0F0F00
0B5E00
07AD00
03AC00
02FC00
02F800
01F400
00F000
00E000
01D000
03C000
3F8000
3E0000
ENDCHAR
STARTCHAR uni045F
ENCODING 1119
SWIDTH 509 0
DWIDTH 12 0
BBX 10 17 1 -4
BITMAP
7802D0
7802D0
7802D0
7802D0
7802D0
7802D0
7802D0
7802D0
7802D0
7802D0
7802D0
7EABD0
7FFFD0
00F000
00F000
00F000
00F000
ENDCHAR
STARTCHAR uni0460
ENCODING 1120
SWIDTH 754 0
DWIDTH 18 0
BBX 16 17 1 0
BITMAP
7C03D02E
7C03D02E
7C03D02E
7C03D02E
7C03D02E
7C03D02E
7C03D02E
7C03D02E
7C03D02E
7C03D02E
7C03D02E
7C03D02E
7C03D02E
3C07D02D
3E0BF07C
1FFEBFF8
06F82FD0
ENDCHAR
STARTCHAR uni0461
ENCODING 1121
SWIDTH 650 0
DWIDTH 16 0
BBX 14 13 1 0
BITMAP
B41F02D0
B41F02D0
B41F02D0
B41F02D0
B41F02D0
B41F02D0
B41F02D0
B41F02D0
B41F02D0
781F03D0
7C2F47C0
2FFBEF80
0BE1BD00
ENDCHAR
STARTCHAR uni0462
ENCODING 1122
SWIDTH 551 0
DWIDTH 13 0
BBX 14 17 -1 0
BITMAP
07C00000
07C00000
7FFC0000
6BE80000
07C00000
07C00000
07C00000
07FFF800
07FFFF00
07C00B80
07C007C0
07C003D0
07C003D0
07C007C0
07C00B80
07FFFF00
07FFF800
ENDCHAR
STARTCHAR uni0463
ENCODING 1123
SWIDTH 477 0
DWIDTH 11 0
BBX 11 18 0 0
BITMAP
1E0000
1E0000
1E0000
1E0000
FFFC00
AFA800
1E0000
1E0000
1E0000
1E0000
1FFF40
1FABE0
1E01F0
1E00B4
1E00B4
1E01F0
1FABE0
1FFF40
ENDCHAR
STARTCHAR uni0464
ENCODING 1124
SWIDTH 772 0
DWIDTH 19 0
BBX 15 17 2 0
BITMAP
F002FE40
F00FFFD0
F03E01F0
F07C00B8
F0B4007C
F0F00028
F0F00000
FFFFFD00
FAFAA900
F0F00000
F0F00000
F0F40014
F0B4007C
F07C00B8
F02E01F0
F00FFFD0
F002FE40
ENDCHAR
STARTCHAR uni0465
ENCODING 1125
SWIDTH 646 0
DWIDTH 16 0
BBX 14 13 1 0
BITMAP
7806F900
781FFF40
783D07C0
787802D0
78780190
7FFFF800
7EFEA800
78780000
78780040
783C02D0
782E07C0
780FEF40
7802F900
ENDCHAR
STARTCHAR uni0466
ENCODING 1126
SWIDTH 526 0
DWIDTH 13 0
BBX 13 17 0 0
BITMAP
001E0000
002F0000
003F4000
007F8000
00BBC000
00F2D000
01F2E000
01E1F000
02D0F400
03C0B400
07FFF800
0BFFFC00
0F1E2D00
1F1E2E00
2E1E1F00
3D1E0F40
7C1E0B80
ENDCHAR
STARTCHAR uni0467
ENCODING 1127
SWIDTH 470 0
DWIDTH 11 0
BBX 11 13 0 0
BITMAP
00B800
00FC00
01FD00
02EE00
03DF00
07CB40
0B8B80
0F47C0
0FFFD0
1FFFE0
2D79F0
3C78F4
7878B8
ENDCHAR
STARTCHAR uni0468
ENCODING 1128
SWIDTH 759 0
DWIDTH 18 0
BBX 16 17 2 0
BITMAP
F4007C00
F4007D00
F400BE00
F400FF00
F401EF40
F402DB40
F403C780
F40783C0
F40B42D0
F40F41E0
FFFFFFF0
FFFFFFF4
F42D7CB8
F43C7C7C
F4787C3C
F4B47C2D
F4F47C1E
ENDCHAR
STARTCHAR uni0469
ENCODING 1129
SWIDTH 654 0
DWIDTH 16 0
BBX 13 13 2 0
BITMAP
F003C000
F007D000
F00BE000
F00FF000
F01EB400
F02D7800
F03C3C00
F0782D00
FFFFFE00
FAFBEF00
F1E3CF40
F2D3C780
F7C3C3C0
ENDCHAR
STARTCHAR uni046A
ENCODING 1130
SWIDTH 747 0
DWIDTH 18 0
BBX 16 17 1 0
BITMAP
0BFFFFF0
07FFFFD0
02E00BC0
01F00F40
00B81F00
007C3D00
003D7C00
001FB400
06FFFF90
1FFFFFF4
3E03C0BC
7C03C03C
7803C03D
7803C03D
7803C03D
7803C03D
7803C03D
ENDCHAR
STARTCHAR uni046B
ENCODING 1131
SWIDTH 645 0
DWIDTH 16 0
BBX 13 13 1 0
BITMAP
0BFFFD00
07EAFC00
02D0B400
01F1F000
00F6D000
007BC000
06FFF800
1FEFBF00
3D1E0F40
7C1E0780
781E0780
781E0780
781E0780
ENDCHAR
STARTCHAR uni046C
ENCODING 1132
SWIDTH 980 0
DWIDTH 24 0
BBX 20 17 2 0
BITMAP
F003FFFFF4
F002FFFFF0
F001F403E0
F000B807C0
F0007D0B80
F0002E1F00
F0001F2E00
F0000BBC00
FFFFFFFFE0
FAAFFFFFFC
F01F41E07D
F02E01E01E
F02D01E01F
F02D01E01F
F02D01E01F
F02D01E01F
F02D01E01F
ENDCHAR
STARTCHAR uni046D
ENCODING 1133
SWIDTH 856 0
DWIDTH 21 0
BBX 18 13 1 0
BITMAP
7802FFFF40
7801FEBF00
7800B82D00
78007C7C00
78002DB800
78001EF000
7FFFFFFE00
7EAFFBEFC0
780B47C2D0
780F07C1E0
781F07C1F0
781E07C1F0
781E07C1F0
ENDCHAR
STARTCHAR uni046E
ENCODING 1134
SWIDTH 454 0
DWIDTH 11 0
BBX 9 27 1 -5
BITMAP
1D2D00
07B400
02E000
000000
000000
BFE000
6AFC00
002E00
000F00
000F00
001F00
006D00
1FF400
0AF800
002E00
000F00
000B40
000B40
000F00
002E00
1AFD00
BFE000
F40000
F00000
F40000
7D0000
180000
ENDCHAR
STARTCHAR uni046F
ENCODING 1135
SWIDTH 423 0
DWIDTH 10 0
BBX 8 23 1 -5
BITMAP
3878
0EE0
0780
0000
0000
BFE0
6AFD
002E
001E
006D
0FF4
0AF8
002E
000F
000F
002E
1AFD
BFE4
F400
F000
B400
7D00
1800
ENDCHAR
STARTCHAR uni0470
ENCODING 1136
SWIDTH 600 0
DWIDTH 14 0
BBX 13 17 1 0
BITMAP
F03C0F40
F03C0F40
F03C0F40
F03C0F40
F03C0F40
F03C0F40
F43C0F40
F43C0F00
B83C1F00
7C3C2E00
3E7DBC00
0FFFF400
02BE8000
003C0000
003C0000
003C0000
003C0000
ENDCHAR
STARTCHAR uni0471
ENCODING 1137
SWIDTH 612 0
DWIDTH 15 0
BBX 13 19 1 -6
BITMAP
F02D1E00
F02D0F00
F02D0F40
F02D0B80
F02D0780
F02D0780
F42D0780
B42D0B80
B82D0B40
7C2D1F00
2E2D7E00
0FFFF800
02FF9000
002D0000
002D0000
002D0000
002D0000
002D0000
002D0000
ENDCHAR
STARTCHAR uni0472
ENCODING 1138
SWIDTH 593 0
DWIDTH 14 0
BBX 12 17 1 0
BITMAP
01BE40
0BFFE0
1F41F4
3D007C
78002D
B8001E
B4001E
BFFFFE
BEAABF
B4001E
B4001E
B8002E
7C003D
3D007C
1F41F4
0BFFE0
01BE40
ENDCHAR
STARTCHAR uni0473
ENCODING 1139
SWIDTH 497 0
DWIDTH 12 0
BBX 10 13 1 0
BITMAP
06F900
1FFF40
3D07C0
7802D0
B401E0
BFFFF0
FEAAF0
B401F0
B801E0
7C03D0
3D07C0
1FFF40
06F900
ENDCHAR
STARTCHAR uni0474
ENCODING 1140
SWIDTH 553 0
DWIDTH 13 0
BBX 13 17 0 0
BITMAP
7C000780
3C001F80
3D002E00
2E003D00
1F007C00
0F407800
0B40B400
0780F000
03C1E000
02D1D000
01E2D000
00E3C000
00F78000
00BB4000
007F0000
003E0000
002D0000
ENDCHAR
STARTCHAR uni0475
ENCODING 1141
SWIDTH 443 0
DWIDTH 11 0
BBX 11 13 0 0
BITMAP
7C00B4
3C02F4
2D03D0
1E0780
0F0B40
0B0B40
074F00
039E00
03DD00
02EC00
01F800
00F400
00B000
ENDCHAR
STARTCHAR uni0476
ENCODING 1142
SWIDTH 553 0
DWIDTH 13 0
BBX 13 21 0 0
BITMAP
1F7D0000
07DF0000
01E74000
00000000
7C000780
3C001F80
3D002E00
2E003D00
1F007C00
0F407800
0B40B400
0780F000
03C1E000
02D1D000
01E2D000
00E3C000
00F78000
00BB4000
007F0000
003E0000
002D0000
ENDCHAR
STARTCHAR uni0477
ENCODING 1143
SWIDTH 443 0
DWIDTH 11 0
BBX 11 18 0 0
BITMAP
7DF400
1F7C00
079D00
000000
000000
7C00B4
3C02F4
2D03D0
1E0780
0F0B40
0B0B40
074F00
039E00
03DD00
02EC00
01F800
00F400
00B000
ENDCHAR
STARTCHAR uni0478
ENCODING 1144
SWIDTH 1017 0
DWIDTH 24 0
BBX 23 22 1 -5
BITMAP
01BF80000000
0BFFF0000000
1F41B8000000
3D003D000000
7C002E0F4078
78001E0B40B8
78001F0780F4
B8001F03C0F0
B8001F03D1E0
B8001F02D2D0
B8001F01E3C0
78001F00F380
7C002E00BB80
3D003D007F40
1F40BC003F00
0BFFF4002E00
01BF80002D00
000000002C00
000000003800
00000000B400
0000000BF000
000000078000
ENDCHAR
STARTCHAR uni0479
ENCODING 1145
SWIDTH 918 0
DWIDTH 22 0
BBX 21 18 1 -5
BITMAP
06F901F00B40
1FFF40F00F00
3D07D0B41F00
B802E0B81E00
B401E07C2D00
F401F03C3C00
F400F02D7800
F401F01E7400
B401E00FB000
B802E00BF000
3D07D007E000
1FFF4007D000
06F90003C000
000000038000
000000074000
0000000F0000
000000FE0000
000000B80000
ENDCHAR
STARTCHAR uni047A
ENCODING 1146
SWIDTH 593 0
DWIDTH 14 0
BBX 12 21 1 -2
BITMAP
001400
003C00
01BF40
0BFFE0
1F7DF8
3D007C
7C002D
B8002E
B4001E
B4001F
B4001F
B4001F
B4001E
B8002E
7C002D
3D007C
1F7DF8
0BFFE0
01FF40
003C00
002800
ENDCHAR
STARTCHAR uni047B
ENCODING 1147
SWIDTH 498 0
DWIDTH 12 0
BBX 10 17 1 -2
BITMAP
005000
00F000
07FD00
1FFF40
3DF7C0
7802D0
B401E0
B401F0
F401F0
B401F0
B401E0
7802D0
3DF7C0
1FFF40
07FD00
00F000
005000
ENDCHAR
STARTCHAR uni047C
ENCODING 1148
SWIDTH 752 0
DWIDTH 18 0
BBX 16 23 1 0
BITMAP
00050000
002FD000
0038BE40
00341B40
0001D000
0002C000
068242D0
1F8002F4
2E00007C
3C00003D
7C00002D
7C00002D
7C00002D
7C02802D
7C03D02D
7C03D02D
7C03D02D
7C03D02D
7C03D02D
3C07D03D
2E0BF07C
1FFEBFF4
06F82FD0
ENDCHAR
STARTCHAR uni047D
ENCODING 1149
SWIDTH 654 0
DWIDTH 16 0
BBX 14 18 1 0
BITMAP
00150000
00BFE900
00E1AE00
00074000
00074000
0B0B1E00
2F090F40
7C0007C0
780003D0
B80002D0
B40002D0
B40F02D0
B40F02D0
B80F02D0
781F03D0
7C2F47C0
2FFBFF80
0BE1BE00
ENDCHAR
STARTCHAR uni047E
ENCODING 1150
SWIDTH 754 0
DWIDTH 18 0
BBX 16 21 1 0
BITMAP
00555500
00FFFF40
0003C000
00000000
7C03D02E
7C03D02E
7C03D02E
7C03D02E
7C03D02E
7C03D02E
7C03D02E
7C03D02E
7C03D02E
7C03D02E
7C03D02E
7C03D02E
7C03D02E
3C07D02D
3E0BF07C
1FFEBFF8
06F82FD0
ENDCHAR
STARTCHAR uni047F
ENCODING 1151
SWIDTH 650 0
DWIDTH 16 0
BBX 14 19 1 0
BITMAP
01555400
07FFFC00
000E0000
000E0000
00000000
00000000
B41F02D0
B41F02D0
B41F02D0
B41F02D0
B41F02D0
B41F02D0
B41F02D0
B41F02D0
B41F02D0
781F03D0
7C2F47C0
2FFBEF80
0BE1BD00
ENDCHAR
STARTCHAR uni0480
ENCODING 1152
SWIDTH 570 0
DWIDTH 14 0
BBX 11 21 1 -4
BITMAP
01BE40
0BFFE0
1F41F4
3D007C
7C003C
B80028
B80000
B80000
B80000
B80000
B80000
B80000
7C0000
3D0000
1F4000
0BE800
01FC00
003C00
003C00
003C00
003C00
ENDCHAR
STARTCHAR uni0481
ENCODING 1153
SWIDTH 472 0
DWIDTH 11 0
BBX 9 17 1 -4
BITMAP
06F800
1FFF00
3D0B80
7803C0
B40280
B40000
B40000
B40000
B40000
780000
3D0000
1FA000
07F000
00F000
00F000
00F000
00F000
ENDCHAR
STARTCHAR uni0482
ENCODING 1154
SWIDTH 547 0
DWIDTH 13 0
BBX 11 16 1 0
BITMAP
0000B0
0001D0
0282C0
02E780
007F00
001F80
002EF4
003874
74B400
7EE000
0BD000
03F400
07BE00
0F0A00
1D0000
2C0000
ENDCHAR
STARTCHAR uni0483
ENCODING 1155
SWIDTH 0 0
DWIDTH 0 0
BBX 8 5 -9 13
BITMAP
0018
556D
FFFD
E000
5000
ENDCHAR
STARTCHAR uni0484
ENCODING 1156
SWIDTH 0 0
DWIDTH 0 0
BBX 8 3 -9 15
BITMAP
0054
6BFD
B94A
ENDCHAR
STARTCHAR uni0485
ENCODING 1157
SWIDTH 0 0
DWIDTH 0 0
BBX 3 4 -7 15
BITMAP
78
78
2C
08
ENDCHAR
STARTCHAR uni0486
ENCODING 1158
SWIDTH 0 0
DWIDTH 0 0
BBX 3 4 -6 15
BITMAP
78
78
70
50
ENDCHAR
STARTCHAR uni0488
ENCODING 1160
SWIDTH 0 0
DWIDTH 0 0
BBX 23 22 -18 -5
BITMAP
00000B900000
000028B00000
000010100000
02F400006E40
071D0000A280
000400004040
000000000000
000000000000
000000000000
2F40000002F4
B1C000000A1C
004000000004
000000000000
000000000000
000000000000
02F400007E00
0A1C0000D280
000400004000
000000000000
00000B900000
000028B00000
000000100000
ENDCHAR
STARTCHAR uni0489
ENCODING 1161
SWIDTH 0 0
DWIDTH 0 0
BBX 22 22 -18 -5
BITMAP
000002800000
000003400000
008007400000
00E00B001A00
00740001B800
00380001D000
001000000000
000000000000
000000000000
690000000A40
2F8000000BE0
014000000050
000000000000
000000000000
000000000000
000000005000
00280000E000
01F800007400
028007802800
000007001800
00000A000000
000009000000
ENDCHAR
STARTCHAR uni048A
ENCODING 1162
SWIDTH 666 0
DWIDTH 16 0
BBX 13 27 2 -4
BITMAP
05005000
0741D000
03E7C000
00BE0000
00000000
00000000
F000BC00
F000FC00
F002FC00
F003FC00
F00BBC00
F00F7C00
F02D7C00
F03C7C00
F0B47C00
F0F07C00
F2D07C00
F7C07C00
FB407C00
FF007C00
FD007C00
FC007E80
F4007FC0
000003C0
00000780
00000B40
00000A00
ENDCHAR
STARTCHAR uni048B
ENCODING 1163
SWIDTH 550 0
DWIDTH 13 0
BBX 12 23 1 -4
BITMAP
050140
0B02C0
079B80
01BE00
000000
000000
7802D0
7807D0
780BD0
781FD0
782ED0
7876D0
78B2D0
79D2D0
7AC2D0
7F82D0
7F02D0
7E02E9
7C02FE
00001E
00002D
00003C
000064
ENDCHAR
STARTCHAR uni048C
ENCODING 1164
SWIDTH 551 0
DWIDTH 13 0
BBX 14 17 -1 0
BITMAP
07C00000
07C00000
7FFC0000
6BE80000
07C00000
07C00000
07C00000
07FFF800
07FFFF00
07C00B80
07C007C0
07C003D0
07C003D0
07C007C0
07C00B80
07FFFF00
07FFF800
ENDCHAR
STARTCHAR uni048D
ENCODING 1165
SWIDTH 477 0
DWIDTH 11 0
BBX 11 20 0 0
BITMAP
050000
1E0000
1E0000
FFFC00
BFA800
1E0000
1E0000
1E0000
1E0000
1E0000
1E0000
1FFF40
1FABD0
1E01F0
1E00F4
1E00B4
1E00F4
1E01F0
1FABD0
1FFF40
ENDCHAR
STARTCHAR uni048E
ENCODING 1166
SWIDTH 557 0
DWIDTH 13 0
BBX 11 17 2 0
BITMAP
FFFE00
FFFFC0
F007E0
F001F0
F000F4
F000B4
F009F4
F00FF0
F007E0
FFFFE0
FFE9B4
F00020
F00000
F00000
F00000
F00000
F00000
ENDCHAR
STARTCHAR uni048F
ENCODING 1167
SWIDTH 496 0
DWIDTH 12 0
BBX 10 18 1 -5
BITMAP
75FD00
7FFF40
7D0BC0
7803D0
7802E0
7801E0
7801E0
7801E0
7806E0
782FD0
7D0FC0
7FBFC0
79FEE0
780040
780000
780000
780000
780000
ENDCHAR
STARTCHAR uni0490
ENCODING 1168
SWIDTH 479 0
DWIDTH 12 0
BBX 10 21 1 0
BITMAP
0001E0
0001E0
0001E0
0001E0
7FFFE0
7FFFE0
7C0000
7C0000
7C0000
7C0000
7C0000
7C0000
7C0000
7C0000
7C0000
7C0000
7C0000
7C0000
7C0000
7C0000
7C0000
ENDCHAR
STARTCHAR uni0491
ENCODING 1169
SWIDTH 395 0
DWIDTH 10 0
BBX 8 17 1 0
BITMAP
0019
002D
002D
002D
7FFD
7EA9
7800
7800
7800
7800
7800
7800
7800
7800
7800
7800
7800
ENDCHAR
STARTCHAR uni0492
ENCODING 1170
SWIDTH 487 0
DWIDTH 12 0
BBX 11 17 0 0
BITMAP
0FFFF8
0FFFF8
0F0000
0F0000
0F0000
0F0000
0F0000
FFF400
AFA400
0F0000
0F0000
0F0000
0F0000
0F0000
0F0000
0F0000
0F0000
ENDCHAR
STARTCHAR uni0493
ENCODING 1171
SWIDTH 371 0
DWIDTH 9 0
BBX 9 13 0 0
BITMAP
1FFF80
1FAA40
1E0000
1E0000
1E0000
BFF800
AFA400
1E0000
1E0000
1E0000
1E0000
1E0000
1E0000
ENDCHAR
STARTCHAR uni0494
ENCODING 1172
SWIDTH 539 0
DWIDTH 13 0
BBX 10 20 2 -3
BITMAP
FFFF80
FFFF80
F00000
F00000
F00000
F00000
F00000
FFE400
FFFE00
F01F80
F003D0
F002D0
F001E0
F001E0
F001E0
F001E0
F002D0
0007C0
002F40
003900
ENDCHAR
STARTCHAR uni0495
ENCODING 1173
SWIDTH 443 0
DWIDTH 11 0
BBX 9 16 1 -3
BITMAP
7FFD00
7EA900
780000
780000
780000
7FE400
7FFD00
782F00
780B40
780780
780780
780780
780B40
001F00
007D00
006400
ENDCHAR
STARTCHAR uni0496
ENCODING 1174
SWIDTH 833 0
DWIDTH 20 0
BBX 20 21 0 -4
BITMAP
2E007802F0
1F407803D0
0B80780B80
03D0780F40
02E0782E00
00F4783C00
007878B800
003FFFF000
007FFFF400
00B878BC00
01F4783D00
02E0782F00
07D0780F40
0B80780BC0
1F407807D0
2F007802FE
7D007801FE
000000002E
000000002E
000000002E
000000002E
ENDCHAR
STARTCHAR uni0497
ENCODING 1175
SWIDTH 696 0
DWIDTH 17 0
BBX 16 17 0 -4
BITMAP
3D03C0B8
1F03C0F4
0B43C2E0
07C3C3C0
02D3CB80
00FFFF00
01FFFF00
02D3CB80
07C3C3C0
0B83C2E0
1F03C1F0
2E03C0FF
7D03C07F
0000000F
0000000F
0000000F
0000000F
ENDCHAR
STARTCHAR uni0498
ENCODING 1176
SWIDTH 517 0
DWIDTH 12 0
BBX 11 22 1 -5
BITMAP
06FE00
2FFFD0
7D02E0
B801F0
6400F0
0001F0
0006D0
01FF40
01FF80
0002E0
0000F0
0000B4
A000F4
F400F0
7D02E0
2FFFC0
06FE00
00F400
00F400
00F400
00F400
00F400
ENDCHAR
STARTCHAR uni0499
ENCODING 1177
SWIDTH 446 0
DWIDTH 11 0
BBX 9 18 1 -5
BITMAP
0BF800
3FBE00
B80F40
A40B40
001F00
07FD00
06FE00
000F40
000B40
F40B40
B80F40
7FBE00
0BF800
02D000
02D000
02D000
02D000
02D000
ENDCHAR
STARTCHAR uni049A
ENCODING 1178
SWIDTH 617 0
DWIDTH 15 0
BBX 12 21 2 -4
BITMAP
F001F8
F002E0
F00BC0
F01F40
F03E00
F0BC00
F1F400
FFE000
FFF000
F0F800
F07D00
F02E00
F00F40
F007C0
F003E0
F001FE
F000BE
00001E
00001E
00001E
00001E
ENDCHAR
STARTCHAR uni049B
ENCODING 1179
SWIDTH 524 0
DWIDTH 13 0
BBX 11 17 1 -4
BITMAP
7803D0
780B80
781F00
783D00
78B400
7FE000
7FF000
78B800
783D00
782F00
780F80
7807FC
7802FC
00007C
00007C
00007C
00007C
ENDCHAR
STARTCHAR uni049C
ENCODING 1180
SWIDTH 553 0
DWIDTH 13 0
BBX 12 17 1 0
BITMAP
7C003D
7C00B8
7C00F4
7C01E0
7DD2D0
7DD780
7DDB40
7FFE00
7FFF00
7DDB80
7DD7C0
7C93E0
7C01F0
7C00F4
7C00BC
7C007D
7C003E
ENDCHAR
STARTCHAR uni049D
ENCODING 1181
SWIDTH 498 0
DWIDTH 12 0
BBX 11 13 1 0
BITMAP
7801F4
7802E0
7987C0
79DB40
79DE00
7FFD00
7FFE00
79DF00
79DB80
7847C0
7803E0
7801F0
7800F8
ENDCHAR
STARTCHAR uni049E
ENCODING 1182
SWIDTH 570 0
DWIDTH 14 0
BBX 14 17 0 0
BITMAP
0B400F80
0B402F00
0B407D00
BFF8F800
AFE6F000
0B47D000
0B4F8000
0BFF0000
0BFF4000
0B4B8000
0B43D000
0B41F000
0B40F800
0B407D00
0B402F00
0B400F80
0B4007D0
ENDCHAR
STARTCHAR uni049F
ENCODING 1183
SWIDTH 462 0
DWIDTH 11 0
BBX 12 18 -1 0
BITMAP
03C000
03C000
BFF800
6BE800
03C000
03C07C
03C0F4
03C1E0
03C3D0
03CB80
03FF00
03EF40
03C780
03C3D0
03C1F0
03C0F8
03C07C
03C02E
ENDCHAR
STARTCHAR uni04A0
ENCODING 1184
SWIDTH 710 0
DWIDTH 17 0
BBX 16 17 1 0
BITMAP
FFF800BC
AAF801F4
00B803E0
00B80BC0
00B81F40
00B83E00
00B8B800
00BFF400
00BFF400
00B87C00
00B82E00
00B81F40
00B80BC0
00B803E0
00B801F4
00B800BC
00B8003D
ENDCHAR
STARTCHAR uni04A1
ENCODING 1185
SWIDTH 607 0
DWIDTH 15 0
BBX 13 13 1 0
BITMAP
FFF00B80
AAF01F00
00F07D00
00F0F400
00F2E000
00FFC000
00FFD000
00F1F000
00F0F800
00F07D00
00F02E00
00F00F40
00F00BC0
ENDCHAR
STARTCHAR uni04A2
ENCODING 1186
SWIDTH 662 0
DWIDTH 16 0
BBX 13 21 2 -4
BITMAP
F0003C00
F0003C00
F0003C00
F0003C00
F0003C00
F0003C00
F0003C00
FFFFFC00
FFFFFC00
F0003C00
F0003C00
F0003C00
F0003C00
F0003C00
F0003C00
F0003F80
F0003F80
00000780
00000780
00000780
00000780
ENDCHAR
STARTCHAR uni04A3
ENCODING 1187
SWIDTH 541 0
DWIDTH 13 0
BBX 12 17 1 -4
BITMAP
7802D0
7802D0
7802D0
7802D0
7802D0
7FFFD0
7EABD0
7802D0
7802D0
7802D0
7802D0
7802FD
7802FD
00002D
00002D
00002D
00002D
ENDCHAR
STARTCHAR uni04A4
ENCODING 1188
SWIDTH 829 0
DWIDTH 20 0
BBX 17 17 2 0
BITMAP
F0003FFFC0
F0003EAA80
F0003C0000
F0003C0000
F0003C0000
F0003C0000
F0003C0000
FFFFFC0000
FFFFFC0000
F0003C0000
F0003C0000
F0003C0000
F0003C0000
F0003C0000
F0003C0000
F0003C0000
F0003C0000
ENDCHAR
STARTCHAR uni04A5
ENCODING 1189
SWIDTH 614 0
DWIDTH 15 0
BBX 13 13 1 0
BITMAP
7802FF80
7802FA80
7802D000
7802D000
7802D000
7FFFD000
7EABD000
7802D000
7802D000
7802D000
7802D000
7802D000
7802D000
ENDCHAR
STARTCHAR uni04A6
ENCODING 1190
SWIDTH 880 0
DWIDTH 21 0
BBX 18 20 2 -3
BITMAP
FFFFFC0000
FFFFFC0000
F0007C0000
F0007C0000
F0007C0000
F0007C0000
F0007C0000
F0007FE800
F0007FFF00
F0007C1B80
F0007C03D0
F0007C01E0
F0007C01E0
F0007C01F0
F0007C01F0
F0007C01E0
F0007C02E0
00000007C0
0000002F80
0000002900
ENDCHAR
STARTCHAR uni04A7
ENCODING 1191
SWIDTH 755 0
DWIDTH 18 0
BBX 17 16 1 -3
BITMAP
7FFFD00000
7EABD00000
7802D00000
7802D00000
7802D00000
7802FF9000
7802FFF800
7802D07D00
7802D01F00
7802D00F00
7802D00F40
7802D00F00
7802D01F00
0000002D00
000000F800
000000A000
ENDCHAR
STARTCHAR uni04A8
ENCODING 1192
SWIDTH 641 0
DWIDTH 15 0
BBX 14 17 1 0
BITMAP
0281F800
0FC7FF00
2E0F4B80
3C1E07C0
782D03D0
B82D03D0
B83D02D0
B43D02D0
B43D02D0
B82D03D0
B82E03D0
781E07C0
3C0F4B80
2E0BEF40
0F82FE00
07FFFFD0
00BF86D0
ENDCHAR
STARTCHAR uni04A9
ENCODING 1193
SWIDTH 528 0
DWIDTH 13 0
BBX 11 13 1 0
BITMAP
0A1F80
2E3FE0
3CB8F0
78B4B4
B4F4B4
B4F4B4
B4F4B4
B4B4B4
78B8F4
3C3EF0
2E1FD0
0FFFFC
02F96C
ENDCHAR
STARTCHAR uni04AA
ENCODING 1194
SWIDTH 566 0
DWIDTH 14 0
BBX 12 22 1 -5
BITMAP
01BF80
0BFFF0
1F40B8
3D003C
7C002D
780019
B80000
B80000
B80000
B80000
B80000
780019
7C002D
3D003C
1F40B8
0BFFF0
01FF80
003C00
003C00
003C00
003C00
003C00
ENDCHAR
STARTCHAR uni04AB
ENCODING 1195
SWIDTH 461 0
DWIDTH 11 0
BBX 9 18 1 -5
BITMAP
06F900
2FFF40
7D0780
B803C0
B40180
F40000
F40000
F40000
B40040
B403C0
7D07C0
2FFF40
07F900
02D000
02D000
02D000
02D000
02D000
ENDCHAR
STARTCHAR uni04AC
ENCODING 1196
SWIDTH 520 0
DWIDTH 13 0
BBX 12 21 0 -4
BITMAP
7FFFFE
7FFFFE
002D00
002D00
002D00
002D00
002D00
002D00
002D00
002D00
002D00
002D00
002D00
002D00
002D00
002FC0
002FC0
0003C0
0003C0
0003C0
0003C0
ENDCHAR
STARTCHAR uni04AD
ENCODING 1197
SWIDTH 424 0
DWIDTH 10 0
BBX 10 17 0 -4
BITMAP
7FFFE0
6AFA90
00F000
00F000
00F000
00F000
00F000
00F000
00F000
00F000
00F000
00FF00
00FF00
001F00
001F00
001F00
001F00
ENDCHAR
STARTCHAR uni04AE
ENCODING 1198
SWIDTH 524 0
DWIDTH 13 0
BBX 12 17 0 0
BITMAP
7C001F
3D003E
2E007C
0F40B8
0B80F0
03C1E0
02D3D0
01F780
00BF40
007F00
003D00
002D00
002D00
002D00
002D00
002D00
002D00
ENDCHAR
STARTCHAR uni04AF
ENCODING 1199
SWIDTH 444 0
DWIDTH 11 0
BBX 9 18 1 -5
BITMAP
F003C0
F40780
B80B40
780F00
3C1E00
2D2D00
1E2C00
0F3C00
0BB800
07F400
03F000
02E000
02D000
02D000
02D000
02D000
02D000
02D000
ENDCHAR
STARTCHAR uni04B0
ENCODING 1200
SWIDTH 524 0
DWIDTH 13 0
BBX 12 17 0 0
BITMAP
7C001F
3D003E
1E007C
0F40B8
0B80F0
03C1E0
02D3D0
01F780
00BF40
03FFE0
02BF90
002D00
002D00
002D00
002D00
002D00
002D00
ENDCHAR
STARTCHAR uni04B1
ENCODING 1201
SWIDTH 444 0
DWIDTH 11 0
BBX 9 18 1 -5
BITMAP
F003C0
F40780
B80B40
780F00
3C1E00
2D2D00
1E2C00
0F3800
0BB800
07F400
03F000
2BFA00
2FFE00
02D000
02D000
02D000
02D000
02D000
ENDCHAR
STARTCHAR uni04B2
ENCODING 1202
SWIDTH 559 0
DWIDTH 13 0
BBX 12 21 1 -4
BITMAP
F8007C
7C00F8
2E01F0
1F03E0
0B87C0
07CF40
02FF00
00FD00
00BC00
01FD00
02EF00
07CB80
0B87C0
1F02E0
3E01F0
7C00BF
F8007F
00000F
00000F
00000F
00000F
ENDCHAR
STARTCHAR uni04B3
ENCODING 1203
SWIDTH 465 0
DWIDTH 11 0
BBX 10 17 1 -4
BITMAP
F40F80
781F00
3D2D00
1E7C00
0FB400
07E000
03D000
07F000
0FB400
2E3C00
3C2E00
B81FE0
F40BE0
0002E0
0002E0
0002E0
0002E0
ENDCHAR
STARTCHAR uni04B4
ENCODING 1204
SWIDTH 781 0
DWIDTH 19 0
BBX 17 21 0 -4
BITMAP
7FFFF42D00
2AFEA02D00
00B8002D00
00B8002D00
00B8002D00
00B8002D00
00B8002D00
00B8002D00
00B8002D00
00B8002D00
00B8002D00
00B8002D00
00B8002D00
00B8002D00
00B8002D00
00BFFFFF80
00BFFFFFC0
00000007C0
0000000780
0000000780
0000000780
ENDCHAR
STARTCHAR uni04B5
ENCODING 1205
SWIDTH 587 0
DWIDTH 14 0
BBX 13 17 0 -4
BITMAP
7FFE1F00
6BE91F00
03D01F00
03D01F00
03D01F00
03D01F00
03D01F00
03D01F00
03D01F00
03D01F00
03D01F00
03EAAF80
03FFFFC0
000003C0
000003C0
000003C0
000003C0
ENDCHAR
STARTCHAR uni04B6
ENCODING 1206
SWIDTH 638 0
DWIDTH 15 0
BBX 14 21 1 -4
BITMAP
78002D00
78002D00
78002D00
78002D00
78002D00
78002D00
7C002D00
3C002D00
2E417D00
1FFFFD00
02BA6D00
00002D00
00002D00
00002D00
00002D00
00002FD0
00002FD0
000003D0
000003D0
000003D0
000003D0
ENDCHAR
STARTCHAR uni04B7
ENCODING 1207
SWIDTH 512 0
DWIDTH 12 0
BBX 11 17 1 -4
BITMAP
B40780
B40780
B40780
B40780
B40780
B80780
7D0B80
2FFF80
06AB80
000780
000780
0007F8
0007F8
0000B8
0000B8
0000B8
0000B8
ENDCHAR
STARTCHAR uni04B8
ENCODING 1208
SWIDTH 595 0
DWIDTH 14 0
BBX 12 17 1 0
BITMAP
78002D
78002D
78002D
78002D
78002D
78182D
7C1C2D
3C1C2D
3E1D7D
1FFFFD
06FEAD
001C2D
001C2D
00182D
00002D
00002D
00002D
ENDCHAR
STARTCHAR uni04B9
ENCODING 1209
SWIDTH 483 0
DWIDTH 12 0
BBX 9 13 1 0
BITMAP
B803C0
B803C0
B803C0
B843C0
78E3C0
78E3C0
3DE7C0
1FFFC0
06FBC0
00E3C0
0053C0
0003C0
0003C0
ENDCHAR
STARTCHAR uni04BA
ENCODING 1210
SWIDTH 595 0
DWIDTH 14 0
BBX 12 17 1 0
BITMAP
B80000
B80000
B80000
B80000
B80000
B80000
BAFF90
BFFFF4
B900B8
B8003C
B8003D
B8003D
B8003D
B8003D
B8003D
B8003D
B8003D
ENDCHAR
STARTCHAR uni04BB
ENCODING 1211
SWIDTH 482 0
DWIDTH 12 0
BBX 9 18 1 0
BITMAP
780000
780000
780000
780000
780000
79BD00
7FFF40
7E0B80
7803C0
7803C0
7803C0
7803C0
7803C0
7803C0
7803C0
7803C0
7803C0
7803C0
ENDCHAR
STARTCHAR uni04BC
ENCODING 1212
SWIDTH 674 0
DWIDTH 16 0
BBX 14 17 1 0
BITMAP
0007F800
002FFF00
00B80B80
01F003D0
E2E002E0
F2D001E0
BBD001E0
2FFFFFF0
07EAAAA0
03D00000
02D00000
02D00000
01E00000
00F40000
00BD0140
002FFFC0
0006FE40
ENDCHAR
STARTCHAR uni04BD
ENCODING 1213
SWIDTH 518 0
DWIDTH 12 0
BBX 12 13 0 0
BITMAP
006F90
01FFF4
93D0B8
E7803C
BB402D
7FFFFD
0FEAA9
0B4000
0B8000
07C000
03E02C
01FEF8
006F90
ENDCHAR
STARTCHAR uni04BE
ENCODING 1214
SWIDTH 674 0
DWIDTH 16 0
BBX 14 22 1 -5
BITMAP
0007F800
002FFF00
00B80B80
01F003D0
E2E002E0
F2D001E0
BBD001E0
2FFFFFF0
07EAAAA0
03D00000
02D00000
02D00000
01E00000
00F40000
00BD0140
002FFFC0
0007FE40
0000F000
0000F000
0000F000
0000F000
0000F000
ENDCHAR
STARTCHAR uni04BF
ENCODING 1215
SWIDTH 518 0
DWIDTH 12 0
BBX 12 18 0 -5
BITMAP
006F90
01FFF4
93D0B8
E7803C
BB402D
7FFFFD
0FEAA9
0B4000
0B8000
07C000
03E02C
01FEF8
006FD0
000B40
000B40
000B40
000B40
000B40
ENDCHAR
STARTCHAR uni04C0
ENCODING 1216
SWIDTH 250 0
DWIDTH 6 0
BBX 2 17 2 0
BITMAP
F0
F0
F0
F0
F0
F0
F0
F0
F0
F0
F0
F0
F0
F0
F0
F0
F0
ENDCHAR
STARTCHAR uni04C1
ENCODING 1217
SWIDTH 791 0
DWIDTH 19 0
BBX 19 23 0 0
BITMAP
0005014000
000B03C000
00079B4000
0001BD0000
0000000000
0000000000
2E007802F0
1F407803D0
0B80780B80
03D0780F40
02E0782E00
00F4783C00
007878B800
003FFFF000
007FFFF400
00B878BC00
01F4783D00
02E0782F00
07D0780F40
0B80780BC0
1F407807D0
2F007802F0
7D007801F4
ENDCHAR
STARTCHAR uni04C2
ENCODING 1218
SWIDTH 662 0
DWIDTH 16 0
BBX 15 19 0 0
BITMAP
00500400
00742D00
003DB800
000BE000
00000000
00000000
3D03C0B8
1F03C0F4
0B43C2E0
07C3C3C0
02D3CB80
00FFFF00
01FFFF00
02D3CB80
07C3C3C0
0B83C2E0
1F03C1F0
2E03C0F8
7D03C07C
ENDCHAR
STARTCHAR uni04C3
ENCODING 1219
SWIDTH 553 0
DWIDTH 13 0
BBX 12 21 1 -4
BITMAP
7C007D
7C00F4
7C02E0
7C07C0
7C1F40
7C2E00
7CB800
7FFE40
7FFFD0
7C02F4
7C00B8
7C003C
7C003D
7C002D
7C002D
7C002D
7C003D
00007C
0000B8
0007F0
000780
ENDCHAR
STARTCHAR uni04C4
ENCODING 1220
SWIDTH 481 0
DWIDTH 12 0
BBX 10 16 1 -3
BITMAP
7803D0
780B80
782E00
787C00
78F400
7FF800
7FFF40
780BC0
7803D0
7802D0
7801E0
7802E0
7802D0
0007C0
002F40
001900
ENDCHAR
STARTCHAR uni04C5
ENCODING 1221
SWIDTH 662 0
DWIDTH 16 0
BBX 15 21 0 -4
BITMAP
01FFFF80
01FFFF80
01F00780
01E00780
01E00780
01E00780
01E00780
01E00780
01E00780
01E00780
02E00780
02D00780
02D00780
03C00780
0B800780
7F4007E8
790007FC
0000003C
00000078
000000B4
00000090
ENDCHAR
STARTCHAR uni04C6
ENCODING 1222
SWIDTH 551 0
DWIDTH 13 0
BBX 13 17 0 -4
BITMAP
03FFF400
03EAF400
03C0B400
03C0B400
03C0B400
03C0B400
03C0B400
0780B400
0780B400
0780B400
0F40B400
7F00BA40
7800BF80
00000780
00000B40
00000F00
00001900
ENDCHAR
STARTCHAR uni04C7
ENCODING 1223
SWIDTH 620 0
DWIDTH 15 0
BBX 11 22 2 -5
BITMAP
F0007C
F0007C
F0007C
F0007C
F0007C
F0007C
F0007C
FFFFFC
FFFFFC
F0007C
F0007C
F0007C
F0007C
F0007C
F0007C
F0007C
F0007C
00007C
000078
0000B8
0007F4
0007D0
ENDCHAR
STARTCHAR uni04C8
ENCODING 1224
SWIDTH 498 0
DWIDTH 12 0
BBX 10 18 1 -5
BITMAP
7802D0
7802D0
7802D0
7802D0
7802D0
7FFFD0
7EABD0
7802D0
7802D0
7802D0
7802D0
7802D0
7802D0
0002D0
0002D0
0003C0
002F80
003E00
ENDCHAR
STARTCHAR uni04C9
ENCODING 1225
SWIDTH 671 0
DWIDTH 16 0
BBX 14 21 2 -4
BITMAP
F0003C00
F0003C00
F0003C00
F0003C00
F0003C00
F0003C00
F0003C00
FFFFFC00
FFFFFC00
F0003C00
F0003C00
F0003C00
F0003C00
F0003C00
F0003C00
F0003E80
F0003FD0
000003C0
000003C0
00000B40
00000A00
ENDCHAR
STARTCHAR uni04CA
ENCODING 1226
SWIDTH 550 0
DWIDTH 13 0
BBX 12 17 1 -4
BITMAP
7802D0
7802D0
7802D0
7802D0
7802D0
7FFFD0
7EABD0
7802D0
7802D0
7802D0
7802D0
7802E9
7802FE
00001E
00002D
00003C
000064
ENDCHAR
STARTCHAR uni04CB
ENCODING 1227
SWIDTH 600 0
DWIDTH 14 0
BBX 12 21 1 -4
BITMAP
78002D
78002D
78002D
78002D
78002D
78002D
7C002D
3C002D
2E417D
1FFFFD
02BA6D
00002D
00002D
00002D
00002D
0001FD
0001FD
0001E0
0001E0
0001E0
0001E0
ENDCHAR
STARTCHAR uni04CC
ENCODING 1228
SWIDTH 479 0
DWIDTH 12 0
BBX 9 17 1 -4
BITMAP
B40780
B40780
B40780
B40780
B40780
B80780
7D0B80
2FFF80
06AB80
000780
000780
003F80
003F80
003C00
003C00
003C00
003C00
ENDCHAR
STARTCHAR uni04CD
ENCODING 1229
SWIDTH 801 0
DWIDTH 19 0
BBX 17 21 2 -4
BITMAP
F80002F400
FC0003F400
FD0007F400
FE000BF400
FF000FB400
FB401EB400
F7802DB400
F3C03CB400
F2D078B400
F1E0B4F400
F0F0F0F400
F0B5E0F400
F079D0F400
F03EC0F400
F02F80F400
F01F40FA40
F00F00FF40
0000000B40
0000000F00
0000001E00
0000001800
ENDCHAR
STARTCHAR uni04CE
ENCODING 1230
SWIDTH 687 0
DWIDTH 17 0
BBX 15 17 1 -4
BITMAP
7E000F80
7F001F80
7F402F80
7F803F80
7BC07B80
7AD0B780
79E0E780
78F1D780
78B6C780
787B8780
782F4780
781F07E8
780E07FC
0000007C
00000078
000000B4
00000090
ENDCHAR
STARTCHAR uni04CF
ENCODING 1231
SWIDTH 250 0
DWIDTH 6 0
BBX 2 17 2 0
BITMAP
F0
F0
F0
F0
F0
F0
F0
F0
F0
F0
F0
F0
F0
F0
F0
F0
F0
ENDCHAR
STARTCHAR uni04D0
ENCODING 1232
SWIDTH 576 0
DWIDTH 14 0
BBX 14 23 0 0
BITMAP
01401400
01D07400
00F6F000
002F8000
00000000
00000000
000F0000
001F4000
002F8000
003BC000
0076D000
00B5E000
00F0F000
01E0B400
02D07800
03C07C00
07803D00
0BFFFE00
0FFFFF00
1E000F40
2E000B80
3D0007C0
7C0003D0
ENDCHAR
STARTCHAR uni04D1
ENCODING 1233
SWIDTH 479 0
DWIDTH 12 0
BBX 9 19 1 0
BITMAP
140140
1D0740
0F6F00
02F800
000000
000000
06F900
2FBF00
7C0B80
640780
000780
06FF80
2FAB80
7C0780
B80780
B40780
781FC0
3FFBC0
1BE3C0
ENDCHAR
STARTCHAR uni04D2
ENCODING 1234
SWIDTH 576 0
DWIDTH 14 0
BBX 14 21 0 0
BITMAP
00401000
02E0B800
02D07400
00000000
000F0000
001F4000
002F8000
003BC000
0076D000
00B5E000
00F0F000
01E0B400
02D07800
03C07C00
07803D00
0BFFFE00
0FFFFF00
1E000F40
2E000B80
3D0007C0
7C0003D0
ENDCHAR
STARTCHAR uni04D3
ENCODING 1235
SWIDTH 479 0
DWIDTH 12 0
BBX 9 18 1 0
BITMAP
040100
2E0B80
2D0780
000000
000000
06F900
2FBF00
7C0B80
640780
000780
06FF80
2FAB80
7C0780
B80780
B40780
781FC0
3FFBC0
1BE3C0
ENDCHAR
STARTCHAR uni04D4
ENCODING 1236
SWIDTH 812 0
DWIDTH 19 0
BBX 19 17 0 0
BITMAP
0000BFFFF4
0000FFAAA4
0002FE0000
0003EE0000
000B9E0000
001F1E0000
002E1E0000
007C1FFFE0
00B81FAA90
01F01E0000
02E01F0000
07FFFF0000
0BFFFF0000
1F401F0000
2E000F0000
7D000FAAA8
B8000FFFFC
ENDCHAR
STARTCHAR uni04D5
ENCODING 1237
SWIDTH 728 0
DWIDTH 17 0
BBX 16 13 1 0
BITMAP
0BF82F90
3FBEBFF4
B80FE07C
640BC02D
000B802E
1BFFFFFE
7FAFEAA9
B80B8000
F00B8000
F00BD000
B41FE018
7FFDBEFD
1FE02FE4
ENDCHAR
STARTCHAR uni04D6
ENCODING 1238
SWIDTH 496 0
DWIDTH 12 0
BBX 9 23 2 0
BITMAP
140500
380E00
2E6D00
0BE400
000000
000000
FFFFC0
FFFF80
F00000
F00000
F00000
F00000
F00000
FFFF00
FFFF00
F00000
F00000
F00000
F00000
F00000
F00000
FFFFC0
FFFFC0
ENDCHAR
STARTCHAR uni04D7
ENCODING 1239
SWIDTH 468 0
DWIDTH 11 0
BBX 10 19 1 0
BITMAP
140500
2D0B00
0F6E00
06F800
000000
000000
06F900
1FFF40
3D0B80
B803C0
B402D0
BFFFD0
FAAA90
F40000
B40000
B80000
7D0280
2FEF80
06F900
ENDCHAR
STARTCHAR uni04D8
ENCODING 1240
SWIDTH 597 0
DWIDTH 14 0
BBX 12 17 1 0
BITMAP
06FE40
1FFFE0
0901F4
00007C
00002D
00001E
00001F
00001F
FFFFFF
FAAAAF
F4001F
B4001E
B4002D
7C007C
2E01F4
0FFFD0
01BE40
ENDCHAR
STARTCHAR uni04D9
ENCODING 1241
SWIDTH 465 0
DWIDTH 11 0
BBX 10 13 1 0
BITMAP
1BE400
7FBE00
240F40
000780
0003C0
0003C0
BFFFD0
BEABC0
B403C0
B80780
7C0F40
2FBE00
07F400
ENDCHAR
STARTCHAR uni04DA
ENCODING 1242
SWIDTH 597 0
DWIDTH 14 0
BBX 12 21 1 0
BITMAP
050140
1F07C0
1E03C0
000000
06FE40
1FFFE0
0901F4
00007C
00002D
00001E
00001F
00001F
FFFFFF
FAAAAF
F4001F
B4001E
B4002D
7C007C
2E01F4
0FFFD0
01BE40
ENDCHAR
STARTCHAR uni04DB
ENCODING 1243
SWIDTH 465 0
DWIDTH 11 0
BBX 10 18 1 0
BITMAP
140500
3D0F40
2D0B40
000000
000000
1BE400
7FBE00
240F40
000780
0003C0
0003C0
BFFFD0
BEABC0
B403C0
B80780
7C0F40
2FBE00
07F400
ENDCHAR
STARTCHAR uni04DC
ENCODING 1244
SWIDTH 791 0
DWIDTH 19 0
BBX 19 21 0 0
BITMAP
0005014000
000F43D000
000F03C000
0000000000
2E007802F0
1F407803D0
0B80780B80
03D0780F40
02E0782E00
00F4783C00
007878B800
003FFFF000
007FFFF400
00B878BC00
01F4783D00
02E0782F00
07D0780F40
0B80780BC0
1F407807D0
2F007802F0
7D007801F4
ENDCHAR
STARTCHAR uni04DD
ENCODING 1245
SWIDTH 662 0
DWIDTH 16 0
BBX 15 18 0 0
BITMAP
00100400
00B82E00
00B42D00
00000000
00000000
3D03C0B8
1F03C0F4
0B43C2E0
07C3C3C0
02D3CB80
00FFFF00
01FFFF00
02D3CB80
07C3C3C0
0B83C2E0
1F03C1F0
2E03C0F8
7D03C07C
ENDCHAR
STARTCHAR uni04DE
ENCODING 1246
SWIDTH 517 0
DWIDTH 12 0
BBX 11 21 1 0
BITMAP
050140
2F0BC0
1E0780
000000
06FE00
2FFFD0
7D02E0
B801F0
6400F0
0001F0
0006D0
01FF40
01FF80
0002E0
0000F0
0000B4
A000F4
F400F0
7D02E0
2FFFC0
06FE00
ENDCHAR
STARTCHAR uni04DF
ENCODING 1247
SWIDTH 446 0
DWIDTH 11 0
BBX 9 18 1 0
BITMAP
140500
7C1F00
780E00
000000
000000
0BF800
3FBE00
B80F40
A40B40
001F00
07FD00
06FE00
000F40
000B40
F40B40
B80F40
7FBE00
0BF800
ENDCHAR
STARTCHAR uni04E0
ENCODING 1248
SWIDTH 510 0
DWIDTH 12 0
BBX 10 17 1 0
BITMAP
7FFFD0
7FFFD0
000B80
001E00
003C00
00B400
02E000
03F900
02BF80
0007D0
0002E0
0001E0
B401E0
B802E0
7D07D0
2FFF80
06F900
ENDCHAR
STARTCHAR uni04E1
ENCODING 1249
SWIDTH 510 0
DWIDTH 12 0
BBX 10 18 1 -5
BITMAP
7FFFD0
6AAFC0
000F80
002E00
007C00
00F400
02E000
03F900
02BF40
0007C0
0002E0
0001E0
1001E0
B401E0
B802E0
7D07D0
1FFF40
06F900
ENDCHAR
STARTCHAR uni04E2
ENCODING 1250
SWIDTH 619 0
DWIDTH 15 0
BBX 11 21 2 0
BITMAP
0AAA80
0FFFC0
000000
000000
F000BC
F000FC
F002FC
F003FC
F00BBC
F00F7C
F02D7C
F03C7C
F0B47C
F0F07C
F2D07C
F7C07C
FB407C
FF007C
FD007C
FC007C
F4007C
ENDCHAR
STARTCHAR uni04E3
ENCODING 1251
SWIDTH 509 0
DWIDTH 12 0
BBX 10 17 1 0
BITMAP
0AAA40
1FFF80
000000
000000
7802D0
7807D0
780BD0
781FD0
782ED0
7876D0
78B2D0
79D2D0
7AC2D0
7F82D0
7F02D0
7E02D0
7C02D0
ENDCHAR
STARTCHAR uni04E4
ENCODING 1252
SWIDTH 619 0
DWIDTH 15 0
BBX 11 21 2 0
BITMAP
050140
1F07D0
0F03C0
000000
F000BC
F000FC
F002FC
F003FC
F00BBC
F00F7C
F02D7C
F03C7C
F0B47C
F0F07C
F2D07C
F7C07C
FB407C
FF007C
FD007C
FC007C
F4007C
ENDCHAR
STARTCHAR uni04E5
ENCODING 1253
SWIDTH 509 0
DWIDTH 12 0
BBX 10 18 1 0
BITMAP
050140
2E0BC0
1E0780
000000
000000
7802D0
7807D0
780BD0
781FD0
782ED0
7876D0
78B2D0
79D2D0
7AC2D0
7F82D0
7F02D0
7E02D0
7C02D0
ENDCHAR
STARTCHAR uni04E6
ENCODING 1254
SWIDTH 600 0
DWIDTH 14 0
BBX 12 21 1 0
BITMAP
014050
07C1F0
0781E0
000000
01BF80
0BFFF0
1F41B8
3D003D
7C002E
78001E
78001F
B8001F
B8001F
B8001F
B8001F
78001F
7C002E
3D003D
1F40BC
0BFFF4
01BF80
ENDCHAR
STARTCHAR uni04E7
ENCODING 1255
SWIDTH 501 0
DWIDTH 12 0
BBX 10 18 1 0
BITMAP
040100
2E0B80
2D0B40
000000
000000
06F900
1FFF40
3D07D0
B802E0
B401E0
F401F0
F400F0
F401F0
B401E0
B802E0
3D07D0
1FFF40
06F900
ENDCHAR
STARTCHAR uni04E8
ENCODING 1256
SWIDTH 593 0
DWIDTH 14 0
BBX 12 17 1 0
BITMAP
01BE40
0BFFE0
1F41F4
3D007C
78002D
B8001E
B4001E
BFFFFE
BEAABF
B4001E
B4001E
B8002E
7C003D
3D007C
1F41F4
0BFFE0
01BE40
ENDCHAR
STARTCHAR uni04E9
ENCODING 1257
SWIDTH 497 0
DWIDTH 12 0
BBX 10 13 1 0
BITMAP
06F900
1FFF40
3D07C0
7802D0
B401E0
BFFFF0
FEAAF0
B401F0
B801E0
7C03D0
3D07C0
1FFF40
06F900
ENDCHAR
STARTCHAR uni04EA
ENCODING 1258
SWIDTH 593 0
DWIDTH 14 0
BBX 12 21 1 0
BITMAP
014050
07C1F0
0781E0
000000
01BE40
0BFFE0
1F41F4
3D007C
78002D
B8001E
B4001E
BFFFFE
BEAABF
B4001E
B4001E
B8002E
7C003D
3D007C
1F41F4
0BFFE0
01BE40
ENDCHAR
STARTCHAR uni04EB
ENCODING 1259
SWIDTH 497 0
DWIDTH 12 0
BBX 10 18 1 0
BITMAP
140500
3D0F40
2D0B40
000000
000000
06F900
1FFF40
3D07C0
7802D0
B401E0
BFFFF0
FEAAF0
B401F0
B801E0
7C03D0
3D07C0
1FFF40
06F900
ENDCHAR
STARTCHAR uni04EC
ENCODING 1260
SWIDTH 589 0
DWIDTH 14 0
BBX 11 21 2 0
BITMAP
040100
2E0B80
1E0780
000000
06F900
2FFF80
7D07E0
F400F0
F000B4
A00078
000078
02FFFC
02FFFC
00007C
000078
5000B8
F000B4
F401F0
7D07E0
2FFF80
06F900
ENDCHAR
STARTCHAR uni04ED
ENCODING 1261
SWIDTH 472 0
DWIDTH 11 0
BBX 9 18 1 0
BITMAP
140500
3D0F40
2D0B40
000000
000000
0BE400
2FFE00
B81F40
A40780
0003C0
02FFC0
02ABC0
0003C0
6007C0
B40B80
781F00
2FBD00
0BE400
ENDCHAR
STARTCHAR uni04EE
ENCODING 1262
SWIDTH 547 0
DWIDTH 13 0
BBX 11 21 1 0
BITMAP
0AAA80
0BFFC0
000000
000000
B8007C
7C00B8
3D00F4
2E01F0
1F02E0
0F43D0
0787C0
03CB80
02DF40
01FF00
00FE00
00BD00
007C00
00B800
00F000
0FE000
0F8000
ENDCHAR
STARTCHAR uni04EF
ENCODING 1263
SWIDTH 416 0
DWIDTH 10 0
BBX 10 22 0 -5
BITMAP
0AAA40
0FFF80
000000
000000
7802D0
3C03C0
3D0780
2E0B80
1E0B40
0F0F00
0B5E00
07AD00
03AC00
02FC00
02F800
01F400
00F000
00E000
01D000
03C000
3F8000
3E0000
ENDCHAR
STARTCHAR uni04F0
ENCODING 1264
SWIDTH 547 0
DWIDTH 13 0
BBX 11 21 1 0
BITMAP
050140
0F43D0
0B02D0
000000
B8007C
7C00B8
3D00F4
2E01F0
1F02E0
0F43D0
0787C0
03CB80
02DF40
01FF00
00FE00
00BD00
007C00
00B800
00F000
0FE000
0F8000
ENDCHAR
STARTCHAR uni04F1
ENCODING 1265
SWIDTH 416 0
DWIDTH 10 0
BBX 10 23 0 -5
BITMAP
050140
1F07C0
1E0780
000000
000000
7802D0
3C03C0
3D0780
2E0B80
1E0B40
0F0F00
0B5E00
07AD00
03AC00
02FC00
02F800
01F400
00F000
00E000
01D000
03C000
3F8000
3E0000
ENDCHAR
STARTCHAR uni04F2
ENCODING 1266
SWIDTH 547 0
DWIDTH 13 0
BBX 11 22 1 0
BITMAP
00B9F0
00F3D0
02DB80
028B00
000000
B8007C
7C00B8
3D00F4
2E01F0
1F02E0
0F43D0
0787C0
03CB80
02DF40
01FF00
00FE00
00BD00
007C00
00B800
00F000
0FE000
0F8000
ENDCHAR
STARTCHAR uni04F3
ENCODING 1267
SWIDTH 416 0
DWIDTH 10 0
BBX 10 24 0 -5
BITMAP
00F2E0
01E7C0
03CF40
029A00
000000
000000
7802D0
3C03C0
3D0780
2E0B80
1E0B40
0F0F00
0B5E00
07AD00
03AC00
02FC00
02F800
01F400
00F000
00E000
01D000
03C000
3F8000
3E0000
ENDCHAR
STARTCHAR uni04F4
ENCODING 1268
SWIDTH 600 0
DWIDTH 14 0
BBX 12 21 1 0
BITMAP
010040
0B82E0
0741E0
000000
78002D
78002D
78002D
78002D
78002D
78002D
7C002D
3C002D
2E417D
1FFFFD
02BA6D
00002D
00002D
00002D
00002D
00002D
00002D
ENDCHAR
STARTCHAR uni04F5
ENCODING 1269
SWIDTH 479 0
DWIDTH 12 0
BBX 9 18 1 0
BITMAP
140500
7C1F40
3C0F00
000000
000000
B40780
B40780
B40780
B40780
B40780
B80780
7D0B80
2FFF80
06AB80
000780
000780
000780
000780
ENDCHAR
STARTCHAR uni04F6
ENCODING 1270
SWIDTH 487 0
DWIDTH 12 0
BBX 9 21 2 -4
BITMAP
FFFF80
FFFF80
F00000
F00000
F00000
F00000
F00000
F00000
F00000
F00000
F00000
F00000
F00000
F00000
F00000
FF0000
FF0000
1F0000
1F0000
1F0000
1F0000
ENDCHAR
STARTCHAR uni04F7
ENCODING 1271
SWIDTH 371 0
DWIDTH 9 0
BBX 8 17 1 -4
BITMAP
7FFE
7EA9
7800
7800
7800
7800
7800
7800
7800
7800
7800
7F80
7F80
0780
0780
0780
0780
ENDCHAR
STARTCHAR uni04F8
ENCODING 1272
SWIDTH 755 0
DWIDTH 18 0
BBX 14 21 2 0
BITMAP
00401000
02E0B800
01E07800
00000000
F00000F0
F00000F0
F00000F0
F00000F0
F00000F0
F00000F0
F00000F0
FFFE40F0
FFFFD0F0
F002F0F0
F000F4F0
F000B4F0
F000B4F0
F000F4F0
F002F0F0
FFFFD0F0
FFFE40F0
ENDCHAR
STARTCHAR uni04F9
ENCODING 1273
SWIDTH 679 0
DWIDTH 16 0
BBX 14 18 1 0
BITMAP
00401000
02E0B800
02D07400
00000000
00000000
780002D0
780002D0
780002D0
780002D0
7FFD02D0
7EAF82D0
7807C2D0
7803D2D0
7802D2D0
7802D2D0
7807C2D0
7EAF42D0
7FFD02D0
ENDCHAR
STARTCHAR uni04FA
ENCODING 1274
SWIDTH 520 0
DWIDTH 13 0
BBX 11 22 1 -5
BITMAP
1FFFF8
1FFFF8
1F0000
1F0000
1F0000
1F0000
1F0000
FFF400
BFA400
1F0000
1F0000
1F0000
1F0000
1F0000
1F0000
1FA000
1FE000
01E000
01E000
02E000
2FC000
2E4000
ENDCHAR
STARTCHAR uni04FB
ENCODING 1275
SWIDTH 410 0
DWIDTH 10 0
BBX 9 18 1 -5
BITMAP
1FFF40
1FAA40
1E0000
1E0000
1E0000
FFF400
BFA400
1E0000
1E0000
1E0000
1E0000
1F9000
1FE000
02E000
02E000
02D000
2FC000
2E4000
ENDCHAR
STARTCHAR uni04FC
ENCODING 1276
SWIDTH 570 0
DWIDTH 14 0
BBX 13 22 1 -5
BITMAP
F8007C00
7C00F800
2E01F000
1F03E000
0B87C000
07CF4000
02FF0000
00FD0000
00BC0000
01FD0000
02EF0000
07CB8000
0B87C000
1F02E000
3E01F000
7C00BE40
F8007F40
00000F40
00000F00
00001F00
0000FE00
0000F800
ENDCHAR
STARTCHAR uni04FD
ENCODING 1277
SWIDTH 476 0
DWIDTH 11 0
BBX 10 18 1 -5
BITMAP
F40F80
781F00
3D2D00
1E7C00
0FB400
07E000
03D000
07F000
0FB400
2E3C00
3C2E00
B81FE0
F40BE0
0001E0
0001E0
0002E0
001FD0
001E40
ENDCHAR
STARTCHAR uni04FE
ENCODING 1278
SWIDTH 550 0
DWIDTH 13 0
BBX 12 17 1 0
BITMAP
B8007C
7C00F8
2E01F0
0F03D0
0B87C0
03CF40
01FE00
0BFFC0
06FF80
01FE00
03EF40
07CB80
0F87D0
1F02E0
3E01F4
7C00B8
F8007D
ENDCHAR
STARTCHAR uni04FF
ENCODING 1279
SWIDTH 438 0
DWIDTH 11 0
BBX 9 13 1 0
BITMAP
F40F40
781F00
3D2D00
1E7800
0BB400
3FFD00
2FF900
0BF000
0FB800
2E3C00
3C2E00
B81F00
F40B80
ENDCHAR
STARTCHAR uni0500
ENCODING 1280
SWIDTH 555 0
DWIDTH 13 0
BBX 11 17 1 0
BITMAP
0000B8
0000B8
0000B8
0000B8
0000B8
0000B8
0000B8
06FFF8
2FFFF8
7D00B8
B800B8
B400B8
B400B8
B800B8
7D00B8
2FFFF8
06FFF8
ENDCHAR
STARTCHAR uni0501
ENCODING 1281
SWIDTH 496 0
DWIDTH 12 0
BBX 10 18 1 0
BITMAP
0002D0
0002D0
0002D0
0002D0
0002D0
0BE6D0
2FFFD0
7D0BD0
B803D0
B402D0
F402D0
F402D0
F402D0
B402D0
B803D0
7D07D0
2FFFD0
0BE6D0
ENDCHAR
STARTCHAR uni0502
ENCODING 1282
SWIDTH 723 0
DWIDTH 17 0
BBX 16 17 1 0
BITMAP
0000B800
0000B800
0000B800
0000B800
0000B800
0000B800
0000B800
06FFF800
2FFFF82C
7D00B82D
B800B82E
B400B82E
B400B82E
B800B82D
7D00B87C
2FFFFFF8
06FFFFD0
ENDCHAR
STARTCHAR uni0503
ENCODING 1283
SWIDTH 743 0
DWIDTH 18 0
BBX 16 18 1 0
BITMAP
0003C000
0003C000
0003C000
0003C000
0003C000
07E7C000
1FFFC000
3D0BC03C
7803C02D
B403C02D
B403C02D
B403C02E
B403C02D
B403C02D
B803D03C
3D0BE0B8
2FFDFFE0
07E47F80
ENDCHAR
STARTCHAR uni0504
ENCODING 1284
SWIDTH 685 0
DWIDTH 16 0
BBX 15 17 0 0
BITMAP
7FF80000
7FFF4000
000B8000
0007C000
0003C000
0003C010
0007C0B4
001F4078
07FD0078
07FE007C
000B807C
0007C07C
0003D078
0003D0B4
0002E1F0
0001FFD0
00007F40
ENDCHAR
STARTCHAR uni0505
ENCODING 1285
SWIDTH 562 0
DWIDTH 14 0
BBX 13 13 0 0
BITMAP
7FE00000
6AFC0000
003D0000
002E0000
002E0F00
007D0B40
1FF40B80
1AFC0780
002E0B80
001E0B40
001E1F00
000FFD00
0007F400
ENDCHAR
STARTCHAR uni0506
ENCODING 1286
SWIDTH 470 0
DWIDTH 11 0
BBX 10 20 1 -3
BITMAP
FF9000
ABF400
007C00
002D00
002D00
002D00
003D00
00B800
3FE000
2BF400
007C00
002D00
002D00
002D00
002E40
002FD0
001FD0
0003C0
000780
000600
ENDCHAR
STARTCHAR uni0507
ENCODING 1287
SWIDTH 443 0
DWIDTH 11 0
BBX 9 17 1 -4
BITMAP
BF9000
6AF800
007D00
002D00
002D00
007C00
3FF000
2AF800
003D00
002D00
002E40
002FC0
001FC0
0003C0
000780
000B40
000600
ENDCHAR
STARTCHAR uni0508
ENCODING 1288
SWIDTH 834 0
DWIDTH 20 0
BBX 18 17 1 0
BITMAP
03FFFE0000
03FFFE0000
03C01E0000
03C01E0000
03C01E0000
03C01E0000
07C01E02E0
07C01E01E0
07801E01F0
07801E00F0
07801E00F0
07801E00F0
0B401E01F0
0F401E02E0
1F001F47C0
FD000BFF40
F40002F900
ENDCHAR
STARTCHAR uni0509
ENCODING 1289
SWIDTH 698 0
DWIDTH 17 0
BBX 15 13 1 0
BITMAP
0BFFD000
0BEBD000
0B42D050
0B42D078
0F42D078
0F02D03C
0F02D03C
0F02D03C
0F02D03C
1E02D078
2D02E0B4
FC01FFE0
F4006F80
ENDCHAR
STARTCHAR uni050A
ENCODING 1290
SWIDTH 864 0
DWIDTH 21 0
BBX 19 17 1 0
BITMAP
7C001F0000
7C001F0000
7C001F0000
7C001F0000
7C001F0000
7C001F0000
7C001F01E0
7FFFFF01F0
7FFFFF00F0
7C001F00F0
7C001F00F4
7C001F00F0
7C001F00F0
7C001F01E0
7C000F47D0
7C000BFF80
7C0002F900
ENDCHAR
STARTCHAR uni050B
ENCODING 1291
SWIDTH 716 0
DWIDTH 17 0
BBX 16 13 1 0
BITMAP
7802D000
7802D000
7802D014
7802D078
7802D03C
7FFFD03C
7EABD03D
7802D03D
7802D03C
7801E07C
7801F0B8
7800BFF0
78002F80
ENDCHAR
STARTCHAR uni050C
ENCODING 1292
SWIDTH 541 0
DWIDTH 13 0
BBX 11 17 1 0
BITMAP
01BF80
0BFFD0
1F4040
3D0000
7C0000
B80000
B80000
B40054
B400B8
B40078
B80078
B8007C
7C007C
3D00B8
1F41F4
0BFFE0
01BE40
ENDCHAR
STARTCHAR uni050D
ENCODING 1293
SWIDTH 452 0
DWIDTH 11 0
BBX 9 13 1 0
BITMAP
06F900
1FFD00
3D0000
780000
B40000
B40000
B40640
B40780
B40780
780780
3D0B80
1FFF00
06F900
ENDCHAR
STARTCHAR uni050E
ENCODING 1294
SWIDTH 616 0
DWIDTH 15 0
BBX 14 17 0 0
BITMAP
7FFFFF00
7FFFFE00
003D0000
003D0000
003D0000
003D0040
003D03C0
003D02D0
003D02D0
003D02E0
003D02E0
003D02E0
003D02D0
002D03C0
002E0B80
001FFF00
0006F800
ENDCHAR
STARTCHAR uni050F
ENCODING 1295
SWIDTH 558 0
DWIDTH 13 0
BBX 12 13 1 0
BITMAP
FFFFC0
ABFA80
02D000
02D000
02D078
02D03C
02D03C
02D03D
02D03C
02E03C
01F0B8
00FFF0
002F80
ENDCHAR
STARTCHAR uni0510
ENCODING 1296
SWIDTH 589 0
DWIDTH 14 0
BBX 12 17 1 0
BITMAP
01BF90
0BFFF4
2F40BD
3D002E
3D0019
3D0000
1F4000
07FF00
0BFF00
2F4000
3D0000
7C0000
7C001A
3D002E
2F407D
0BFFF8
01BF90
ENDCHAR
STARTCHAR uni0511
ENCODING 1297
SWIDTH 470 0
DWIDTH 11 0
BBX 9 13 1 0
BITMAP
0BF900
3FBF40
B80B80
B40140
7D0000
1FF800
2FA400
B80000
B40000
B403C0
B80BC0
3FBF40
0BF900
ENDCHAR
STARTCHAR uni0512
ENCODING 1298
SWIDTH 664 0
DWIDTH 16 0
BBX 15 22 0 -5
BITMAP
01FFFF80
01FFFF80
01F00780
01E00780
01E00780
01E00780
01E00780
01E00780
01E00780
01E00780
02E00780
02D00780
02D00780
03C00780
0B800780
7F4007E8
790007FC
0000007C
00000078
000000B8
000007F4
000007D0
ENDCHAR
STARTCHAR uni0513
ENCODING 1299
SWIDTH 553 0
DWIDTH 13 0
BBX 13 18 0 -5
BITMAP
03FFF400
03EAF400
03C0B400
03C0B400
03C0B400
03C0B400
03C0B400
0780B400
0780B400
0780B400
0F40B400
7F00BE40
7800BF80
00000B80
00000B80
00000B40
0000BF00
0000B900
ENDCHAR
STARTCHAR uni1E00
ENCODING 7680
SWIDTH 576 0
DWIDTH 14 0
BBX 14 22 0 -5
BITMAP
000F0000
001F4000
002F8000
003BC000
0076D000
00B5E000
00F0F000
01E0B400
02D07800
03C07C00
07803D00
0BFFFE00
0FFFFF00
1E000F40
2E000B80
3D0007C0
7C0003D0
00000000
000F4000
00258000
00258000
001F4000
ENDCHAR
STARTCHAR uni1E01
ENCODING 7681
SWIDTH 479 0
DWIDTH 12 0
BBX 9 18 1 -5
BITMAP
06F900
2FBF00
7C0B80
640780
000780
06FF80
2FAB80
7C0780
B80780
B40780
781FC0
3FFBC0
1BE3C0
000000
02D000
096000
096000
02D000
ENDCHAR
STARTCHAR uni1E3E
ENCODING 7742
SWIDTH 755 0
DWIDTH 18 0
BBX 15 21 2 0
BITMAP
0001F400
0007D000
000B4000
00000000
F80002F4
FC0003F4
FD0007F4
FE000BF4
FF000FB4
FB401EB4
F7802DB4
F3C03CB4
F2D078B4
F1E0B4F4
F0F0F0F4
F0B5E0F4
F079D0F4
F03EC0F4
F02F80F4
F01F40F4
F00F00F4
ENDCHAR
STARTCHAR uni1E3F
ENCODING 7743
SWIDTH 752 0
DWIDTH 18 0
BBX 16 18 1 0
BITMAP
00007D00
0001F400
0002D000
00000000
00000000
79BD1BE0
7FFFBFF8
7D0BE07D
7803D02D
7803C02D
7803C02D
7803C02D
7803C02D
7803C02D
7803C02D
7803C02D
7803C02D
7803C02D
ENDCHAR
STARTCHAR Wgrave
ENCODING 7808
SWIDTH 761 0
DWIDTH 18 0
BBX 17 21 1 0
BITMAP
002E000000
000B800000
0002900000
0000000000
F002D00B80
F403E00B40
B407E00F00
7807F00F00
780BB41E00
3C0F741E00
3C0E382D00
2D1D3C3C00
1E2D2C3C00
1E2C1D7800
0F381E7800
0F740EB400
0BB40BB000
07F007F000
07E007E000
03E003E000
03D002D000
ENDCHAR
STARTCHAR wgrave
ENCODING 7809
SWIDTH 649 0
DWIDTH 16 0
BBX 15 18 0 0
BITMAP
007D0000
001F0000
00078000
00000000
00000000
7807807C
3C07C078
2D0BD0B4
2D0FE0B0
1E1EE0F0
0E1DB1E0
0F2CB5D0
0B787AD0
07B43BC0
03F42F80
03F01F40
02E01F40
01D00F00
ENDCHAR
STARTCHAR Wacute
ENCODING 7810
SWIDTH 761 0
DWIDTH 18 0
BBX 17 21 1 0
BITMAP
00003D0000
0000F40000
0001D00000
0000000000
F002D00B80
F403E00B40
B407E00F00
7807F00F00
780BB41E00
3C0F741E00
3C0E382D00
2D1D3C3C00
1E2D2C3C00
1E2C1D7800
0F381E7800
0F740EB400
0BB40BB000
07F007F000
07E007E000
03E003E000
03D002D000
ENDCHAR
STARTCHAR wacute
ENCODING 7811
SWIDTH 649 0
DWIDTH 16 0
BBX 15 18 0 0
BITMAP
0000B800
0002E000
00028000
00000000
00000000
7807807C
3C07C078
2D0BD0B4
2D0FE0B0
1E1EE0F0
0E1DB1E0
0F2CB5D0
0B787AD0
07B43BC0
03F42F80
03F01F40
02E01F40
01D00F00
ENDCHAR
STARTCHAR Wdieresis
ENCODING 7812
SWIDTH 761 0
DWIDTH 18 0
BBX 17 21 1 0
BITMAP
0014050000
007C1F0000
00781E0000
0000000000
F002D00B80
F403E00B40
B407E00F00
7807F00F00
780BB41E00
3C0F741E00
3C0E382D00
2D1D3C3C00
1E2D2C3C00
1E2C1D7800
0F381E7800
0F740EB400
0BB40BB000
07F007F000
07E007E000
03E003E000
03D002D000
ENDCHAR
STARTCHAR wdieresis
ENCODING 7813
SWIDTH 649 0
DWIDTH 16 0
BBX 15 18 0 0
BITMAP
00501400
00F43D00
00B42D00
00000000
00000000
7807807C
3C07C078
2D0BD0B4
2D0FE0B0
1E1EE0F0
0E1DB1E0
0F2CB5D0
0B787AD0
07B43BC0
03F42F80
03F01F40
02E01F40
01D00F00
ENDCHAR
STARTCHAR uni1EA0
ENCODING 7840
SWIDTH 576 0
DWIDTH 14 0
BBX 14 22 0 -5
BITMAP
000F0000
001F4000
002F8000
003BC000
0076D000
00B5E000
00F0F000
01E0B400
02D07800
03C07C00
07803D00
0BFFFE00
0FFFFF00
1E000F40
2E000B80
3D0007C0
7C0003D0
00000000
00000000
000F0000
001F4000
00050000
ENDCHAR
STARTCHAR uni1EA1
ENCODING 7841
SWIDTH 479 0
DWIDTH 12 0
BBX 9 18 1 -5
BITMAP
06F900
2FBF00
7C0B80
640780
000780
06FF80
2FAB80
7C0780
B80780
B40780
781FC0
3FFBC0
1BE3C0
000000
000000
02C000
03D000
014000
ENDCHAR
STARTCHAR uni1EA2
ENCODING 7842
SWIDTH 576 0
DWIDTH 14 0
BBX 14 23 0 0
BITMAP
000A4000
0006C000
0002C000
000B8000
000A0000
00000000
000F0000
001F4000
002F8000
003BC000
0076D000
00B5E000
00F0F000
01E0B400
02D07800
03C07C00
07803D00
0BFFFE00
0FFFFF00
1E000F40
2E000B80
3D0007C0
7C0003D0
ENDCHAR
STARTCHAR uni1EA3
ENCODING 7843
SWIDTH 479 0
DWIDTH 12 0
BBX 9 20 1 0
BITMAP
00A400
006C00
002C00
00B800
00A000
000000
000000
06F900
2FBF00
7C0B80
640780
000780
06FF80
2FAB80
7C0780
B80780
B40780
781FC0
3FFBC0
1BE3C0
ENDCHAR
STARTCHAR uni1EA4
ENCODING 7844
SWIDTH 576 0
DWIDTH 14 0
BBX 14 23 0 0
BITMAP
000003D0
00000780
001F4A00
00BAE000
01A0A400
00000000
000F0000
001F4000
002F8000
003BC000
0076D000
00B5E000
00F0F000
01E0B400
02D07800
03C07C00
07803D00
0BFFFE00
0FFFFF00
1E000F40
2E000B80
3D0007C0
7C0003D0
ENDCHAR
STARTCHAR uni1EA5
ENCODING 7845
SWIDTH 479 0
DWIDTH 12 0
BBX 12 20 1 0
BITMAP
00003D
000078
01F4A0
0BAE00
1A0A40
000000
000000
06F900
2FBF00
7C0B80
640780
000780
06FF80
2FAB80
7C0780
B80780
B40780
781FC0
3FFBC0
1BE3C0
ENDCHAR
STARTCHAR uni1EA6
ENCODING 7846
SWIDTH 576 0
DWIDTH 14 0
BBX 14 23 0 0
BITMAP
7C000000
2D000000
0A1F4000
00BAE000
01A0A400
00000000
000F0000
001F4000
002F8000
003BC000
0076D000
00B5E000
00F0F000
01E0B400
02D07800
03C07C00
07803D00
0BFFFE00
0FFFFF00
1E000F40
2E000B80
3D0007C0
7C0003D0
ENDCHAR
STARTCHAR uni1EA7
ENCODING 7847
SWIDTH 479 0
DWIDTH 12 0
BBX 11 20 -1 0
BITMAP
7C0000
2D0000
0A1F40
00BAE0
01A0A4
000000
000000
006F90
02FBF0
07C0B8
064078
000078
006FF8
02FAB8
07C078
0B8078
0B4078
0781FC
03FFBC
01BE3C
ENDCHAR
STARTCHAR uni1EA8
ENCODING 7848
SWIDTH 576 0
DWIDTH 14 0
BBX 14 24 0 0
BITMAP
00001E00
00000740
00000B00
002F9C00
00B5E000
01D0B400
00000000
000F0000
001F4000
002F8000
003BC000
0076D000
00B5E000
00F0F000
01E0B400
02D07800
03C07C00
07803D00
0BFFFE00
0FFFFF00
1E000F40
2E000B80
3D0007C0
7C0003D0
ENDCHAR
STARTCHAR uni1EA9
ENCODING 7849
SWIDTH 479 0
DWIDTH 12 0
BBX 11 21 1 0
BITMAP
0001E0
000074
0000B0
02F9C0
0B5E00
1D0B40
000000
000000
06F900
2FBF00
7C0B80
640780
000780
06FF80
2FAB80
7C0780
B80780
B40780
781FC0
3FFBC0
1BE3C0
ENDCHAR
STARTCHAR uni1EAA
ENCODING 7850
SWIDTH 576 0
DWIDTH 14 0
BBX 14 24 0 0
BITMAP
007D9000
00978000
00000000
001F4000
00BAD000
01E0B400
00000000
000F0000
001F4000
002F8000
003BC000
0076D000
00B5E000
00F0F000
01E0B400
02D07800
03C07C00
07803D00
0BFFFE00
0FFFFF00
1E000F40
2E000B80
3D0007C0
7C0003D0
ENDCHAR
STARTCHAR uni1EAB
ENCODING 7851
SWIDTH 479 0
DWIDTH 12 0
BBX 9 20 1 0
BITMAP
07D900
097800
000000
01F400
0BAD00
1E0B40
000000
06F900
2FBF00
7C0B80
640780
000780
06FF80
2FAB80
7C0780
B80780
B40780
781FC0
3FFBC0
1BE3C0
ENDCHAR
STARTCHAR uni1EAC
ENCODING 7852
SWIDTH 576 0
DWIDTH 14 0
BBX 14 26 0 -5
BITMAP
001F0000
007AD000
00A0E000
00000000
000F0000
001F4000
002F8000
003BC000
0076D000
00B5E000
00F0F000
01E0B400
02D07800
03C07C00
07803D00
0BFFFE00
0FFFFF00
1E000F40
2E000B80
3D0007C0
7C0003D0
00000000
00000000
000F0000
001F4000
00050000
ENDCHAR
STARTCHAR uni1EAD
ENCODING 7853
SWIDTH 479 0
DWIDTH 12 0
BBX 9 23 1 -5
BITMAP
01F400
07AD00
0A0E00
000000
000000
06F900
2FBF00
7C0B80
640780
000780
06FF80
2FAB80
7C0780
B80780
B40780
781FC0
3FFBC0
1BE3C0
000000
000000
02C000
03D000
014000
ENDCHAR
STARTCHAR uni1EAE
ENCODING 7854
SWIDTH 576 0
DWIDTH 14 0
BBX 14 23 0 0
BITMAP
00038000
00060000
00E1E000
006F8000
00000000
00000000
000F0000
001F4000
002F8000
003BC000
0076D000
00B5E000
00F0F000
01E0B400
02D07800
03C07C00
07803D00
0BFFFE00
0FFFFF00
1E000F40
2E000B80
3D0007C0
7C0003D0
ENDCHAR
STARTCHAR uni1EAF
ENCODING 7855
SWIDTH 479 0
DWIDTH 12 0
BBX 9 19 1 0
BITMAP
003800
006000
0E1E00
06F800
000000
000000
06F900
2FBF00
7C0B80
640780
000780
06FF80
2FAB80
7C0780
B80780
B40780
781FC0
3FFBC0
1BE3C0
ENDCHAR
STARTCHAR uni1EB0
ENCODING 7856
SWIDTH 576 0
DWIDTH 14 0
BBX 14 23 0 0
BITMAP
002C0000
00090000
00E1E000
006F8000
00000000
00000000
000F0000
001F4000
002F8000
003BC000
0076D000
00B5E000
00F0F000
01E0B400
02D07800
03C07C00
07803D00
0BFFFE00
0FFFFF00
1E000F40
2E000B80
3D0007C0
7C0003D0
ENDCHAR
STARTCHAR uni1EB1
ENCODING 7857
SWIDTH 479 0
DWIDTH 12 0
BBX 9 19 1 0
BITMAP
02C000
009000
0E1E00
06F800
000000
000000
06F900
2FBF00
7C0B80
640780
000780
06FF80
2FAB80
7C0780
B80780
B40780
781FC0
3FFBC0
1BE3C0
ENDCHAR
STARTCHAR uni1EB2
ENCODING 7858
SWIDTH 576 0
DWIDTH 14 0
BBX 14 25 0 0
BITMAP
000E4000
0002C000
00078000
000A0000
00E1E000
006F8000
00000000
00000000
000F0000
001F4000
002F8000
003BC000
0076D000
00B5E000
00F0F000
01E0B400
02D07800
03C07C00
07803D00
0BFFFE00
0FFFFF00
1E000F40
2E000B80
3D0007C0
7C0003D0
ENDCHAR
STARTCHAR uni1EB3
ENCODING 7859
SWIDTH 479 0
DWIDTH 12 0
BBX 9 21 1 0
BITMAP
00E400
002C00
007800
00A000
0E1E00
06F800
000000
000000
06F900
2FBF00
7C0B80
640780
000780
06FF80
2FAB80
7C0780
B80780
B40780
781FC0
3FFBC0
1BE3C0
ENDCHAR
STARTCHAR uni1EB4
ENCODING 7860
SWIDTH 576 0
DWIDTH 14 0
BBX 14 26 0 0
BITMAP
00101000
007EA000
0096C000
00000000
00E0E000
00B5D000
002F8000
00000000
00000000
000F0000
001F4000
002F8000
003BC000
0076D000
00B5E000
00F0F000
01E0B400
02D07800
03C07C00
07803D00
0BFFFE00
0FFFFF00
1E000F40
2E000B80
3D0007C0
7C0003D0
ENDCHAR
STARTCHAR uni1EB5
ENCODING 7861
SWIDTH 479 0
DWIDTH 12 0
BBX 9 22 1 0
BITMAP
010100
07EA00
096C00
000000
0E0E00
0B5D00
02F800
000000
000000
06F900
2FBF00
7C0B80
640780
000780
06FF80
2FAB80
7C0780
B80780
B40780
781FC0
3FFBC0
1BE3C0
ENDCHAR
STARTCHAR uni1EB6
ENCODING 7862
SWIDTH 576 0
DWIDTH 14 0
BBX 14 28 0 -5
BITMAP
01401400
01D07400
00F6F000
002F8000
00000000
00000000
000F0000
001F4000
002F8000
003BC000
0076D000
00B5E000
00F0F000
01E0B400
02D07800
03C07C00
07803D00
0BFFFE00
0FFFFF00
1E000F40
2E000B80
3D0007C0
7C0003D0
00000000
00000000
000F0000
001F4000
00050000
ENDCHAR
STARTCHAR uni1EB7
ENCODING 7863
SWIDTH 479 0
DWIDTH 12 0
BBX 9 24 1 -5
BITMAP
140140
1D0740
0F6F00
02F800
000000
000000
06F900
2FBF00
7C0B80
640780
000780
06FF80
2FAB80
7C0780
B80780
B40780
781FC0
3FFBC0
1BE3C0
000000
000000
02C000
03D000
014000
ENDCHAR
STARTCHAR uni1EB8
ENCODING 7864
SWIDTH 496 0
DWIDTH 12 0
BBX 9 22 2 -5
BITMAP
FFFFC0
FFFF80
F00000
F00000
F00000
F00000
F00000
FFFF00
FFFF00
F00000
F00000
F00000
F00000
F00000
F00000
FFFFC0
FFFFC0
000000
000000
02D000
03D000
014000
ENDCHAR
STARTCHAR uni1EB9
ENCODING 7865
SWIDTH 468 0
DWIDTH 11 0
BBX 10 18 1 -5
BITMAP
06F900
1FFF40
3D0B80
B803C0
B402D0
BFFFD0
FAAA90
F40000
B40000
B80000
7D0280
2FEF80
06F900
000000
000000
01E000
01F000
005000
ENDCHAR
STARTCHAR uni1EBA
ENCODING 7866
SWIDTH 496 0
DWIDTH 12 0
BBX 9 23 2 0
BITMAP
01E000
00B400
003800
01F400
01C000
000000
FFFFC0
FFFF80
F00000
F00000
F00000
F00000
F00000
FFFF00
FFFF00
F00000
F00000
F00000
F00000
F00000
F00000
FFFFC0
FFFFC0
ENDCHAR
STARTCHAR uni1EBB
ENCODING 7867
SWIDTH 468 0
DWIDTH 11 0
BBX 10 20 1 0
BITMAP
00E400
007800
002C00
00F800
00E000
000000
000000
06F900
1FFF40
3D0B80
B803C0
B402D0
BFFFD0
FAAA90
F40000
B40000
B80000
7D0280
2FEF80
06F900
ENDCHAR
STARTCHAR uni1EBC
ENCODING 7868
SWIDTH 496 0
DWIDTH 12 0
BBX 9 21 2 0
BITMAP
0A0600
2FEE00
34B800
000000
FFFFC0
FFFF80
F00000
F00000
F00000
F00000
F00000
FFFF00
FFFF00
F00000
F00000
F00000
F00000
F00000
F00000
FFFFC0
FFFFC0
ENDCHAR
STARTCHAR uni1EBD
ENCODING 7869
SWIDTH 468 0
DWIDTH 11 0
BBX 10 18 1 0
BITMAP
064240
1FEF00
287D00
000000
000000
06F900
1FFF40
3D0B80
B803C0
B402D0
BFFFD0
FAAA90
F40000
B40000
B80000
7D0280
2FEF80
06F900
ENDCHAR
STARTCHAR uni1EBE
ENCODING 7870
SWIDTH 496 0
DWIDTH 12 0
BBX 11 23 2 0
BITMAP
0000B8
0000F0
07E1D0
1F7800
2D1E00
000000
FFFFC0
FFFF80
F00000
F00000
F00000
F00000
F00000
FFFF00
FFFF00
F00000
F00000
F00000
F00000
F00000
F00000
FFFFC0
FFFFC0
ENDCHAR
STARTCHAR uni1EBF
ENCODING 7871
SWIDTH 468 0
DWIDTH 11 0
BBX 11 20 1 0
BITMAP
00003C
0000B4
02F4A0
0BBD00
1E0E40
000000
000000
06F900
1FFF40
3D0B80
B803C0
B402D0
BFFFD0
FAAA90
F40000
B40000
B80000
7D0280
2FEF80
06F900
ENDCHAR
STARTCHAR uni1EC0
ENCODING 7872
SWIDTH 496 0
DWIDTH 12 0
BBX 11 23 0 0
BITMAP
F40000
780000
287E00
01FB80
02D2E0
000000
0FFFFC
0FFFF8
0F0000
0F0000
0F0000
0F0000
0F0000
0FFFF0
0FFFF0
0F0000
0F0000
0F0000
0F0000
0F0000
0F0000
0FFFFC
0FFFFC
ENDCHAR
STARTCHAR uni1EC1
ENCODING 7873
SWIDTH 468 0
DWIDTH 11 0
BBX 12 20 -1 0
BITMAP
780000
2D0000
0D2F40
00BBD0
01E0E0
000000
000000
006F90
01FFF4
03D0B8
0B803C
0B402D
0BFFFD
0FAAA9
0F4000
0B4000
0B8000
07D028
02FEF8
006F90
ENDCHAR
STARTCHAR uni1EC2
ENCODING 7874
SWIDTH 496 0
DWIDTH 12 0
BBX 10 24 2 0
BITMAP
000380
0000E0
0001D0
07E380
1E7C00
281E00
000000
FFFFC0
FFFF80
F00000
F00000
F00000
F00000
F00000
FFFF00
FFFF00
F00000
F00000
F00000
F00000
F00000
F00000
FFFFC0
FFFFC0
ENDCHAR
STARTCHAR uni1EC3
ENCODING 7875
SWIDTH 468 0
DWIDTH 11 0
BBX 10 21 1 0
BITMAP
0002D0
000070
0001B0
02F5C0
0B6D00
1D0A40
000000
000000
06F900
1FFF40
3D0B80
B803C0
B402D0
BFFFD0
FAAA90
F40000
B40000
B80000
7D0280
2FEF80
06F900
ENDCHAR
STARTCHAR uni1EC4
ENCODING 7876
SWIDTH 496 0
DWIDTH 12 0
BBX 9 24 2 0
BITMAP
0F9800
18B400
000000
03E000
1E7800
281E00
000000
FFFFC0
FFFF80
F00000
F00000
F00000
F00000
F00000
FFFF00
FFFF00
F00000
F00000
F00000
F00000
F00000
F00000
FFFFC0
FFFFC0
ENDCHAR
STARTCHAR uni1EC5
ENCODING 7877
SWIDTH 468 0
DWIDTH 11 0
BBX 10 20 1 0
BITMAP
07D900
087800
000000
02F400
0B6D00
1D0A00
000000
06F900
1FFF40
3D0B80
B803C0
B402D0
BFFFD0
FAAA90
F40000
B40000
B80000
7D0280
2FEF80
06F900
ENDCHAR
STARTCHAR uni1EC6
ENCODING 7878
SWIDTH 496 0
DWIDTH 12 0
BBX 9 26 2 -5
BITMAP
02D000
0BB400
1D2800
000000
FFFFC0
FFFF80
F00000
F00000
F00000
F00000
F00000
FFFF00
FFFF00
F00000
F00000
F00000
F00000
F00000
F00000
FFFFC0
FFFFC0
000000
000000
02D000
03D000
014000
ENDCHAR
STARTCHAR uni1EC7
ENCODING 7879
SWIDTH 468 0
DWIDTH 11 0
BBX 10 23 1 -5
BITMAP
01E000
07B800
0A1D00
000000
000000
06F900
1FFF40
3D0B80
B803C0
B402D0
BFFFD0
FAAA90
F40000
B40000
B80000
7D0280
2FEF80
06F900
000000
000000
01E000
01F000
005000
ENDCHAR
STARTCHAR uni1EC8
ENCODING 7880
SWIDTH 250 0
DWIDTH 6 0
BBX 4 23 2 0
BITMAP
A4
6C
1D
B8
A0
00
F0
F0
F0
F0
F0
F0
F0
F0
F0
F0
F0
F0
F0
F0
F0
F0
F0
ENDCHAR
STARTCHAR uni1EC9
ENCODING 7881
SWIDTH 234 0
DWIDTH 6 0
BBX 4 20 1 0
BITMAP
39
1F
0B
3E
38
00
00
78
78
78
78
78
78
78
78
78
78
78
78
78
ENDCHAR
STARTCHAR uni1ECA
ENCODING 7882
SWIDTH 250 0
DWIDTH 6 0
BBX 3 22 1 -5
BITMAP
3C
3C
3C
3C
3C
3C
3C
3C
3C
3C
3C
3C
3C
3C
3C
3C
3C
00
00
38
7C
14
ENDCHAR
STARTCHAR uni1ECB
ENCODING 7883
SWIDTH 229 0
DWIDTH 6 0
BBX 3 23 1 -5
BITMAP
14
7C
78
00
00
78
78
78
78
78
78
78
78
78
78
78
78
78
00
00
78
BC
14
ENDCHAR
STARTCHAR uni1ECC
ENCODING 7884
SWIDTH 600 0
DWIDTH 14 0
BBX 12 22 1 -5
BITMAP
01BF80
0BFFF0
1F41B8
3D003D
7C002E
78001E
78001F
B8001F
B8001F
B8001F
B8001F
78001F
7C002E
3D003D
1F40BC
0BFFF4
01BF80
000000
000000
002D00
003D00
001400
ENDCHAR
STARTCHAR uni1ECD
ENCODING 7885
SWIDTH 501 0
DWIDTH 12 0
BBX 10 18 1 -5
BITMAP
06F900
1FFF40
3D07D0
B802E0
B401E0
F401F0
F400F0
F401F0
B401E0
B802E0
3D07D0
1FFF40
06F900
000000
000000
00F000
01F000
005000
ENDCHAR
STARTCHAR uni1ECE
ENCODING 7886
SWIDTH 600 0
DWIDTH 14 0
BBX 12 23 1 0
BITMAP
002D00
001B40
000740
001F00
001C00
000000
01BF80
0BFFF0
1F41B8
3D003D
7C002E
78001E
78001F
B8001F
B8001F
B8001F
B8001F
78001F
7C002E
3D003D
1F40BC
0BFFF4
01BF80
ENDCHAR
STARTCHAR uni1ECF
ENCODING 7887
SWIDTH 501 0
DWIDTH 12 0
BBX 10 20 1 0
BITMAP
00E400
006C00
002C00
00B800
00A000
000000
000000
06F900
1FFF40
3D07D0
B802E0
B401E0
F401F0
F400F0
F401F0
B401E0
B802E0
3D07D0
1FFF40
06F900
ENDCHAR
STARTCHAR uni1ED0
ENCODING 7888
SWIDTH 600 0
DWIDTH 14 0
BBX 13 23 1 0
BITMAP
00000B40
00001E00
007E1C00
01FB8000
02C2D000
00000000
01BF8000
0BFFF000
1F41B800
3D003D00
7C002E00
78001E00
78001F00
B8001F00
B8001F00
B8001F00
B8001F00
78001F00
7C002E00
3D003D00
1F40BC00
0BFFF400
01BF8000
ENDCHAR
STARTCHAR uni1ED1
ENCODING 7889
SWIDTH 501 0
DWIDTH 12 0
BBX 12 20 1 0
BITMAP
00003D
0000B4
01F4A0
0BAE00
1A0A40
000000
000000
06F900
1FFF40
3D07D0
B802E0
B401E0
F401F0
F400F0
F401F0
B401E0
B802E0
3D07D0
1FFF40
06F900
ENDCHAR
STARTCHAR uni1ED2
ENCODING 7890
SWIDTH 600 0
DWIDTH 14 0
BBX 12 23 1 0
BITMAP
F00000
780000
287E00
01FB80
02C2D0
000000
01BF80
0BFFF0
1F41B8
3D003D
7C002E
78001E
78001F
B8001F
B8001F
B8001F
B8001F
78001F
7C002E
3D003D
1F40BC
0BFFF4
01BF80
ENDCHAR
STARTCHAR uni1ED3
ENCODING 7891
SWIDTH 501 0
DWIDTH 12 0
BBX 12 20 -1 0
BITMAP
780000
2D0000
0A2F40
00BAD0
01A0E4
000000
000000
006F90
01FFF4
03D07D
0B802E
0B401E
0F401F
0F400F
0F401F
0B401E
0B802E
03D07D
01FFF4
006F90
ENDCHAR
STARTCHAR uni1ED4
ENCODING 7892
SWIDTH 600 0
DWIDTH 14 0
BBX 12 24 1 0
BITMAP
000038
00001D
00002D
007E34
01E780
0281E0
000000
01BF80
0BFFF0
1F41B8
3D003D
7C002E
78001E
78001F
B8001F
B8001F
B8001F
B8001F
78001F
7C002E
3D003D
1F40BC
0BFFF4
01BF80
ENDCHAR
STARTCHAR uni1ED5
ENCODING 7893
SWIDTH 501 0
DWIDTH 12 0
BBX 10 21 1 0
BITMAP
0001D0
000070
0000B0
02F5C0
0B6E00
1D0A40
000000
000000
06F900
1FFF40
3D07D0
B802E0
B401E0
F401F0
F400F0
F401F0
B401E0
B802E0
3D07D0
1FFF40
06F900
ENDCHAR
STARTCHAR uni1ED6
ENCODING 7894
SWIDTH 600 0
DWIDTH 14 0
BBX 12 24 1 0
BITMAP
00F980
018B40
000000
007E00
01E780
0281D0
000000
01BF80
0BFFF0
1F41B8
3D003D
7C002E
78001E
78001F
B8001F
B8001F
B8001F
B8001F
78001F
7C002E
3D003D
1F40BC
0BFFF4
01BF80
ENDCHAR
STARTCHAR uni1ED7
ENCODING 7895
SWIDTH 501 0
DWIDTH 12 0
BBX 10 20 1 0
BITMAP
07D900
097800
000000
01F400
0B6D00
1D0A40
000000
06F900
1FFF40
3D07D0
B802E0
B401E0
F401F0
F400F0
F401F0
B401E0
B802E0
3D07D0
1FFF40
06F900
ENDCHAR
STARTCHAR uni1ED8
ENCODING 7896
SWIDTH 600 0
DWIDTH 14 0
BBX 12 26 1 -5
BITMAP
002D00
00BB40
01D280
000000
01BF80
0BFFF0
1F41B8
3D003D
7C002E
78001E
78001F
B8001F
B8001F
B8001F
B8001F
78001F
7C002E
3D003D
1F40BC
0BFFF4
01BF80
000000
000000
002D00
003D00
001400
ENDCHAR
STARTCHAR uni1ED9
ENCODING 7897
SWIDTH 501 0
DWIDTH 12 0
BBX 10 23 1 -5
BITMAP
01F000
07AC00
0A0E00
000000
000000
06F900
1FFF40
3D07D0
B802E0
B401E0
F401F0
F400F0
F401F0
B401E0
B802E0
3D07D0
1FFF40
06F900
000000
000000
00F000
01F000
005000
ENDCHAR
STARTCHAR uni1EDA
ENCODING 7898
SWIDTH 592 0
DWIDTH 14 0
BBX 14 21 1 0
BITMAP
0007D000
001F4000
002D0000
000002D0
01BE42C0
0BFFD7C0
1F41FF40
3D007C00
78003C00
B8002D00
B4001E00
F4001E00
F4001E00
F4001E00
B4001E00
B8002E00
78003D00
3D007C00
1F41F400
0BFFE000
01BE4000
ENDCHAR
STARTCHAR uni1EDB
ENCODING 7899
SWIDTH 502 0
DWIDTH 12 0
BBX 11 18 1 0
BITMAP
001F40
007D00
00B000
000000
000018
06F82C
1FFF7C
3D07F4
7802D0
B401E0
B401E0
F401F0
B401F0
B401E0
7802D0
3D07C0
1FFF40
06F900
ENDCHAR
STARTCHAR uni1EDC
ENCODING 7900
SWIDTH 592 0
DWIDTH 14 0
BBX 14 21 1 0
BITMAP
03E00000
00F40000
00380000
000002D0
01BE42C0
0BFFD7C0
1F41FF40
3D007C00
78003C00
B8002D00
B4001E00
F4001E00
F4001E00
F4001E00
B4001E00
B8002E00
78003D00
3D007C00
1F41F400
0BFFE000
01BE4000
ENDCHAR
STARTCHAR uni1EDD
ENCODING 7901
SWIDTH 502 0
DWIDTH 12 0
BBX 11 18 1 0
BITMAP
1F4000
07D000
01E000
000000
000018
06F82C
1FFF7C
3D07F4
7802D0
B401E0
B401E0
F401F0
B401F0
B401E0
7802D0
3D07C0
1FFF40
06F900
ENDCHAR
STARTCHAR uni1EDE
ENCODING 7902
SWIDTH 592 0
DWIDTH 14 0
BBX 14 23 1 0
BITMAP
002D0000
001B0000
00074000
002E0000
002C0000
000002D0
01BE42C0
0BFFD7C0
1F41FF40
3D007C00
78003C00
B8002D00
B4001E00
F4001E00
F4001E00
F4001E00
B4001E00
B8002E00
78003D00
3D007C00
1F41F400
0BFFE000
01BE4000
ENDCHAR
STARTCHAR uni1EDF
ENCODING 7903
SWIDTH 502 0
DWIDTH 12 0
BBX 11 20 1 0
BITMAP
00A400
006C00
002C00
00B800
00A000
000000
000018
06F82C
1FFF7C
3D07F4
7802D0
B401E0
B401E0
F401F0
B401F0
B401E0
7802D0
3D07C0
1FFF40
06F900
ENDCHAR
STARTCHAR uni1EE0
ENCODING 7904
SWIDTH 592 0
DWIDTH 14 0
BBX 14 21 1 0
BITMAP
01909000
03FED000
071B8000
000002D0
01BE42C0
0BFFD7C0
1F41FF40
3D007C00
78003C00
B8002D00
B4001E00
F4001E00
F4001E00
F4001E00
B4001E00
B8002E00
78003D00
3D007C00
1F41F400
0BFFE000
01BE4000
ENDCHAR
STARTCHAR uni1EE1
ENCODING 7905
SWIDTH 502 0
DWIDTH 12 0
BBX 11 18 1 0
BITMAP
064240
1FFB40
1C6E00
000000
000018
06F82C
1FFF7C
3D07F4
7802D0
B401E0
B401E0
F401F0
B401F0
B401E0
7802D0
3D07C0
1FFF40
06F900
ENDCHAR
STARTCHAR uni1EE2
ENCODING 7906
SWIDTH 592 0
DWIDTH 14 0
BBX 14 23 1 -5
BITMAP
000002D0
01BE42C0
0BFFD7C0
1F41FF40
3D007C00
78003C00
B8002D00
B4001E00
F4001E00
F4001E00
F4001E00
B4001E00
B8002E00
78003D00
3D007C00
1F41F400
0BFFE000
01BE4000
00000000
00000000
003C0000
007D0000
00140000
ENDCHAR
STARTCHAR uni1EE3
ENCODING 7907
SWIDTH 502 0
DWIDTH 12 0
BBX 11 19 1 -5
BITMAP
000018
06F82C
1FFF7C
3D07F4
7802D0
B401E0
B401E0
F401F0
B401F0
B401E0
7802D0
3D07C0
1FFF40
06F900
000000
000000
00E000
01F000
005000
ENDCHAR
STARTCHAR uni1EE4
ENCODING 7908
SWIDTH 561 0
DWIDTH 13 0
BBX 11 22 1 -5
BITMAP
78003C
78003C
78003C
78003C
78003C
78003C
78003C
78003C
78003C
78003C
78003C
78003C
78007C
7C0078
3E01F4
1FFFE0
06FE40
000000
000000
007800
00BC00
001400
ENDCHAR
STARTCHAR uni1EE5
ENCODING 7909
SWIDTH 483 0
DWIDTH 12 0
BBX 9 18 1 -5
BITMAP
7803C0
7803C0
7803C0
7803C0
7803C0
7803C0
7803C0
7803C0
7803C0
7803C0
7D0BC0
2FFFC0
0BE7C0
000000
000000
02D000
03D000
014000
ENDCHAR
STARTCHAR uni1EE6
ENCODING 7910
SWIDTH 561 0
DWIDTH 13 0
BBX 11 23 1 0
BITMAP
003800
001E00
000B00
003E00
003800
000000
78003C
78003C
78003C
78003C
78003C
78003C
78003C
78003C
78003C
78003C
78003C
78003C
78007C
7C0078
3E01F4
1FFFE0
06FE40
ENDCHAR
STARTCHAR uni1EE7
ENCODING 7911
SWIDTH 483 0
DWIDTH 12 0
BBX 9 20 1 0
BITMAP
00E400
007800
002C00
00F800
00E000
000000
000000
7803C0
7803C0
7803C0
7803C0
7803C0
7803C0
7803C0
7803C0
7803C0
7803C0
7D0BC0
2FFFC0
0BE7C0
ENDCHAR
STARTCHAR uni1EE8
ENCODING 7912
SWIDTH 608 0
DWIDTH 15 0
BBX 15 21 1 0
BITMAP
0007D000
001F4000
002D0014
00000038
78003C78
78003DB4
78003FE0
78003E40
78003C00
78003C00
78003C00
78003C00
78003C00
78003C00
78003C00
78003C00
78007C00
3C00B800
2E01F400
0FFFD000
02FE4000
ENDCHAR
STARTCHAR uni1EE9
ENCODING 7913
SWIDTH 549 0
DWIDTH 13 0
BBX 12 18 1 0
BITMAP
001F40
007D00
00B000
000000
000006
7803C7
7803CB
7803FD
7803D0
7803C0
7803C0
7803C0
7803C0
7803C0
7803C0
7D0BC0
2FFFC0
0BE7C0
ENDCHAR
STARTCHAR uni1EEA
ENCODING 7914
SWIDTH 608 0
DWIDTH 15 0
BBX 15 21 1 0
BITMAP
03E00000
00F40000
00380014
00000038
78003C78
78003DB4
78003FE0
78003E40
78003C00
78003C00
78003C00
78003C00
78003C00
78003C00
78003C00
78003C00
78007C00
3C00B800
2E01F400
0FFFD000
02FE4000
ENDCHAR
STARTCHAR uni1EEB
ENCODING 7915
SWIDTH 549 0
DWIDTH 13 0
BBX 12 18 1 0
BITMAP
1F4000
07D000
01E000
000000
000006
7803C7
7803CB
7803FD
7803D0
7803C0
7803C0
7803C0
7803C0
7803C0
7803C0
7D0BC0
2FFFC0
0BE7C0
ENDCHAR
STARTCHAR uni1EEC
ENCODING 7916
SWIDTH 608 0
DWIDTH 15 0
BBX 15 23 1 0
BITMAP
002D0000
001B0000
00074000
002F0000
002C0014
00000038
78003C78
78003DB4
78003FE0
78003E40
78003C00
78003C00
78003C00
78003C00
78003C00
78003C00
78003C00
78003C00
78007C00
3C00B800
2E01F400
0FFFD000
02FE4000
ENDCHAR
STARTCHAR uni1EED
ENCODING 7917
SWIDTH 549 0
DWIDTH 13 0
BBX 12 20 1 0
BITMAP
00A400
006C00
002C00
00B800
00A000
000000
000006
7803C7
7803CB
7803FD
7803D0
7803C0
7803C0
7803C0
7803C0
7803C0
7803C0
7D0BC0
2FFFC0
0BE7C0
ENDCHAR
STARTCHAR uni1EEE
ENCODING 7918
SWIDTH 608 0
DWIDTH 15 0
BBX 15 21 1 0
BITMAP
01909000
03FED000
071B8014
00000038
78003C78
78003DB4
78003FE0
78003E40
78003C00
78003C00
78003C00
78003C00
78003C00
78003C00
78003C00
78003C00
78007C00
3C00B800
2E01F400
0FFFD000
02FE4000
ENDCHAR
STARTCHAR uni1EEF
ENCODING 7919
SWIDTH 549 0
DWIDTH 13 0
BBX 12 18 1 0
BITMAP
064240
1FFB40
1C6E00
000000
000006
7803C7
7803CB
7803FD
7803D0
7803C0
7803C0
7803C0
7803C0
7803C0
7803C0
7D0BC0
2FFFC0
0BE7C0
ENDCHAR
STARTCHAR uni1EF0
ENCODING 7920
SWIDTH 608 0
DWIDTH 15 0
BBX 15 24 1 -5
BITMAP
00000014
00000038
78003C78
78003DB4
78003FE0
78003E40
78003C00
78003C00
78003C00
78003C00
78003C00
78003C00
78003C00
78003C00
78007C00
3C00B800
2E01F400
0FFFD000
02FE4000
00000000
00000000
003C0000
003D0000
00140000
ENDCHAR
STARTCHAR uni1EF1
ENCODING 7921
SWIDTH 549 0
DWIDTH 13 0
BBX 12 19 1 -5
BITMAP
000006
7803C7
7803CB
7803FD
7803D0
7803C0
7803C0
7803C0
7803C0
7803C0
7803C0
7D0BC0
2FFFC0
0BE7C0
000000
000000
01E000
02F000
005000
ENDCHAR
STARTCHAR Ygrave
ENCODING 7922
SWIDTH 524 0
DWIDTH 13 0
BBX 12 21 0 0
BITMAP
02E000
00B800
002900
000000
7C001F
3D003E
2E007C
0F40B8
0B80F0
03C1E0
02D3D0
01F780
00BF40
007F00
003D00
002D00
002D00
002D00
002D00
002D00
002D00
ENDCHAR
STARTCHAR ygrave
ENCODING 7923
SWIDTH 416 0
DWIDTH 10 0
BBX 10 23 0 -5
BITMAP
0B8000
02E000
00A000
000000
000000
7802D0
3C03C0
3D0780
2E0B80
1E0B40
0F0F00
0B5E00
07AD00
03AC00
02FC00
02F800
01F400
00F000
00E000
01D000
03C000
3F8000
3E0000
ENDCHAR
STARTCHAR uni1EF4
ENCODING 7924
SWIDTH 524 0
DWIDTH 13 0
BBX 12 22 0 -5
BITMAP
7C001F
3D003E
2E007C
0F40B8
0B80F0
03C1E0
02D3D0
01F780
00BF40
007F00
003D00
002D00
002D00
002D00
002D00
002D00
002D00
000000
000000
002D00
003D00
001400
ENDCHAR
STARTCHAR uni1EF5
ENCODING 7925
SWIDTH 416 0
DWIDTH 10 0
BBX 10 20 0 -7
BITMAP
7802D0
3C03C0
3D0780
2E0B80
1E0B40
0F0F00
0B5E00
07AD00
03AC00
02FC00
02F800
01F400
00F000
00E000
01D000
03C000
3F8000
3E0B40
000F40
000500
ENDCHAR
STARTCHAR uni1EF6
ENCODING 7926
SWIDTH 524 0
DWIDTH 13 0
BBX 12 23 0 0
BITMAP
001E00
000B40
000380
001F40
001C00
000000
7C001F
3D003E
2E007C
0F40B8
0B80F0
03C1E0
02D3D0
01F780
00BF40
007F00
003D00
002D00
002D00
002D00
002D00
002D00
002D00
ENDCHAR
STARTCHAR uni1EF7
ENCODING 7927
SWIDTH 416 0
DWIDTH 10 0
BBX 10 25 0 -5
BITMAP
00B400
006D00
001D00
007C00
007000
000000
000000
7802D0
3C03C0
3D0780
2E0B80
1E0B40
0F0F00
0B5E00
07AD00
03AC00
02FC00
02F800
01F400
00F000
00E000
01D000
03C000
3F8000
3E0000
ENDCHAR
STARTCHAR uni1EF8
ENCODING 7928
SWIDTH 524 0
DWIDTH 13 0
BBX 12 21 0 0
BITMAP
00A060
02FEE0
034B80
000000
7C001F
3D003E
2E007C
0F40B8
0B80F0
03C1E0
02D3D0
01F780
00BF40
007F00
003D00
002D00
002D00
002D00
002D00
002D00
002D00
ENDCHAR
STARTCHAR uni1EF9
ENCODING 7929
SWIDTH 416 0
DWIDTH 10 0
BBX 10 23 0 -5
BITMAP
024280
0FFB80
1D2E00
000000
000000
7802D0
3C03C0
3D0780
2E0B80
1E0B40
0F0F00
0B5E00
07AD00
03AC00
02FC00
02F800
01F400
00F000
00E000
01D000
03C000
3F8000
3E0000
ENDCHAR
STARTCHAR uni1F4D
ENCODING 8013
SWIDTH 634 0
DWIDTH 15 0
BBX 19 17 -5 0
BITMAP
B4B406F900
B4F02FFF80
79D0BD07E0
1980F400F0
0001E000B4
0002E00078
0002D00078
0002D00078
0002D00078
0002D00078
0002D00078
0002E00078
0001E000B4
0000F400F4
0000BD06E0
00002FFFC0
000006FA00
ENDCHAR
STARTCHAR uni2000
ENCODING 8192
SWIDTH 447 0
DWIDTH 11 0
BBX 1 1 0 0
BITMAP
00
ENDCHAR
STARTCHAR uni2001
ENCODING 8193
SWIDTH 876 0
DWIDTH 21 0
BBX 1 1 0 0
BITMAP
00
ENDCHAR
STARTCHAR uni2002
ENCODING 8194
SWIDTH 447 0
DWIDTH 11 0
BBX 1 1 0 0
BITMAP
00
ENDCHAR
STARTCHAR uni2003
ENCODING 8195
SWIDTH 876 0
DWIDTH 21 0
BBX 1 1 0 0
BITMAP
00
ENDCHAR
STARTCHAR uni2004
ENCODING 8196
SWIDTH 305 0
DWIDTH 7 0
BBX 1 1 0 0
BITMAP
00
ENDCHAR
STARTCHAR uni2005
ENCODING 8197
SWIDTH 233 0
DWIDTH 6 0
BBX 1 1 0 0
BITMAP
00
ENDCHAR
STARTCHAR uni2006
ENCODING 8198
SWIDTH 162 0
DWIDTH 4 0
BBX 1 1 0 0
BITMAP
00
ENDCHAR
STARTCHAR uni2007
ENCODING 8199
SWIDTH 491 0
DWIDTH 12 0
BBX 1 1 0 0
BITMAP
00
ENDCHAR
STARTCHAR uni2008
ENCODING 8200
SWIDTH 249 0
DWIDTH 6 0
BBX 1 1 0 0
BITMAP
00
ENDCHAR
STARTCHAR uni2009
ENCODING 8201
SWIDTH 190 0
DWIDTH 5 0
BBX 1 1 0 0
BITMAP
00
ENDCHAR
STARTCHAR uni200A
ENCODING 8202
SWIDTH 105 0
DWIDTH 3 0
BBX 1 1 0 0
BITMAP
00
ENDCHAR
STARTCHAR uni200B
ENCODING 8203
SWIDTH 0 0
DWIDTH 0 0
BBX 1 1 0 0
BITMAP
00
ENDCHAR
STARTCHAR uni2010
ENCODING 8208
SWIDTH 248 0
DWIDTH 6 0
BBX 6 2 0 6
BITMAP
7FD0
6A90
ENDCHAR
STARTCHAR uni2011
ENCODING 8209
SWIDTH 248 0
DWIDTH 6 0
BBX 6 2 0 6
BITMAP
7FD0
6A90
ENDCHAR
STARTCHAR endash
ENCODING 8211
SWIDTH 572 0
DWIDTH 14 0
BBX 10 2 2 7
BITMAP
FFFFE0
AAAAA0
ENDCHAR
STARTCHAR emdash
ENCODING 8212
SWIDTH 678 0
DWIDTH 16 0
BBX 13 2 2 7
BITMAP
FFFFFFC0
AAAAAA80
ENDCHAR
STARTCHAR uni2015
ENCODING 8213
SWIDTH 678 0
DWIDTH 16 0
BBX 13 2 2 7
BITMAP
FFFFFFC0
AAAAAA80
ENDCHAR
STARTCHAR underscoredbl
ENCODING 8215
SWIDTH 402 0
DWIDTH 10 0
BBX 10 5 0 -5
BITMAP
BFFFD0
AAAA90
000000
BFFFD0
AAAA90
ENDCHAR
STARTCHAR quoteleft
ENCODING 8216
SWIDTH 194 0
DWIDTH 5 0
BBX 3 6 1 12
BITMAP
18
3C
78
B4
B4
B4
ENDCHAR
STARTCHAR quoteright
ENCODING 8217
SWIDTH 194 0
DWIDTH 5 0
BBX 3 6 1 12
BITMAP
78
78
B8
B4
F0
90
ENDCHAR
STARTCHAR quotesinglbase
ENCODING 8218
SWIDTH 194 0
DWIDTH 5 0
BBX 3 5 1 -3
BITMAP
B8
B8
B4
F0
90
ENDCHAR
STARTCHAR quotereversed
ENCODING 8219
SWIDTH 194 0
DWIDTH 5 0
BBX 3 6 1 12
BITMAP
F0
F0
F0
B4
78
24
ENDCHAR
STARTCHAR quotedblleft
ENCODING 8220
SWIDTH 333 0
DWIDTH 8 0
BBX 7 6 1 12
BITMAP
1824
3CB4
78F0
B5E0
B5E0
B5E0
ENDCHAR
STARTCHAR quotedblright
ENCODING 8221
SWIDTH 337 0
DWIDTH 8 0
BBX 6 6 1 12
BITMAP
78F0
78F0
78F0
B5E0
F2D0
9180
ENDCHAR
STARTCHAR quotedblbase
ENCODING 8222
SWIDTH 326 0
DWIDTH 8 0
BBX 7 7 0 -4
BITMAP
1E78
2E78
2E78
2D78
2CB4
78F0
2090
ENDCHAR
STARTCHAR dagger
ENCODING 8224
SWIDTH 482 0
DWIDTH 12 0
BBX 10 17 1 0
BITMAP
01E000
01E000
01E000
01E000
FFFFE0
ABFAA0
01E000
01E000
01E000
01E000
01E000
01E000
01E000
01E000
01E000
01E000
01E000
ENDCHAR
STARTCHAR daggerdbl
ENCODING 8225
SWIDTH 500 0
DWIDTH 12 0
BBX 10 22 1 -5
BITMAP
00F000
00F000
00F000
00F000
FFFFF0
AAFAA0
00F000
00F000
00F000
00F000
00F000
00F000
00F000
00F000
00F000
AAFAA0
FFFFF0
00F000
00F000
00F000
00F000
00F000
ENDCHAR
STARTCHAR bullet
ENCODING 8226
SWIDTH 336 0
DWIDTH 8 0
BBX 6 5 1 6
BITMAP
1F40
7FD0
7FD0
7FD0
2F80
ENDCHAR
STARTCHAR twodotenleader
ENCODING 8229
SWIDTH 420 0
DWIDTH 10 0
BBX 8 3 1 0
BITMAP
1418
7D3E
3C2D
ENDCHAR
STARTCHAR ellipsis
ENCODING 8230
SWIDTH 590 0
DWIDTH 14 0
BBX 12 3 1 0
BITMAP
141809
7D3E2F
3C2D1E
ENDCHAR
STARTCHAR uni2027
ENCODING 8231
SWIDTH 181 0
DWIDTH 4 0
BBX 3 3 1 6
BITMAP
B0
F4
50
ENDCHAR
STARTCHAR perthousand
ENCODING 8240
SWIDTH 818 0
DWIDTH 20 0
BBX 18 17 1 0
BITMAP
2F40000000
BAD0000000
E0E0240000
D0A0700000
D0A0E00000
E0E2C00000
BAD3400000
2F4B000000
000D000000
002C7E2E40
0035EBF6C0
00B2C2D0E0
01D281D0E0
028281D0E0
0742C1D0E0
0601E7F6C0
00007E2E40
ENDCHAR
STARTCHAR minute
ENCODING 8242
SWIDTH 174 0
DWIDTH 4 0
BBX 2 6 1 12
BITMAP
B0
B0
B0
B0
A0
A0
ENDCHAR
STARTCHAR second
ENCODING 8243
SWIDTH 319 0
DWIDTH 8 0
BBX 6 6 1 12
BITMAP
75D0
75D0
75D0
71D0
71D0
71C0
ENDCHAR
STARTCHAR guilsinglleft
ENCODING 8249
SWIDTH 271 0
DWIDTH 7 0
BBX 5 9 1 2
BITMAP
0340
0B00
1D00
3800
B400
3800
1D00
0B00
0340
ENDCHAR
STARTCHAR guilsinglright
ENCODING 8250
SWIDTH 271 0
DWIDTH 7 0
BBX 5 9 1 2
BITMAP
B000
3800
2D00
0F00
0B40
0F00
2D00
3800
B000
ENDCHAR
STARTCHAR exclamdbl
ENCODING 8252
SWIDTH 491 0
DWIDTH 12 0
BBX 8 17 2 0
BITMAP
F01F
F01F
F01F
F01F
F01F
F00F
F00F
F00F
F00E
F00E
F00E
F00E
0000
0000
5005
F01F
F00E
ENDCHAR
STARTCHAR fraction
ENCODING 8260
SWIDTH 403 0
DWIDTH 10 0
BBX 8 14 1 1
BITMAP
0006
000E
002C
0034
00B0
00D0
02C0
0340
0B00
1D00
2800
7400
A000
9000
ENDCHAR
STARTCHAR uni2074
ENCODING 8308
SWIDTH 329 0
DWIDTH 8 0
BBX 7 9 0 8
BITMAP
00F0
01F0
03F0
0AB0
1DB0
28B0
7FFC
2AB8
00B0
ENDCHAR
STARTCHAR uni207F
ENCODING 8319
SWIDTH 374 0
DWIDTH 9 0
BBX 7 9 1 8
BITMAP
B6E0
BEF4
B478
B438
B438
B438
B438
B438
B438
ENDCHAR
STARTCHAR franc
ENCODING 8355
SWIDTH 480 0
DWIDTH 12 0
BBX 11 17 0 0
BITMAP
0FFFF8
0FFFF8
0F0000
0F0000
0F0000
0F0000
0F0000
0FFFE0
0FFFE0
0F0000
0F0000
0F0000
0F0000
BFF800
7FA800
0F0000
0F0000
ENDCHAR
STARTCHAR lira
ENCODING 8356
SWIDTH 510 0
DWIDTH 12 0
BBX 11 17 1 0
BITMAP
01BE40
07FFD0
0F82E0
1F00F0
1E00A0
1E0000
1E0000
FFFC00
6F5400
1E0000
FFFC00
6F5400
1F0000
1E0000
2D0000
BFFFF4
FFFFF4
ENDCHAR
STARTCHAR uni20A6
ENCODING 8358
SWIDTH 691 0
DWIDTH 17 0
BBX 16 17 0 0
BITMAP
07C001F0
07E001F0
07F001F0
07F801F0
07FD01F0
07DE01F0
7FFFFFFF
6FEBEBFA
07C3D1F0
07C1E1F0
7FFFFFFF
6FEAFFFA
07C03EF0
07C01FF0
07C00BF0
07C007F0
07C002F0
ENDCHAR
STARTCHAR peseta
ENCODING 8359
SWIDTH 709 0
DWIDTH 17 0
BBX 15 17 1 0
BITMAP
7FF90000
7EBF4B80
7C0B8B80
7C03CB80
7C03FFF4
7C03EFE4
7C03CB80
7C078B80
7C1B4B80
7FFE0B80
7EA40B80
7C000B80
7C000B80
7C000B80
7C000780
7C0007F4
7C0001F4
ENDCHAR
STARTCHAR uni20A8
ENCODING 8360
SWIDTH 911 0
DWIDTH 22 0
BBX 19 17 2 0
BITMAP
FFF9000000
FFFF800000
F007D00000
F002E00000
F002E0BF80
F002E2FBE0
F002D7C0F4
F00BCB8064
FFFF47C000
FFFD02F900
F02E00BF80
F01F0007F0
F00F4000B8
F007CF4078
F003DB80B8
F002E3FBF0
F001F4BF80
ENDCHAR
STARTCHAR uni20A9
ENCODING 8361
SWIDTH 634 0
DWIDTH 15 0
BBX 15 17 0 0
BITMAP
7C0780B4
3C0B80F4
3D0BC0F0
2D0BC1F0
2E0FD1E0
1E0ED1E0
7FFFFFF8
6FBEFBE8
0B1CE3C0
0B6CB380
7FFFFFF8
6BFEFFE8
03B47B40
03F43F00
02F43F00
02F03E00
01F02E00
ENDCHAR
STARTCHAR uni20AA
ENCODING 8362
SWIDTH 669 0
DWIDTH 16 0
BBX 14 13 1 0
BITMAP
7FFE42E0
7EAFC2E0
7803D2E0
7802E2E0
78B5E2E0
78B5E2E0
78B5E2E0
78B5E2E0
78B5E2E0
78B402D0
78B403D0
78BEAF80
78BFFE00
ENDCHAR
STARTCHAR dong
ENCODING 8363
SWIDTH 510 0
DWIDTH 12 0
BBX 12 22 1 -4
BITMAP
0002D0
0002D0
007FFD
002BF8
0002D0
0BE6D0
2FFFD0
7D0BD0
B803D0
B402D0
F402D0
F402D0
F402D0
B402D0
B803D0
7D07D0
2FFFD0
0BE6D0
000000
000000
7FFFF0
2AAAA0
ENDCHAR
STARTCHAR Euro
ENCODING 8364
SWIDTH 493 0
DWIDTH 12 0
BBX 10 17 1 0
BITMAP
006FD0
01FFD0
07D000
0B8000
0F4000
0F0000
BFFE00
6F9500
0F0000
BFFE00
5F9500
0F4000
0F4000
0B8000
03D000
01FFD0
006FD0
ENDCHAR
STARTCHAR uni20B1
ENCODING 8369
SWIDTH 648 0
DWIDTH 16 0
BBX 15 17 0 0
BITMAP
0BFFE400
0BFFFE00
0B801F40
7FFFFFFC
6FEAABE8
0B8003C0
7FFFFFFC
6FEAAFFC
0B801F40
0BFFFE00
0BFFA400
0B800000
0B800000
0B800000
0B800000
0B800000
0B800000
ENDCHAR
STARTCHAR uni20B9
ENCODING 8377
SWIDTH 462 0
DWIDTH 11 0
BBX 11 17 0 0
BITMAP
3FFFF4
7FFFF0
002F00
000F40
3FFFF4
7FFFF0
000F40
006F00
7FFD00
7FA400
2F0000
0F8000
07D000
01F400
00BC00
003E00
001F40
ENDCHAR
STARTCHAR uni20BA
ENCODING 8378
SWIDTH 500 0
DWIDTH 12 0
BBX 11 17 0 0
BITMAP
03D000
03D000
03D600
03FE00
07F900
6FD000
BBD600
53FE00
07F97C
6FD07C
BBD07C
53D078
03D0B4
03D0F0
03D7E0
03FF80
03F900
ENDCHAR
STARTCHAR uni20BC
ENCODING 8380
SWIDTH 575 0
DWIDTH 14 0
BBX 12 13 1 0
BITMAP
003C00
003C00
01FE40
0BFFD0
1F7DF4
3D3C78
783C3C
B43C2D
B43C1E
B43C1E
F43C1E
F43C1E
F43C1E
ENDCHAR
STARTCHAR uni20BD
ENCODING 8381
SWIDTH 583 0
DWIDTH 14 0
BBX 13 17 0 0
BITMAP
07FFE400
07FFFE00
07801F40
07800780
078007C0
078003C0
078007C0
07800B80
07801F40
7FFFFE00
7FFFA400
07800000
7FFF0000
7FFE0000
07800000
07800000
07800000
ENDCHAR
STARTCHAR uni2105
ENCODING 8453
SWIDTH 640 0
DWIDTH 15 0
BBX 13 17 1 0
BITMAP
1B800000
3AE00000
70B02400
B0007400
B000A000
70B1D000
39E38000
1B874000
000E0000
001C7E00
0039EB80
0072C2C0
00E381C0
02C381C0
0342C2C0
0601EB80
00007E00
ENDCHAR
STARTCHAR uni2113
ENCODING 8467
SWIDTH 422 0
DWIDTH 10 0
BBX 8 18 1 0
BITMAP
01F8
03FD
0B9F
0B4F
0B4F
0B5F
0B5E
0B6D
0BBC
0BF4
0FE0
BF80
BF40
0B40
0B40
07C0
02F4
00B4
ENDCHAR
STARTCHAR uni2116
ENCODING 8470
SWIDTH 886 0
DWIDTH 21 0
BBX 19 17 1 0
BITMAP
7D00781FD0
7E00787EF4
7F0078B478
7F4078F03C
7FC078F03C
79D078F03C
78E078B478
78B0787EF4
7878781FD0
782C780000
781D780000
780E78BFF8
780BB86AA4
7803F80000
7802F80000
7801F80000
7800F80000
ENDCHAR
STARTCHAR trademark
ENCODING 8482
SWIDTH 547 0
DWIDTH 13 0
BBX 10 6 1 11
BITMAP
BF7070
1874B0
1868B0
186970
186730
186230
ENDCHAR
STARTCHAR Omega
ENCODING 8486
SWIDTH 581 0
DWIDTH 14 0
BBX 12 17 1 0
BITMAP
01BE40
0BFFD0
1F41F0
3D00B8
7C003C
B8003D
B8002D
B4002D
B4002D
B8002D
B8003D
78003C
3C0078
2D00B4
0F41E0
BFDBFD
BFDBFD
ENDCHAR
STARTCHAR estimated
ENCODING 8494
SWIDTH 636 0
DWIDTH 15 0
BBX 13 13 1 0
BITMAP
006F9000
02D17800
0B000D00
1E000F00
3E000F40
3E000F80
7FFFFF80
3E000000
3E000000
2E000000
0E000000
02906D00
006FA000
ENDCHAR
STARTCHAR oneeighth
ENCODING 8539
SWIDTH 666 0
DWIDTH 16 0
BBX 14 17 1 0
BITMAP
1A000000
FE000000
4E006000
0E00A000
0E01D000
0E028000
0E074000
0E0E0000
0E1C6F80
0038FAD0
0070F1D0
00E07F80
02C0BAC0
0340E1E0
0B00E0E0
0900FAD0
00006F40
ENDCHAR
STARTCHAR threeeighths
ENCODING 8540
SWIDTH 736 0
DWIDTH 18 0
BBX 15 17 1 0
BITMAP
2F900000
BAF00000
00B00600
0FD00A00
05E01D00
00B03800
60B07000
BAE0E000
2F81CBE4
00039EBC
000B1D3C
000D0BF4
002C1EB8
00342D2C
00B02C2C
00901EBC
000007E4
ENDCHAR
STARTCHAR fiveeighths
ENCODING 8541
SWIDTH 736 0
DWIDTH 18 0
BBX 15 17 1 0
BITMAP
7FE00000
7A900000
70000900
BF801D00
66E02800
00B07400
60B0A000
BAE1D000
2F828BE4
00075EB8
000E1D3C
001C0BF4
00381EB8
00702C2C
00E02C2C
00801EB8
000007E0
ENDCHAR
STARTCHAR seveneighths
ENCODING 8542
SWIDTH 692 0
DWIDTH 17 0
BBX 15 17 1 0
BITMAP
FFF40000
AAF00000
00E02400
01D03400
0380B000
0741D000
0F028000
1D074000
2C0A1FD0
001D3EF0
002878B0
00742FE0
00E03EF0
01C07474
03807474
02003EF0
00001B90
ENDCHAR
STARTCHAR partialdiff
ENCODING 8706
SWIDTH 497 0
DWIDTH 12 0
BBX 10 18 1 0
BITMAP
1BE400
2FFE00
141F40
000B80
0003C0
0002D0
06F5E0
1FFEE0
3D07E0
7801E0
B401E0
B401E0
B401E0
B802D0
7C02C0
3D0780
1FFF00
06F800
ENDCHAR
STARTCHAR Delta
ENCODING 8710
SWIDTH 614 0
DWIDTH 15 0
BBX 14 17 0 0
BITMAP
000B8000
000FC000
001FD000
002EE000
003DF000
0078B400
00B4B800
00F07C00
01E03D00
03D02E00
07C01F00
0B800F40
0F400B80
1F0007C0
2E0003D0
3FFFFFE0
7FFFFFF0
ENDCHAR
STARTCHAR product
ENCODING 8719
SWIDTH 614 0
DWIDTH 15 0
BBX 11 20 2 -3
BITMAP
FFFFFC
FAAABC
F0007C
F0007C
F0007C
F0007C
F0007C
F0007C
F0007C
F0007C
F0007C
F0007C
F0007C
F0007C
F0007C
F0007C
F0007C
F0007C
F0007C
F0007C
ENDCHAR
STARTCHAR summation
ENCODING 8721
SWIDTH 513 0
DWIDTH 12 0
BBX 11 20 1 -3
BITMAP
FFFFF4
FEAAA4
780000
2E0000
0F4000
07C000
02E000
00F400
007C00
001E00
001F00
003D00
00B400
02E000
07C000
0F4000
2E0000
780000
FEAAA8
FFFFFC
ENDCHAR
STARTCHAR minus
ENCODING 8722
SWIDTH 499 0
DWIDTH 12 0
BBX 8 2 2 7
BITMAP
FFFF
AAAA
ENDCHAR
STARTCHAR radical
ENCODING 8730
SWIDTH 536 0
DWIDTH 13 0
BBX 11 17 1 0
BITMAP
00003C
000078
0000B4
0000F0
0001E0
0002D0
0003C0
0007C0
FD0B80
BE0F40
0F0F00
0B5E00
07AD00
03FC00
02F800
01F400
00F000
ENDCHAR
STARTCHAR infinity
ENCODING 8734
SWIDTH 874 0
DWIDTH 21 0
BBX 19 13 1 0
BITMAP
02F800BE00
1FFF03FFC0
3D0B8B42E0
7802EE00F4
B401FC00B8
B400F80078
F400B80078
B400F80078
B401FC00B8
7802EE00F4
3D078B42E0
1FFF03FFC0
06F800BE00
ENDCHAR
STARTCHAR integral
ENCODING 8747
SWIDTH 235 0
DWIDTH 6 0
BBX 8 23 -1 -5
BITMAP
007E
01FE
03D0
03C0
03C0
03C0
03C0
03C0
03C0
03C0
03C0
03C0
03C0
03C0
03C0
03C0
03C0
03C0
03C0
03C0
0780
7F40
7D00
ENDCHAR
STARTCHAR approxequal
ENCODING 8776
SWIDTH 492 0
DWIDTH 12 0
BBX 10 9 1 3
BITMAP
2F4010
BFE090
90BFD0
401F40
000000
2E4010
BFE090
90BFD0
401F80
ENDCHAR
STARTCHAR notequal
ENCODING 8800
SWIDTH 479 0
DWIDTH 12 0
BBX 9 13 1 2
BITMAP
000200
000A00
000D00
7FFFC0
7FFFC0
007000
00D000
01C000
7FFFC0
7FFFC0
0D0000
1C0000
140000
ENDCHAR
STARTCHAR lessequal
ENCODING 8804
SWIDTH 445 0
DWIDTH 11 0
BBX 9 13 0 0
BITMAP
000180
001BC0
01BE40
0BE400
3E4000
3E4000
0BF400
00BF40
000BC0
000180
000000
2AAA80
7FFFC0
ENDCHAR
STARTCHAR greaterequal
ENCODING 8805
SWIDTH 460 0
DWIDTH 11 0
BBX 9 13 1 0
BITMAP
600000
7E0000
1FE000
01BE00
001BC0
001FC0
02FE00
2FD000
7D0000
500000
000000
6AAA80
7FFF80
ENDCHAR
STARTCHAR lozenge
ENCODING 9674
SWIDTH 442 0
DWIDTH 11 0
BBX 10 17 0 0
BITMAP
00B400
00F800
02FD00
03DE00
0B4F00
0F0780
1E03C0
3C02E0
7801F0
3C02E0
1E03C0
0F0780
0B4B40
03DE00
02FD00
00F800
00B400
ENDCHAR
STARTCHAR uniEE01
ENCODING 60929
SWIDTH 271 0
DWIDTH 7 0
BBX 3 13 2 2
BITMAP
60
F8
B4
00
00
00
00
00
00
00
64
F8
B4
ENDCHAR
STARTCHAR uniEE02
ENCODING 60930
SWIDTH 298 0
DWIDTH 7 0
BBX 5 5 1 8
BITMAP
B1C0
B1C0
B1C0
B1C0
B1C0
ENDCHAR
STARTCHAR uniF6C3
ENCODING 63171
SWIDTH 235 0
DWIDTH 6 0
BBX 3 5 1 -2
BITMAP
78
78
78
B4
60
ENDCHAR
STARTCHAR uniFB01
ENCODING 64257
SWIDTH 489 0
DWIDTH 12 0
BBX 10 18 0 0
BITMAP
01BE40
07FF80
0B8040
0F4000
0F4000
BFF4F0
6FA4F0
0F40F0
0F40F0
0F40F0
0F40F0
0F40F0
0F40F0
0F40F0
0F40F0
0F40F0
0F40F0
0F40F0
ENDCHAR
STARTCHAR uniFB02
ENCODING 64258
SWIDTH 503 0
DWIDTH 12 0
BBX 11 18 0 0
BITMAP
00BF90
03FFF4
07C0B4
0780B4
0B80B4
7FF8B4
2FE4B4
0B80B4
0B80B4
0B80B4
0B80B4
0B80B4
0B80B4
0B80B4
0B80B4
0B80B4
0B80B4
0B80B4
ENDCHAR
STARTCHAR uniFB03
ENCODING 64259
SWIDTH 744 0
DWIDTH 18 0
BBX 16 18 0 0
BITMAP
00BD0BE4
03FD3FFC
07C0B804
0780B400
0B80B400
7FFFFF4F
2FEAFA4F
0B80B40F
0B80B40F
0B80B40F
0B80B40F
0B80B40F
0B80B40F
0B80B40F
0B80B40F
0B80B40F
0B80B40F
0B80B40F
ENDCHAR
STARTCHAR uniFB04
ENCODING 64260
SWIDTH 744 0
DWIDTH 18 0
BBX 16 18 0 0
BITMAP
00BD1BE9
03FD3FFF
07C0B80F
0780B40F
0B80B40F
7FFFFF4F
2FEAFA4F
0B80B40F
0B80B40F
0B80B40F
0B80B40F
0B80B40F
0B80B40F
0B80B40F
0B80B40F
0B80B40F
0B80B40F
0B80B40F
ENDCHAR
STARTCHAR uniFEFF
ENCODING 65279
SWIDTH 0 0
DWIDTH 0 0
BBX 1 1 0 0
BITMAP
00
ENDCHAR
STARTCHAR uniFFFC
ENCODING 65532
SWIDTH 1024 0
DWIDTH 25 0
BBX 23 22 1 -5
BITMAP
FE3F5FCBE3F8
E51505455168
D00000000028
D00000000028
000000000000
D00000000028
D00000000028
D00000000028
00BE2FE00700
D28268700728
D241AFE00728
D241A8340728
028268368600
D0BE2FE0BD28
D00000000028
D00000000028
D00000000028
000000000000
D00000000028
D00000000028
E51505455168
FE3F5FCBE3F8
ENDCHAR
STARTCHAR uniFFFD
ENCODING 65533
SWIDTH 1025 0
DWIDTH 25 0
BBX 22 22 1 -3
BITMAP
000006000000
00001F800000
00007FE00000
0001FFF80000
0007FFFE0000
001FFFFF8000
007FD06FE000
01FF400BFC00
07FE0B47FF00
1FFFAF83FFC0
7FFFFF47FFF0
7FFFFD0FFFF0
1FFFF47FFFC0
07FFF0BFFF00
01FFFFFFFC00
007FF0BFE000
001FF0BF8000
0007FFFE0000
0001FFF80000
00007FE00000
00001F800000
000006000000
ENDCHAR
STARTCHAR .notdef
ENCODING -1
SWIDTH 392 0
DWIDTH 9 0
BBX 8 17 1 0
BITMAP
BFFD
9009
9015
9025
8415
8845
8585
8245
8205
8245
8585
8845
8415
9025
9015
9009
BFFD
ENDCHAR
STARTCHAR glyph369
ENCODING -1
SWIDTH 364 0
DWIDTH 9 0
BBX 7 4 1 13
BITMAP
B4B4
B4F0
79D0
1980
ENDCHAR
STARTCHAR uni2009.locl
ENCODING -1
SWIDTH 124 0
DWIDTH 3 0
BBX 1 1 0 0
BITMAP
00
ENDCHAR
STARTCHAR f_f.dlig
ENCODING -1
SWIDTH 546 0
DWIDTH 13 0
BBX 13 18 0 0
BITMAP
00BD1B80
03FD7F80
07C0B800
0780F000
0B80F000
7FFFFF40
2FEEFA00
0B80F000
0B80F000
0B80F000
0B80F000
0B80F000
0B80F000
0B80F000
0B80F000
0B80F000
0B80F000
0B80F000
ENDCHAR
STARTCHAR longs_t.dlig
ENCODING -1
SWIDTH 544 0
DWIDTH 13 0
BBX 12 18 0 0
BITMAP
00BE90
03FBF0
07C0F0
0780F0
0B80F0
7F8FFF
2F8AFA
0B80F0
0B80F0
0B80F0
0B80F0
0B80F0
0B80F0
0B80F0
0B80F0
0B80F4
0B80BF
06402F
ENDCHAR
STARTCHAR s_t.dlig
ENCODING -1
SWIDTH 710 0
DWIDTH 17 0
BBX 15 18 1 0
BITMAP
0002FD00
000FFF80
001F07C0
001E03D0
001E03D0
0BFF2FFC
2FBF6BE8
780B83D0
780643D0
7E0003D0
1FE403D0
02FD03D0
002F43D0
500B83D0
B40783D0
780B82D0
2FBF01FC
0BF800BC
ENDCHAR
STARTCHAR two.dnom
ENCODING -1
SWIDTH 329 0
DWIDTH 8 0
BBX 6 9 1 0
BITMAP
2F80
BAD0
E0E0
01E0
03C0
0B40
2D00
BAA0
FFF0
ENDCHAR
STARTCHAR one.dnom
ENCODING -1
SWIDTH 329 0
DWIDTH 8 0
BBX 5 9 1 0
BITMAP
1B40
BF40
4B40
0B40
0B40
0B40
0B40
0B40
0B40
ENDCHAR
STARTCHAR zero.dnom
ENCODING -1
SWIDTH 329 0
DWIDTH 8 0
BBX 6 9 1 0
BITMAP
2F40
7AD0
F0E0
E0F0
E0F0
E0F0
F0E0
7AD0
2F80
ENDCHAR
STARTCHAR nine.c2sc
ENCODING -1
SWIDTH 447 0
DWIDTH 11 0
BBX 9 14 1 0
BITMAP
0BE400
3FFD00
B82E00
B40F00
F00B40
B40B40
B81F40
3FBF40
1BEB40
000F00
001E00
007D00
0BF400
0F9000
ENDCHAR
STARTCHAR eight.c2sc
ENCODING -1
SWIDTH 447 0
DWIDTH 11 0
BBX 9 14 1 0
BITMAP
0BE400
3FBE00
7C1F00
780F40
780F00
3E6E00
0FF800
3E6E00
B80F40
B40B40
B40B40
B80F40
3FBE00
0BF800
ENDCHAR
STARTCHAR seven.c2sc
ENCODING -1
SWIDTH 447 0
DWIDTH 11 0
BBX 9 14 1 0
BITMAP
FFFF80
AAAF80
000B40
000F00
002D00
003C00
007800
00B400
01E000
02D000
03C000
0B8000
0F4000
1E0000
ENDCHAR
STARTCHAR six.c2sc
ENCODING -1
SWIDTH 447 0
DWIDTH 11 0
BBX 9 14 1 0
BITMAP
01B800
0BF800
2F4000
3D0000
780000
BAF800
BFBF00
BC0F40
B40780
B40780
780780
3D0F40
2FFE00
07F800
ENDCHAR
STARTCHAR five.c2sc
ENCODING -1
SWIDTH 447 0
DWIDTH 11 0
BBX 9 14 1 0
BITMAP
2FFF40
2FFF40
2C0000
3C0000
3C0000
3EF800
3FBF00
280F40
000780
000780
640780
7C0F40
2FBF00
06F800
ENDCHAR
STARTCHAR four.c2sc
ENCODING -1
SWIDTH 447 0
DWIDTH 11 0
BBX 10 14 0 0
BITMAP
000F40
002F40
007F40
00BB40
01EB40
03CB40
0B4B40
1E0B40
2C0B40
7FFFF0
6AAFE0
000B40
000B40
000B40
ENDCHAR
STARTCHAR three.c2sc
ENCODING -1
SWIDTH 447 0
DWIDTH 11 0
BBX 9 14 1 0
BITMAP
1BE400
7FFD00
B81F00
A00F40
000F00
002E00
07F800
06BD00
001F00
000B40
F00B40
B81F00
7FBE00
1BE400
ENDCHAR
STARTCHAR two.c2sc
ENCODING -1
SWIDTH 447 0
DWIDTH 11 0
BBX 9 14 1 0
BITMAP
0BF400
3FFE00
B81F00
F00B40
500B40
000F00
002E00
00BC00
01F400
07D000
1F4000
3D0000
BEAA80
BFFFC0
ENDCHAR
STARTCHAR one.c2sc
ENCODING -1
SWIDTH 447 0
DWIDTH 11 0
BBX 6 14 1 0
BITMAP
00B0
1BF0
7FF0
64F0
00F0
00F0
00F0
00F0
00F0
00F0
00F0
00F0
00F0
00F0
ENDCHAR
STARTCHAR zero.c2sc
ENCODING -1
SWIDTH 447 0
DWIDTH 11 0
BBX 9 14 1 0
BITMAP
0BE400
2FFD00
7C1F00
B80B40
B40B40
B40B80
B40B80
B40B80
B40B80
B40B40
B80B40
7C1F00
2FFD00
0BE400
ENDCHAR
STARTCHAR Z.c2sc
ENCODING -1
SWIDTH 454 0
DWIDTH 11 0
BBX 9 14 1 0
BITMAP
FFFF80
AAAF80
000F40
002E00
007C00
00B400
01E000
03D000
0B8000
1F0000
2D0000
780000
FEAA80
FFFFC0
ENDCHAR
STARTCHAR Y.c2sc
ENCODING -1
SWIDTH 458 0
DWIDTH 11 0
BBX 11 14 0 0
BITMAP
7C00F4
3D01F0
2E02E0
0F07C0
0B8B80
03CF00
02FE00
01FD00
00B800
00B800
00B800
00B800
00B800
00B800
ENDCHAR
STARTCHAR X.c2sc
ENCODING -1
SWIDTH 478 0
DWIDTH 11 0
BBX 10 14 1 0
BITMAP
F403E0
BC07C0
3D0F40
1F1F00
0B7D00
07F800
02F400
02F400
07F800
0F6D00
1E1F00
3D0B80
B807C0
F402E0
ENDCHAR
STARTCHAR W.c2sc
ENCODING -1
SWIDTH 655 0
DWIDTH 16 0
BBX 15 14 0 0
BITMAP
7C03C03C
3C07D03C
2D07D078
2D0BE074
1E0EB0B4
0E0DB0F0
0F1D74F0
0B2C39E0
0B6839D0
07782ED0
03F41FC0
03F01F80
02E00F80
02E00B40
ENDCHAR
STARTCHAR V.c2sc
ENCODING -1
SWIDTH 487 0
DWIDTH 12 0
BBX 11 14 0 0
BITMAP
78003C
3C0078
2D00B4
1E00F0
0F01F0
0F41E0
0B42D0
0783C0
03C780
02DB40
01EF00
00FE00
00BD00
007C00
ENDCHAR
STARTCHAR U.c2sc
ENCODING -1
SWIDTH 488 0
DWIDTH 12 0
BBX 10 14 1 0
BITMAP
B402D0
B402D0
B402D0
B402D0
B402D0
B402D0
B402D0
B402D0
B402D0
B402D0
B802D0
7D07C0
2FFF40
06F900
ENDCHAR
STARTCHAR T.c2sc
ENCODING -1
SWIDTH 456 0
DWIDTH 11 0
BBX 11 14 0 0
BITMAP
7FFFF4
6AFEA4
00B800
00B800
00B800
00B800
00B800
00B800
00B800
00B800
00B800
00B800
00B800
00B800
ENDCHAR
STARTCHAR S.c2sc
ENCODING -1
SWIDTH 453 0
DWIDTH 11 0
BBX 9 14 1 0
BITMAP
0BF800
3FBF00
B80B80
B407C0
B80140
7E4000
1FE400
02FE00
001F80
5007C0
F003C0
B80B80
3FBF40
0BF900
ENDCHAR
STARTCHAR R.c2sc
ENCODING -1
SWIDTH 465 0
DWIDTH 11 0
BBX 10 14 1 0
BITMAP
7FF900
7EBF40
780BC0
7803C0
7803D0
7803C0
780B80
7FFF00
7EBC00
782E00
780F00
780B80
7807C0
7802E0
ENDCHAR
STARTCHAR Q.c2sc
ENCODING -1
SWIDTH 519 0
DWIDTH 12 0
BBX 11 16 1 -2
BITMAP
06F900
1FFF80
3D07D0
7801E0
B400F0
F400F0
F000B4
F000B4
F400F0
B400F0
7801E0
3D07D0
1FFF80
06FF80
0003E0
0000A0
ENDCHAR
STARTCHAR P.c2sc
ENCODING -1
SWIDTH 481 0
DWIDTH 12 0
BBX 10 14 1 0
BITMAP
7FFD00
7EBF80
7807D0
7802E0
7801E0
7802E0
7807D0
7FFF80
7EA900
780000
780000
780000
780000
780000
ENDCHAR
STARTCHAR O.c2sc
ENCODING -1
SWIDTH 519 0
DWIDTH 12 0
BBX 11 14 1 0
BITMAP
02F900
1FFF80
3E07D0
7801E0
B400F0
B400B4
B400B4
F400B4
B400B4
B400F0
7C01E0
3E03D0
1FFF80
02F900
ENDCHAR
STARTCHAR N.c2sc
ENCODING -1
SWIDTH 533 0
DWIDTH 13 0
BBX 11 14 1 0
BITMAP
7C00B4
7D00B4
7F00B4
7F40B4
7BC0B4
79E0B4
78B0B4
7878B4
782CB4
781EB4
780BF4
7803F4
7802F4
7800F4
ENDCHAR
STARTCHAR M.c2sc
ENCODING -1
SWIDTH 652 0
DWIDTH 16 0
BBX 13 14 1 0
BITMAP
7D000BC0
7E000FC0
7F001FC0
7F402FC0
7B803AC0
77C076C0
76D0B3C0
79E0E3C0
78B1D3C0
7876C3C0
783B83C0
782F43C0
781F03C0
780E03C0
ENDCHAR
STARTCHAR L.c2sc
ENCODING -1
SWIDTH 411 0
DWIDTH 10 0
BBX 9 14 1 0
BITMAP
780000
780000
780000
780000
780000
780000
780000
780000
780000
780000
780000
780000
7EAA40
7FFF40
ENDCHAR
STARTCHAR K.c2sc
ENCODING -1
SWIDTH 473 0
DWIDTH 11 0
BBX 10 14 1 0
BITMAP
7803E0
780B80
781F00
787D00
78F800
7AF000
7FE000
7FF400
7DB800
783D00
781F00
780B80
7807D0
7802F0
ENDCHAR
STARTCHAR J.c2sc
ENCODING -1
SWIDTH 419 0
DWIDTH 10 0
BBX 9 14 0 0
BITMAP
000780
000780
000780
000780
000780
000780
000780
000780
000780
000780
780B80
3D0F40
2FBE00
07F800
ENDCHAR
STARTCHAR I.c2sc
ENCODING -1
SWIDTH 221 0
DWIDTH 5 0
BBX 3 14 1 0
BITMAP
78
78
78
78
78
78
78
78
78
78
78
78
78
78
ENDCHAR
STARTCHAR H.c2sc
ENCODING -1
SWIDTH 533 0
DWIDTH 13 0
BBX 11 14 1 0
BITMAP
7800B4
7800B4
7800B4
7800B4
7800B4
7800B4
7FFFF4
7EAAF4
7800B4
7800B4
7800B4
7800B4
7800B4
7800B4
ENDCHAR
STARTCHAR G.c2sc
ENCODING -1
SWIDTH 509 0
DWIDTH 12 0
BBX 10 14 1 0
BITMAP
06FD00
1FEF80
3D03D0
7801E0
B40050
B40000
F40000
F42FF0
B42AF0
B401F0
7C01F0
3E01F0
1FEFD0
02FE40
ENDCHAR
STARTCHAR F.c2sc
ENCODING -1
SWIDTH 415 0
DWIDTH 10 0
BBX 9 14 1 0
BITMAP
7FFF40
7EAA40
780000
780000
780000
780000
7FFE00
7EA900
780000
780000
780000
780000
780000
780000
ENDCHAR
STARTCHAR dollar.c2sc
ENCODING -1
SWIDTH 453 0
DWIDTH 11 0
BBX 9 20 1 -3
BITMAP
009000
00E000
00E000
0BF800
3FBF00
B80B80
B403C0
B80000
7E4000
1FE400
02FE00
001F80
5007C0
F003C0
B80780
7FBF40
0BF900
00E000
00E000
009000
ENDCHAR
STARTCHAR sterling.c2sc
ENCODING -1
SWIDTH 467 0
DWIDTH 11 0
BBX 11 14 0 0
BITMAP
00BE00
02FFC0
07C2D0
0B41E0
0B41E0
0B4000
0B4000
7FFF40
1F9500
0B4000
0B4000
0F0000
2FAAA4
2FFFF4
ENDCHAR
STARTCHAR yen.c2sc
ENCODING -1
SWIDTH 400 0
DWIDTH 10 0
BBX 9 14 0 0
BITMAP
7803C0
3C0780
2D0B40
1E0E00
0B1D00
077C00
03F800
3FFF40
16F500
01E000
3FFF40
16F500
01E000
01E000
ENDCHAR
STARTCHAR Gamma.c2sc
ENCODING -1
SWIDTH 405 0
DWIDTH 10 0
BBX 8 14 1 0
BITMAP
7FFF
7EAA
7800
7800
7800
7800
7800
7800
7800
7800
7800
7800
7800
7800
ENDCHAR
STARTCHAR Delta.c2sc
ENCODING -1
SWIDTH 487 0
DWIDTH 12 0
BBX 11 14 0 0
BITMAP
007C00
00BD00
00FE00
01EF00
02DB40
03C780
0783C0
0B42D0
0F41E0
0F01F0
1E00F0
2D00B4
3EAAF8
7FFFFC
ENDCHAR
STARTCHAR Theta.c2sc
ENCODING -1
SWIDTH 519 0
DWIDTH 12 0
BBX 11 14 1 0
BITMAP
02F900
1FFF80
3E07D0
7801E0
B400F0
B400B4
B7FEB4
F6A9B4
B400B4
B400F0
7C01E0
3E03D0
1FFF80
02F900
ENDCHAR
STARTCHAR Lambda.c2sc
ENCODING -1
SWIDTH 487 0
DWIDTH 12 0
BBX 11 14 0 0
BITMAP
007C00
00BD00
00FE00
01EF00
02DB40
03C780
0783C0
0B42D0
0F41E0
0F01F0
1E00F0
2D00B4
3C0078
78003C
ENDCHAR
STARTCHAR Xi.c2sc
ENCODING -1
SWIDTH 389 0
DWIDTH 9 0
BBX 9 14 0 0
BITMAP
7FFF80
2AAA40
000000
000000
000000
000000
2FFF00
1AAA00
000000
000000
000000
000000
2AAA40
7FFF80
ENDCHAR
STARTCHAR Pi.c2sc
ENCODING -1
SWIDTH 525 0
DWIDTH 13 0
BBX 10 14 1 0
BITMAP
7FFFF0
7EAAF0
7800F0
7800F0
7800F0
7800F0
7800F0
7800F0
7800F0
7800F0
7800F0
7800F0
7800F0
7800F0
ENDCHAR
STARTCHAR Sigma.c2sc
ENCODING -1
SWIDTH 435 0
DWIDTH 10 0
BBX 9 14 1 0
BITMAP
FFFF40
FEAA40
B80000
3D0000
1F0000
0B8000
07D000
07D000
0B8000
1F0000
3D0000
B80000
FEAA80
FFFF80
ENDCHAR
STARTCHAR Phi.c2sc
ENCODING -1
SWIDTH 587 0
DWIDTH 14 0
BBX 12 14 1 0
BITMAP
003C00
02FF90
1FFFF4
3D3C7C
783C2E
B43C1E
B43C0F
B43C0F
B43C1E
783C2D
3E3DBC
0FFFF4
01BE40
003C00
ENDCHAR
STARTCHAR Psi.c2sc
ENCODING -1
SWIDTH 560 0
DWIDTH 13 0
BBX 12 14 1 0
BITMAP
F4782D
F4782D
F4782D
F4782D
B4782D
B4783C
B8783C
7C78B8
2E79F4
0FFFD0
01FE40
007800
007800
007800
ENDCHAR
STARTCHAR Omega.c2sc
ENCODING -1
SWIDTH 540 0
DWIDTH 13 0
BBX 11 14 1 0
BITMAP
02FE00
0FFFC0
2E02E0
7C00F0
7800B4
B400B8
B40078
B40078
B800B4
7800B4
3C00F0
1E02D0
6FCFE4
BFCFF8
ENDCHAR
STARTCHAR uni0402.c2sc
ENCODING -1
SWIDTH 596 0
DWIDTH 14 0
BBX 14 14 0 0
BITMAP
7FFFE000
6AFA9000
00F00000
00F00000
00F00000
00FAF900
00FFFF40
00F407C0
00F002D0
00F002D0
00F002D0
00F007C0
00F07F80
00F07900
ENDCHAR
STARTCHAR uni0404.c2sc
ENCODING -1
SWIDTH 490 0
DWIDTH 12 0
BBX 10 14 1 0
BITMAP
06F900
1FFF80
3D03D0
7801E0
B401A0
B40000
FFF400
FAA400
B40000
B40090
7801E0
3D03D0
1FEF80
06F900
ENDCHAR
STARTCHAR uni0409.c2sc
ENCODING -1
SWIDTH 782 0
DWIDTH 19 0
BBX 18 14 0 0
BITMAP
03FFFC0000
03EABC0000
03C03C0000
03C03C0000
03C03C0000
03C03FFE00
03C03EAFC0
03C03C02E0
07C03C01E0
07803C01F0
07803C01E0
0F403C03D0
7F003EAFC0
78003FFE00
ENDCHAR
STARTCHAR uni040A.c2sc
ENCODING -1
SWIDTH 788 0
DWIDTH 19 0
BBX 17 14 1 0
BITMAP
7800F00000
7800F00000
7800F00000
7800F00000
7800F00000
7800FFF800
7FFFFABF00
7EAAF00B80
7800F007C0
7800F003C0
7800F007C0
7800F00B80
7800FABF00
7800FFF800
ENDCHAR
STARTCHAR uni040B.c2sc
ENCODING -1
SWIDTH 596 0
DWIDTH 14 0
BBX 14 14 0 0
BITMAP
7FFFE000
6AFA9000
00F00000
00F00000
00F00000
00FAF900
00FFFF40
00F407C0
00F003D0
00F002D0
00F002D0
00F002D0
00F002D0
00F002D0
ENDCHAR
STARTCHAR uni040F.c2sc
ENCODING -1
SWIDTH 524 0
DWIDTH 13 0
BBX 10 18 1 -4
BITMAP
7800F0
7800F0
7800F0
7800F0
7800F0
7800F0
7800F0
7800F0
7800F0
7800F0
7800F0
7800F0
7EAAF0
7FFFF0
00B400
00B400
00B400
00B400
ENDCHAR
STARTCHAR uni0411.c2sc
ENCODING -1
SWIDTH 479 0
DWIDTH 12 0
BBX 10 14 1 0
BITMAP
7FFF40
7EAA40
780000
780000
780000
7FF900
7EBF80
7807C0
7802D0
7802D0
7802D0
7807C0
7EBF80
7FF900
ENDCHAR
STARTCHAR uni0414.c2sc
ENCODING -1
SWIDTH 563 0
DWIDTH 14 0
BBX 13 18 0 -4
BITMAP
02FFFD00
02FABD00
02D02D00
02D02D00
02D02D00
02D02D00
02D02D00
02D02D00
03C02D00
03C02D00
07802D00
0F402D00
7FAABF80
7FFFFF80
78000780
78000780
78000780
78000780
ENDCHAR
STARTCHAR uni0416.c2sc
ENCODING -1
SWIDTH 651 0
DWIDTH 16 0
BBX 15 14 0 0
BITMAP
3E07C0F8
1F07C1F0
0F47C2E0
07C7C7C0
03D7CB40
01E7DF00
00FFFE00
01FFFF00
02E7CF40
07C7CBC0
0B87C3D0
1F47C2F0
2E07C1F4
7D07C0BC
ENDCHAR
STARTCHAR uni0417.c2sc
ENCODING -1
SWIDTH 466 0
DWIDTH 11 0
BBX 9 14 1 0
BITMAP
1BF800
7FFF00
B80F80
A40780
000780
001F40
03FD00
02BE00
000B40
0007C0
F007C0
F80B80
7FFF00
1BF800
ENDCHAR
STARTCHAR uni0418.c2sc
ENCODING -1
SWIDTH 537 0
DWIDTH 13 0
BBX 11 14 1 0
BITMAP
7800F4
7802F4
7803F4
780BF4
781FB4
782DB4
7878B4
78F4B4
79E0B4
7BC0B4
7F80B4
7F00B4
7D00B4
7C00B4
ENDCHAR
ENDFONT
